Sector.ufo
<glyph name="exclam" format="2">
	<advance width="700"/>
	<unicode hex="0021"/>
	<outline>
		<contour>
			<point x="349" y="410" type="curve" smooth="yes"/>
			<point x="380" y="410"/>
			<point x="405" y="594"/>
			<point x="405" y="625" type="curve" smooth="yes"/>
			<point x="405" y="656"/>
			<point x="380" y="680"/>
			<point x="349" y="680" type="curve" smooth="yes"/>
			<point x="318" y="680"/>
			<point x="295" y="656"/>
			<point x="295" y="625" type="curve" smooth="yes"/>
			<point x="295" y="594"/>
			<point x="318" y="410"/>
		</contour>
		<contour>
			<point x="349" y="410" type="curve" smooth="yes"/>
			<point x="377" y="410"/>
			<point x="400" y="512"/>
			<point x="400" y="540" type="curve" smooth="yes"/>
			<point x="400" y="568"/>
			<point x="377" y="590"/>
			<point x="349" y="590" type="curve" smooth="yes"/>
			<point x="321" y="590"/>
			<point x="300" y="568"/>
			<point x="300" y="540" type="curve" smooth="yes"/>
			<point x="300" y="512"/>
			<point x="321" y="410"/>
		</contour>
		<contour>
			<point x="349" y="250" type="curve" smooth="yes"/>
			<point x="377" y="250"/>
			<point x="400" y="272"/>
			<point x="400" y="300" type="curve" smooth="yes"/>
			<point x="400" y="328"/>
			<point x="377" y="430"/>
			<point x="349" y="430" type="curve" smooth="yes"/>
			<point x="321" y="430"/>
			<point x="300" y="328"/>
			<point x="300" y="300" type="curve" smooth="yes"/>
			<point x="300" y="272"/>
			<point x="321" y="250"/>
		</contour>
		<contour>
			<point x="349" y="250" type="curve" smooth="yes"/>
			<point x="377" y="250"/>
			<point x="400" y="352"/>
			<point x="400" y="380" type="curve" smooth="yes"/>
			<point x="400" y="408"/>
			<point x="377" y="430"/>
			<point x="349" y="430" type="curve" smooth="yes"/>
			<point x="321" y="430"/>
			<point x="300" y="408"/>
			<point x="300" y="380" type="curve" smooth="yes"/>
			<point x="300" y="352"/>
			<point x="321" y="250"/>
		</contour>
		<contour>
			<point x="349" y="410" type="curve" smooth="yes"/>
			<point x="377" y="410"/>
			<point x="400" y="432"/>
			<point x="400" y="460" type="curve" smooth="yes"/>
			<point x="400" y="488"/>
			<point x="377" y="590"/>
			<point x="349" y="590" type="curve" smooth="yes"/>
			<point x="321" y="590"/>
			<point x="300" y="488"/>
			<point x="300" y="460" type="curve" smooth="yes"/>
			<point x="300" y="432"/>
			<point x="321" y="410"/>
		</contour>
		<contour>
			<point x="349" y="270" type="curve" smooth="yes"/>
			<point x="321" y="270"/>
			<point x="298" y="248"/>
			<point x="298" y="220" type="curve" smooth="yes"/>
			<point x="298" y="192"/>
			<point x="321" y="170"/>
			<point x="349" y="170" type="curve" smooth="yes"/>
			<point x="377" y="170"/>
			<point x="398" y="192"/>
			<point x="398" y="220" type="curve" smooth="yes"/>
			<point x="398" y="251"/>
			<point x="377" y="270"/>
		</contour>
		<component base="period"/>
	</outline>
</glyph>
<glyph name="quotedbl" format="2">
	<advance width="700"/>
	<unicode hex="0022"/>
	<outline>
		<contour>
			<point x="267" y="410" type="curve" smooth="yes"/>
			<point x="298" y="410"/>
			<point x="323" y="434"/>
			<point x="323" y="465" type="curve" smooth="yes"/>
			<point x="323" y="496"/>
			<point x="298" y="680"/>
			<point x="267" y="680" type="curve" smooth="yes"/>
			<point x="236" y="680"/>
			<point x="213" y="496"/>
			<point x="213" y="465" type="curve" smooth="yes"/>
			<point x="213" y="434"/>
			<point x="236" y="410"/>
		</contour>
		<contour>
			<point x="267" y="500" type="curve" smooth="yes"/>
			<point x="295" y="500"/>
			<point x="318" y="602"/>
			<point x="318" y="630" type="curve" smooth="yes"/>
			<point x="318" y="658"/>
			<point x="295" y="680"/>
			<point x="267" y="680" type="curve" smooth="yes"/>
			<point x="239" y="680"/>
			<point x="218" y="658"/>
			<point x="218" y="630" type="curve" smooth="yes"/>
			<point x="218" y="602"/>
			<point x="239" y="500"/>
		</contour>
		<contour>
			<point x="267" y="500" type="curve" smooth="yes"/>
			<point x="295" y="500"/>
			<point x="318" y="522"/>
			<point x="318" y="550" type="curve" smooth="yes"/>
			<point x="318" y="578"/>
			<point x="295" y="680"/>
			<point x="267" y="680" type="curve" smooth="yes"/>
			<point x="239" y="680"/>
			<point x="218" y="578"/>
			<point x="218" y="550" type="curve" smooth="yes"/>
			<point x="218" y="522"/>
			<point x="241" y="500"/>
		</contour>
		<contour>
			<point x="431" y="410" type="curve" smooth="yes"/>
			<point x="462" y="410"/>
			<point x="487" y="434"/>
			<point x="487" y="465" type="curve" smooth="yes"/>
			<point x="487" y="496"/>
			<point x="462" y="680"/>
			<point x="431" y="680" type="curve" smooth="yes"/>
			<point x="400" y="680"/>
			<point x="377" y="496"/>
			<point x="377" y="465" type="curve" smooth="yes"/>
			<point x="377" y="434"/>
			<point x="400" y="410"/>
		</contour>
		<contour>
			<point x="431" y="500" type="curve" smooth="yes"/>
			<point x="459" y="500"/>
			<point x="482" y="602"/>
			<point x="482" y="630" type="curve" smooth="yes"/>
			<point x="482" y="658"/>
			<point x="459" y="680"/>
			<point x="431" y="680" type="curve" smooth="yes"/>
			<point x="403" y="680"/>
			<point x="382" y="658"/>
			<point x="382" y="630" type="curve" smooth="yes"/>
			<point x="382" y="602"/>
			<point x="403" y="500"/>
		</contour>
		<contour>
			<point x="431" y="500" type="curve" smooth="yes"/>
			<point x="459" y="500"/>
			<point x="482" y="522"/>
			<point x="482" y="550" type="curve" smooth="yes"/>
			<point x="482" y="578"/>
			<point x="459" y="680"/>
			<point x="431" y="680" type="curve" smooth="yes"/>
			<point x="403" y="680"/>
			<point x="382" y="578"/>
			<point x="382" y="550" type="curve" smooth="yes"/>
			<point x="382" y="522"/>
			<point x="405" y="500"/>
		</contour>
	</outline>
</glyph>
<glyph name="numbersign" format="2">
	<advance width="700"/>
	<unicode hex="0023"/>
	<outline>
		<contour>
			<point x="236" y="410" type="curve" smooth="yes"/>
			<point x="267" y="410"/>
			<point x="292" y="594"/>
			<point x="292" y="625" type="curve" smooth="yes"/>
			<point x="292" y="656"/>
			<point x="267" y="680"/>
			<point x="236" y="680" type="curve" smooth="yes"/>
			<point x="205" y="680"/>
			<point x="182" y="656"/>
			<point x="182" y="625" type="curve" smooth="yes"/>
			<point x="182" y="594"/>
			<point x="205" y="410"/>
		</contour>
		<contour>
			<point x="236" y="0" type="curve" smooth="yes"/>
			<point x="267" y="0"/>
			<point x="292" y="23"/>
			<point x="292" y="55" type="curve" smooth="yes"/>
			<point x="292" y="86"/>
			<point x="267" y="270"/>
			<point x="236" y="270" type="curve" smooth="yes"/>
			<point x="205" y="270"/>
			<point x="182" y="86"/>
			<point x="182" y="55" type="curve"/>
			<point x="182" y="24"/>
			<point x="205" y="0"/>
		</contour>
		<contour>
			<point x="236" y="410" type="curve" smooth="yes"/>
			<point x="264" y="410"/>
			<point x="287" y="512"/>
			<point x="287" y="540" type="curve" smooth="yes"/>
			<point x="287" y="568"/>
			<point x="264" y="590"/>
			<point x="236" y="590" type="curve" smooth="yes"/>
			<point x="208" y="590"/>
			<point x="187" y="568"/>
			<point x="187" y="540" type="curve" smooth="yes"/>
			<point x="187" y="512"/>
			<point x="208" y="410"/>
		</contour>
		<contour>
			<point x="236" y="250" type="curve" smooth="yes"/>
			<point x="264" y="250"/>
			<point x="287" y="272"/>
			<point x="287" y="300" type="curve" smooth="yes"/>
			<point x="287" y="328"/>
			<point x="264" y="430"/>
			<point x="236" y="430" type="curve" smooth="yes"/>
			<point x="208" y="430"/>
			<point x="187" y="328"/>
			<point x="187" y="300" type="curve" smooth="yes"/>
			<point x="187" y="272"/>
			<point x="208" y="250"/>
		</contour>
		<contour>
			<point x="236" y="90" type="curve" smooth="yes"/>
			<point x="264" y="90"/>
			<point x="287" y="192"/>
			<point x="287" y="220" type="curve" smooth="yes"/>
			<point x="287" y="248"/>
			<point x="264" y="270"/>
			<point x="236" y="270" type="curve" smooth="yes"/>
			<point x="208" y="270"/>
			<point x="187" y="248"/>
			<point x="187" y="220" type="curve" smooth="yes"/>
			<point x="187" y="192"/>
			<point x="208" y="90"/>
		</contour>
		<contour>
			<point x="236" y="90" type="curve" smooth="yes"/>
			<point x="264" y="90"/>
			<point x="287" y="112"/>
			<point x="287" y="140" type="curve" smooth="yes"/>
			<point x="287" y="168"/>
			<point x="264" y="270"/>
			<point x="236" y="270" type="curve" smooth="yes"/>
			<point x="208" y="270"/>
			<point x="187" y="168"/>
			<point x="187" y="140" type="curve" smooth="yes"/>
			<point x="187" y="112"/>
			<point x="210" y="90"/>
		</contour>
		<contour>
			<point x="236" y="250" type="curve" smooth="yes"/>
			<point x="264" y="250"/>
			<point x="287" y="352"/>
			<point x="287" y="380" type="curve" smooth="yes"/>
			<point x="287" y="408"/>
			<point x="264" y="430"/>
			<point x="236" y="430" type="curve" smooth="yes"/>
			<point x="208" y="430"/>
			<point x="187" y="408"/>
			<point x="187" y="380" type="curve" smooth="yes"/>
			<point x="187" y="352"/>
			<point x="208" y="250"/>
		</contour>
		<contour>
			<point x="236" y="410" type="curve" smooth="yes"/>
			<point x="264" y="410"/>
			<point x="287" y="432"/>
			<point x="287" y="460" type="curve" smooth="yes"/>
			<point x="287" y="488"/>
			<point x="264" y="590"/>
			<point x="236" y="590" type="curve" smooth="yes"/>
			<point x="208" y="590"/>
			<point x="187" y="488"/>
			<point x="187" y="460" type="curve" smooth="yes"/>
			<point x="187" y="432"/>
			<point x="208" y="410"/>
		</contour>
		<contour>
			<point x="463" y="410" type="curve" smooth="yes"/>
			<point x="494" y="410"/>
			<point x="519" y="594"/>
			<point x="519" y="625" type="curve" smooth="yes"/>
			<point x="519" y="656"/>
			<point x="494" y="680"/>
			<point x="463" y="680" type="curve" smooth="yes"/>
			<point x="432" y="680"/>
			<point x="409" y="656"/>
			<point x="409" y="625" type="curve" smooth="yes"/>
			<point x="409" y="594"/>
			<point x="432" y="410"/>
		</contour>
		<contour>
			<point x="463" y="0" type="curve" smooth="yes"/>
			<point x="494" y="0"/>
			<point x="519" y="24"/>
			<point x="519" y="55" type="curve" smooth="yes"/>
			<point x="519" y="86"/>
			<point x="494" y="270"/>
			<point x="463" y="270" type="curve" smooth="yes"/>
			<point x="432" y="270"/>
			<point x="409" y="86"/>
			<point x="409" y="55" type="curve"/>
			<point x="409" y="24"/>
			<point x="432" y="0"/>
		</contour>
		<contour>
			<point x="463" y="410" type="curve" smooth="yes"/>
			<point x="491" y="410"/>
			<point x="514" y="512"/>
			<point x="514" y="540" type="curve" smooth="yes"/>
			<point x="514" y="568"/>
			<point x="491" y="590"/>
			<point x="463" y="590" type="curve" smooth="yes"/>
			<point x="435" y="590"/>
			<point x="414" y="568"/>
			<point x="414" y="540" type="curve" smooth="yes"/>
			<point x="414" y="512"/>
			<point x="435" y="410"/>
		</contour>
		<contour>
			<point x="463" y="250" type="curve" smooth="yes"/>
			<point x="491" y="250"/>
			<point x="514" y="272"/>
			<point x="514" y="300" type="curve" smooth="yes"/>
			<point x="514" y="328"/>
			<point x="491" y="430"/>
			<point x="463" y="430" type="curve" smooth="yes"/>
			<point x="435" y="430"/>
			<point x="414" y="328"/>
			<point x="414" y="300" type="curve" smooth="yes"/>
			<point x="414" y="272"/>
			<point x="435" y="250"/>
		</contour>
		<contour>
			<point x="463" y="90" type="curve" smooth="yes"/>
			<point x="491" y="90"/>
			<point x="514" y="192"/>
			<point x="514" y="220" type="curve" smooth="yes"/>
			<point x="514" y="248"/>
			<point x="491" y="270"/>
			<point x="463" y="270" type="curve" smooth="yes"/>
			<point x="435" y="270"/>
			<point x="414" y="248"/>
			<point x="414" y="220" type="curve" smooth="yes"/>
			<point x="414" y="192"/>
			<point x="435" y="90"/>
		</contour>
		<contour>
			<point x="463" y="90" type="curve" smooth="yes"/>
			<point x="491" y="90"/>
			<point x="514" y="112"/>
			<point x="514" y="140" type="curve" smooth="yes"/>
			<point x="514" y="168"/>
			<point x="491" y="270"/>
			<point x="463" y="270" type="curve" smooth="yes"/>
			<point x="435" y="270"/>
			<point x="414" y="168"/>
			<point x="414" y="140" type="curve" smooth="yes"/>
			<point x="414" y="112"/>
			<point x="437" y="90"/>
		</contour>
		<contour>
			<point x="463" y="250" type="curve" smooth="yes"/>
			<point x="491" y="250"/>
			<point x="514" y="352"/>
			<point x="514" y="380" type="curve" smooth="yes"/>
			<point x="514" y="408"/>
			<point x="491" y="430"/>
			<point x="463" y="430" type="curve" smooth="yes"/>
			<point x="435" y="430"/>
			<point x="414" y="408"/>
			<point x="414" y="380" type="curve" smooth="yes"/>
			<point x="414" y="352"/>
			<point x="435" y="250"/>
		</contour>
		<contour>
			<point x="463" y="410" type="curve" smooth="yes"/>
			<point x="491" y="410"/>
			<point x="514" y="432"/>
			<point x="514" y="460" type="curve" smooth="yes"/>
			<point x="514" y="488"/>
			<point x="491" y="590"/>
			<point x="463" y="590" type="curve" smooth="yes"/>
			<point x="435" y="590"/>
			<point x="414" y="488"/>
			<point x="414" y="460" type="curve" smooth="yes"/>
			<point x="414" y="432"/>
			<point x="435" y="410"/>
		</contour>
		<contour>
			<point x="222" y="165" type="curve"/>
			<point x="253" y="165"/>
			<point x="278" y="189"/>
			<point x="278" y="220" type="curve"/>
			<point x="278" y="251"/>
			<point x="253" y="275"/>
			<point x="222" y="275" type="curve"/>
			<point x="191" y="275"/>
			<point x="93" y="251"/>
			<point x="93" y="220" type="curve"/>
			<point x="93" y="189"/>
			<point x="191" y="165"/>
		</contour>
		<contour>
			<point x="147" y="165" type="curve"/>
			<point x="178" y="165"/>
			<point x="278" y="189"/>
			<point x="278" y="220" type="curve"/>
			<point x="278" y="251"/>
			<point x="178" y="275"/>
			<point x="147" y="275" type="curve"/>
			<point x="116" y="275"/>
			<point x="93" y="251"/>
			<point x="93" y="220" type="curve"/>
			<point x="93" y="189"/>
			<point x="116" y="165"/>
		</contour>
		<contour>
			<point x="387" y="165" type="curve"/>
			<point x="418" y="165"/>
			<point x="443" y="189"/>
			<point x="443" y="220" type="curve"/>
			<point x="443" y="251"/>
			<point x="418" y="275"/>
			<point x="387" y="275" type="curve"/>
			<point x="356" y="275"/>
			<point x="258" y="251"/>
			<point x="258" y="220" type="curve"/>
			<point x="258" y="189"/>
			<point x="356" y="165"/>
		</contour>
		<contour>
			<point x="312" y="165" type="curve"/>
			<point x="343" y="165"/>
			<point x="443" y="189"/>
			<point x="443" y="220" type="curve"/>
			<point x="443" y="251"/>
			<point x="343" y="275"/>
			<point x="312" y="275" type="curve"/>
			<point x="281" y="275"/>
			<point x="258" y="251"/>
			<point x="258" y="220" type="curve"/>
			<point x="258" y="189"/>
			<point x="281" y="165"/>
		</contour>
		<contour>
			<point x="552" y="165" type="curve"/>
			<point x="583" y="165"/>
			<point x="608" y="189"/>
			<point x="608" y="220" type="curve"/>
			<point x="608" y="251"/>
			<point x="583" y="275"/>
			<point x="552" y="275" type="curve"/>
			<point x="521" y="275"/>
			<point x="423" y="251"/>
			<point x="423" y="220" type="curve"/>
			<point x="423" y="189"/>
			<point x="521" y="165"/>
		</contour>
		<contour>
			<point x="477" y="165" type="curve"/>
			<point x="508" y="165"/>
			<point x="608" y="189"/>
			<point x="608" y="220" type="curve"/>
			<point x="608" y="251"/>
			<point x="508" y="275"/>
			<point x="477" y="275" type="curve"/>
			<point x="446" y="275"/>
			<point x="423" y="251"/>
			<point x="423" y="220" type="curve"/>
			<point x="423" y="189"/>
			<point x="446" y="165"/>
		</contour>
		<contour>
			<point x="222" y="404" type="curve"/>
			<point x="253" y="404"/>
			<point x="278" y="428"/>
			<point x="278" y="459" type="curve"/>
			<point x="278" y="490"/>
			<point x="253" y="514"/>
			<point x="222" y="514" type="curve"/>
			<point x="191" y="514"/>
			<point x="93" y="490"/>
			<point x="93" y="459" type="curve"/>
			<point x="93" y="428"/>
			<point x="191" y="404"/>
		</contour>
		<contour>
			<point x="147" y="404" type="curve"/>
			<point x="178" y="404"/>
			<point x="278" y="428"/>
			<point x="278" y="459" type="curve"/>
			<point x="278" y="490"/>
			<point x="178" y="514"/>
			<point x="147" y="514" type="curve"/>
			<point x="116" y="514"/>
			<point x="93" y="490"/>
			<point x="93" y="459" type="curve"/>
			<point x="93" y="428"/>
			<point x="116" y="404"/>
		</contour>
		<contour>
			<point x="387" y="404" type="curve"/>
			<point x="418" y="404"/>
			<point x="443" y="428"/>
			<point x="443" y="459" type="curve"/>
			<point x="443" y="490"/>
			<point x="418" y="514"/>
			<point x="387" y="514" type="curve"/>
			<point x="356" y="514"/>
			<point x="258" y="490"/>
			<point x="258" y="459" type="curve"/>
			<point x="258" y="428"/>
			<point x="356" y="404"/>
		</contour>
		<contour>
			<point x="312" y="404" type="curve"/>
			<point x="343" y="404"/>
			<point x="443" y="428"/>
			<point x="443" y="459" type="curve"/>
			<point x="443" y="490"/>
			<point x="343" y="514"/>
			<point x="312" y="514" type="curve"/>
			<point x="281" y="514"/>
			<point x="258" y="490"/>
			<point x="258" y="459" type="curve"/>
			<point x="258" y="428"/>
			<point x="281" y="404"/>
		</contour>
		<contour>
			<point x="552" y="404" type="curve"/>
			<point x="583" y="404"/>
			<point x="608" y="428"/>
			<point x="608" y="459" type="curve"/>
			<point x="608" y="490"/>
			<point x="583" y="514"/>
			<point x="552" y="514" type="curve"/>
			<point x="521" y="514"/>
			<point x="423" y="490"/>
			<point x="423" y="459" type="curve"/>
			<point x="423" y="428"/>
			<point x="521" y="404"/>
		</contour>
		<contour>
			<point x="477" y="404" type="curve"/>
			<point x="508" y="404"/>
			<point x="608" y="428"/>
			<point x="608" y="459" type="curve"/>
			<point x="608" y="490"/>
			<point x="508" y="514"/>
			<point x="477" y="514" type="curve"/>
			<point x="446" y="514"/>
			<point x="423" y="490"/>
			<point x="423" y="459" type="curve"/>
			<point x="423" y="428"/>
			<point x="446" y="404"/>
		</contour>
	</outline>
</glyph>
<glyph name="dollar" format="2">
	<advance width="700"/>
	<unicode hex="0024"/>
	<outline>
		<contour>
			<point x="356" y="494" type="curve" smooth="yes"/>
			<point x="387" y="494"/>
			<point x="412" y="678"/>
			<point x="412" y="709" type="curve" smooth="yes"/>
			<point x="412" y="740"/>
			<point x="387" y="764"/>
			<point x="356" y="764" type="curve" smooth="yes"/>
			<point x="325" y="764"/>
			<point x="302" y="740"/>
			<point x="302" y="709" type="curve" smooth="yes"/>
			<point x="302" y="678"/>
			<point x="325" y="494"/>
		</contour>
		<contour>
			<point x="356" y="-39" type="curve" smooth="yes"/>
			<point x="387" y="-39"/>
			<point x="412" y="-16"/>
			<point x="412" y="16" type="curve" smooth="yes"/>
			<point x="412" y="47"/>
			<point x="387" y="231"/>
			<point x="356" y="231" type="curve" smooth="yes"/>
			<point x="325" y="231"/>
			<point x="302" y="47"/>
			<point x="302" y="16" type="curve"/>
			<point x="302" y="-15"/>
			<point x="325" y="-39"/>
		</contour>
		<contour>
			<point x="356" y="420" type="curve" smooth="yes"/>
			<point x="384" y="420"/>
			<point x="407" y="522"/>
			<point x="407" y="550" type="curve" smooth="yes"/>
			<point x="407" y="578"/>
			<point x="384" y="600"/>
			<point x="356" y="600" type="curve" smooth="yes"/>
			<point x="328" y="600"/>
			<point x="307" y="578"/>
			<point x="307" y="550" type="curve" smooth="yes"/>
			<point x="307" y="522"/>
			<point x="328" y="420"/>
		</contour>
		<contour>
			<point x="356" y="106" type="curve" smooth="yes"/>
			<point x="384" y="106"/>
			<point x="407" y="208"/>
			<point x="407" y="236" type="curve" smooth="yes"/>
			<point x="407" y="264"/>
			<point x="384" y="286"/>
			<point x="356" y="286" type="curve" smooth="yes"/>
			<point x="328" y="286"/>
			<point x="307" y="264"/>
			<point x="307" y="236" type="curve" smooth="yes"/>
			<point x="307" y="208"/>
			<point x="328" y="106"/>
		</contour>
		<contour>
			<point x="356" y="106" type="curve" smooth="yes"/>
			<point x="384" y="106"/>
			<point x="407" y="128"/>
			<point x="407" y="156" type="curve" smooth="yes"/>
			<point x="407" y="184"/>
			<point x="384" y="286"/>
			<point x="356" y="286" type="curve" smooth="yes"/>
			<point x="328" y="286"/>
			<point x="307" y="184"/>
			<point x="307" y="156" type="curve" smooth="yes"/>
			<point x="307" y="128"/>
			<point x="330" y="106"/>
		</contour>
		<contour>
			<point x="356" y="420" type="curve" smooth="yes"/>
			<point x="384" y="420"/>
			<point x="407" y="442"/>
			<point x="407" y="470" type="curve" smooth="yes"/>
			<point x="407" y="498"/>
			<point x="384" y="600"/>
			<point x="356" y="600" type="curve" smooth="yes"/>
			<point x="328" y="600"/>
			<point x="307" y="498"/>
			<point x="307" y="470" type="curve" smooth="yes"/>
			<point x="307" y="442"/>
			<point x="328" y="420"/>
		</contour>
		<component base="S" xOffset="5"/>
	</outline>
</glyph>
<glyph name="percent" format="2">
	<advance width="700"/>
	<unicode hex="0025"/>
	<outline>
		<contour>
			<point x="455" y="614" type="curve" smooth="yes"/>
			<point x="485" y="603"/>
			<point x="517" y="617"/>
			<point x="527" y="646" type="curve" smooth="yes"/>
			<point x="537" y="675"/>
			<point x="522" y="706"/>
			<point x="493" y="717" type="curve" smooth="yes"/>
			<point x="464" y="728"/>
			<point x="435" y="713"/>
			<point x="424" y="684" type="curve" smooth="yes"/>
			<point x="413" y="655"/>
			<point x="426" y="625"/>
		</contour>
		<contour>
			<point x="401" y="463" type="curve" smooth="yes"/>
			<point x="427" y="454"/>
			<point x="483" y="542"/>
			<point x="493" y="568" type="curve" smooth="yes"/>
			<point x="503" y="594"/>
			<point x="489" y="624"/>
			<point x="462" y="633" type="curve" smooth="yes"/>
			<point x="436" y="642"/>
			<point x="408" y="629"/>
			<point x="399" y="602" type="curve" smooth="yes"/>
			<point x="390" y="576"/>
			<point x="374" y="472"/>
		</contour>
		<contour>
			<point x="346" y="313" type="curve" smooth="yes"/>
			<point x="372" y="304"/>
			<point x="401" y="316"/>
			<point x="411" y="343" type="curve" smooth="yes"/>
			<point x="421" y="369"/>
			<point x="434" y="472"/>
			<point x="408" y="482" type="curve" smooth="yes"/>
			<point x="381" y="492"/>
			<point x="327" y="403"/>
			<point x="317" y="377" type="curve"/>
			<point x="307" y="351"/>
			<point x="320" y="322"/>
		</contour>
		<contour>
			<point x="291" y="163" type="curve" smooth="yes"/>
			<point x="318" y="153"/>
			<point x="375" y="241"/>
			<point x="384" y="267" type="curve" smooth="yes"/>
			<point x="393" y="294"/>
			<point x="379" y="323"/>
			<point x="353" y="332" type="curve" smooth="yes"/>
			<point x="327" y="341"/>
			<point x="300" y="328"/>
			<point x="290" y="302" type="curve" smooth="yes"/>
			<point x="280" y="275"/>
			<point x="265" y="173"/>
		</contour>
		<contour>
			<point x="291" y="163" type="curve" smooth="yes"/>
			<point x="318" y="153"/>
			<point x="346" y="166"/>
			<point x="356" y="192" type="curve" smooth="yes"/>
			<point x="366" y="219"/>
			<point x="379" y="323"/>
			<point x="353" y="332" type="curve" smooth="yes"/>
			<point x="327" y="341"/>
			<point x="271" y="253"/>
			<point x="262" y="227" type="curve" smooth="yes"/>
			<point x="253" y="200"/>
			<point x="265" y="173"/>
		</contour>
		<contour>
			<point x="346" y="313" type="curve" smooth="yes"/>
			<point x="372" y="304"/>
			<point x="428" y="392"/>
			<point x="438" y="418" type="curve" smooth="yes"/>
			<point x="448" y="444"/>
			<point x="434" y="472"/>
			<point x="408" y="482" type="curve" smooth="yes"/>
			<point x="381" y="492"/>
			<point x="353" y="478"/>
			<point x="344" y="452" type="curve" smooth="yes"/>
			<point x="335" y="426"/>
			<point x="320" y="322"/>
		</contour>
		<contour>
			<point x="401" y="463" type="curve" smooth="yes"/>
			<point x="427" y="454"/>
			<point x="456" y="467"/>
			<point x="466" y="493" type="curve"/>
			<point x="475" y="519"/>
			<point x="489" y="624"/>
			<point x="462" y="633" type="curve" smooth="yes"/>
			<point x="436" y="642"/>
			<point x="382" y="554"/>
			<point x="372" y="527" type="curve" smooth="yes"/>
			<point x="362" y="501"/>
			<point x="374" y="472"/>
		</contour>
		<contour>
			<point x="237" y="12" type="curve" smooth="yes"/>
			<point x="263" y="3"/>
			<point x="319" y="91"/>
			<point x="329" y="117" type="curve" smooth="yes"/>
			<point x="339" y="143"/>
			<point x="324" y="173"/>
			<point x="298" y="182" type="curve" smooth="yes"/>
			<point x="272" y="191"/>
			<point x="245" y="178"/>
			<point x="235" y="151" type="curve" smooth="yes"/>
			<point x="225" y="125"/>
			<point x="210" y="21"/>
		</contour>
		<contour>
			<point x="237" y="12" type="curve" smooth="yes"/>
			<point x="263" y="3"/>
			<point x="293" y="16"/>
			<point x="302" y="42" type="curve" smooth="yes"/>
			<point x="311" y="68"/>
			<point x="324" y="173"/>
			<point x="298" y="182" type="curve" smooth="yes"/>
			<point x="272" y="191"/>
			<point x="218" y="102"/>
			<point x="208" y="76" type="curve" smooth="yes"/>
			<point x="198" y="50"/>
			<point x="210" y="21"/>
		</contour>
		<contour>
			<point x="206" y="-73" type="curve" smooth="yes"/>
			<point x="235" y="-83"/>
			<point x="266" y="-69"/>
			<point x="277" y="-40" type="curve" smooth="yes"/>
			<point x="288" y="-11"/>
			<point x="273" y="21"/>
			<point x="244" y="31" type="curve" smooth="yes"/>
			<point x="215" y="41"/>
			<point x="184" y="27"/>
			<point x="174" y="-2" type="curve" smooth="yes"/>
			<point x="164" y="-31"/>
			<point x="177" y="-63"/>
		</contour>
		<contour>
			<point x="106" y="524" type="curve" smooth="yes"/>
			<point x="131" y="511"/>
			<point x="201" y="586"/>
			<point x="215" y="611" type="curve" smooth="yes"/>
			<point x="228" y="634"/>
			<point x="220" y="665"/>
			<point x="196" y="680" type="curve" smooth="yes"/>
			<point x="173" y="694"/>
			<point x="142" y="684"/>
			<point x="128" y="661" type="curve" smooth="yes"/>
			<point x="113" y="637"/>
			<point x="82" y="537"/>
		</contour>
		<contour>
			<point x="106" y="524" type="curve" smooth="yes"/>
			<point x="131" y="511"/>
			<point x="161" y="517"/>
			<point x="175" y="542" type="curve" smooth="yes"/>
			<point x="189" y="566"/>
			<point x="220" y="665"/>
			<point x="196" y="680" type="curve" smooth="yes"/>
			<point x="173" y="694"/>
			<point x="102" y="616"/>
			<point x="88" y="592" type="curve" smooth="yes"/>
			<point x="74" y="567"/>
			<point x="82" y="537"/>
		</contour>
		<contour>
			<point x="106" y="543" type="curve" smooth="yes"/>
			<point x="82" y="530"/>
			<point x="113" y="430"/>
			<point x="128" y="406" type="curve" smooth="yes"/>
			<point x="142" y="383"/>
			<point x="173" y="373"/>
			<point x="196" y="387" type="curve" smooth="yes"/>
			<point x="220" y="402"/>
			<point x="228" y="433"/>
			<point x="215" y="456" type="curve" smooth="yes"/>
			<point x="201" y="481"/>
			<point x="131" y="556"/>
		</contour>
		<contour>
			<point x="106" y="543" type="curve" smooth="yes"/>
			<point x="82" y="530"/>
			<point x="74" y="500"/>
			<point x="88" y="475" type="curve" smooth="yes"/>
			<point x="102" y="451"/>
			<point x="173" y="373"/>
			<point x="196" y="387" type="curve" smooth="yes"/>
			<point x="220" y="402"/>
			<point x="189" y="501"/>
			<point x="175" y="525" type="curve" smooth="yes"/>
			<point x="161" y="550"/>
			<point x="131" y="556"/>
		</contour>
		<contour>
			<point x="319" y="524" type="curve" smooth="yes"/>
			<point x="343" y="537"/>
			<point x="312" y="637"/>
			<point x="297" y="661" type="curve" smooth="yes"/>
			<point x="283" y="684"/>
			<point x="252" y="694"/>
			<point x="229" y="680" type="curve" smooth="yes"/>
			<point x="205" y="665"/>
			<point x="197" y="634"/>
			<point x="210" y="611" type="curve" smooth="yes"/>
			<point x="224" y="586"/>
			<point x="294" y="511"/>
		</contour>
		<contour>
			<point x="319" y="524" type="curve" smooth="yes"/>
			<point x="343" y="537"/>
			<point x="351" y="567"/>
			<point x="337" y="592" type="curve" smooth="yes"/>
			<point x="323" y="616"/>
			<point x="252" y="694"/>
			<point x="229" y="680" type="curve" smooth="yes"/>
			<point x="205" y="665"/>
			<point x="236" y="566"/>
			<point x="250" y="542" type="curve" smooth="yes"/>
			<point x="264" y="517"/>
			<point x="294" y="511"/>
		</contour>
		<contour>
			<point x="319" y="543" type="curve" smooth="yes"/>
			<point x="294" y="556"/>
			<point x="224" y="481"/>
			<point x="210" y="456" type="curve" smooth="yes"/>
			<point x="197" y="433"/>
			<point x="205" y="402"/>
			<point x="229" y="387" type="curve" smooth="yes"/>
			<point x="252" y="373"/>
			<point x="283" y="383"/>
			<point x="297" y="406" type="curve" smooth="yes"/>
			<point x="312" y="430"/>
			<point x="343" y="530"/>
		</contour>
		<contour>
			<point x="319" y="543" type="curve" smooth="yes"/>
			<point x="294" y="556"/>
			<point x="264" y="550"/>
			<point x="250" y="525" type="curve" smooth="yes"/>
			<point x="236" y="501"/>
			<point x="205" y="402"/>
			<point x="229" y="387" type="curve" smooth="yes"/>
			<point x="252" y="373"/>
			<point x="323" y="451"/>
			<point x="337" y="475" type="curve" smooth="yes"/>
			<point x="351" y="500"/>
			<point x="343" y="530"/>
		</contour>
		<contour>
			<point x="381" y="76" type="curve" smooth="yes"/>
			<point x="406" y="63"/>
			<point x="476" y="138"/>
			<point x="490" y="163" type="curve" smooth="yes"/>
			<point x="503" y="186"/>
			<point x="495" y="217"/>
			<point x="471" y="232" type="curve" smooth="yes"/>
			<point x="448" y="246"/>
			<point x="417" y="236"/>
			<point x="403" y="213" type="curve" smooth="yes"/>
			<point x="388" y="189"/>
			<point x="357" y="89"/>
		</contour>
		<contour>
			<point x="381" y="76" type="curve" smooth="yes"/>
			<point x="406" y="63"/>
			<point x="436" y="69"/>
			<point x="450" y="94" type="curve" smooth="yes"/>
			<point x="464" y="118"/>
			<point x="495" y="217"/>
			<point x="471" y="232" type="curve" smooth="yes"/>
			<point x="448" y="246"/>
			<point x="377" y="168"/>
			<point x="363" y="144" type="curve" smooth="yes"/>
			<point x="349" y="119"/>
			<point x="357" y="89"/>
		</contour>
		<contour>
			<point x="381" y="95" type="curve" smooth="yes"/>
			<point x="357" y="82"/>
			<point x="388" y="-18"/>
			<point x="403" y="-42" type="curve" smooth="yes"/>
			<point x="417" y="-65"/>
			<point x="448" y="-75"/>
			<point x="471" y="-61" type="curve" smooth="yes"/>
			<point x="495" y="-46"/>
			<point x="503" y="-15"/>
			<point x="490" y="8" type="curve" smooth="yes"/>
			<point x="476" y="33"/>
			<point x="406" y="108"/>
		</contour>
		<contour>
			<point x="381" y="95" type="curve" smooth="yes"/>
			<point x="357" y="82"/>
			<point x="349" y="52"/>
			<point x="363" y="27" type="curve" smooth="yes"/>
			<point x="377" y="3"/>
			<point x="448" y="-75"/>
			<point x="471" y="-61" type="curve" smooth="yes"/>
			<point x="495" y="-46"/>
			<point x="464" y="53"/>
			<point x="450" y="77" type="curve" smooth="yes"/>
			<point x="436" y="102"/>
			<point x="406" y="108"/>
		</contour>
		<contour>
			<point x="594" y="76" type="curve" smooth="yes"/>
			<point x="618" y="89"/>
			<point x="587" y="189"/>
			<point x="572" y="213" type="curve" smooth="yes"/>
			<point x="558" y="236"/>
			<point x="527" y="246"/>
			<point x="504" y="232" type="curve" smooth="yes"/>
			<point x="480" y="217"/>
			<point x="472" y="186"/>
			<point x="485" y="163" type="curve" smooth="yes"/>
			<point x="499" y="138"/>
			<point x="569" y="63"/>
		</contour>
		<contour>
			<point x="594" y="76" type="curve" smooth="yes"/>
			<point x="618" y="89"/>
			<point x="626" y="119"/>
			<point x="612" y="144" type="curve"/>
			<point x="598" y="168"/>
			<point x="527" y="246"/>
			<point x="504" y="232" type="curve" smooth="yes"/>
			<point x="480" y="217"/>
			<point x="511" y="118"/>
			<point x="525" y="94" type="curve" smooth="yes"/>
			<point x="539" y="69"/>
			<point x="569" y="63"/>
		</contour>
		<contour>
			<point x="594" y="95" type="curve" smooth="yes"/>
			<point x="569" y="108"/>
			<point x="499" y="33"/>
			<point x="485" y="8" type="curve" smooth="yes"/>
			<point x="472" y="-15"/>
			<point x="480" y="-46"/>
			<point x="504" y="-61" type="curve" smooth="yes"/>
			<point x="527" y="-75"/>
			<point x="558" y="-65"/>
			<point x="572" y="-42" type="curve" smooth="yes"/>
			<point x="587" y="-18"/>
			<point x="618" y="82"/>
		</contour>
		<contour>
			<point x="594" y="95" type="curve" smooth="yes"/>
			<point x="569" y="108"/>
			<point x="539" y="102"/>
			<point x="525" y="77" type="curve" smooth="yes"/>
			<point x="511" y="53"/>
			<point x="480" y="-46"/>
			<point x="504" y="-61" type="curve" smooth="yes"/>
			<point x="527" y="-75"/>
			<point x="598" y="3"/>
			<point x="612" y="27" type="curve" smooth="yes"/>
			<point x="626" y="52"/>
			<point x="618" y="82"/>
		</contour>
	</outline>
</glyph>
<glyph name="ampersand" format="2">
	<advance width="700"/>
	<unicode hex="0026"/>
	<guideline x="261" y="238" angle="90"/>
	<outline>
		<contour>
			<point x="266" y="560" type="curve" smooth="yes"/>
			<point x="294" y="574"/>
			<point x="307" y="604"/>
			<point x="293" y="633" type="curve" smooth="yes"/>
			<point x="280" y="661"/>
			<point x="247" y="673"/>
			<point x="219" y="660" type="curve" smooth="yes"/>
			<point x="191" y="647"/>
			<point x="113" y="583"/>
			<point x="126" y="555" type="curve" smooth="yes"/>
			<point x="139" y="527"/>
			<point x="238" y="546"/>
		</contour>
		<contour>
			<point x="143" y="34" type="curve" smooth="yes"/>
			<point x="171" y="21"/>
			<point x="270" y="1"/>
			<point x="283" y="29" type="curve" smooth="yes"/>
			<point x="296" y="57"/>
			<point x="218" y="120"/>
			<point x="190" y="134" type="curve" smooth="yes"/>
			<point x="162" y="148"/>
			<point x="129" y="135"/>
			<point x="116" y="106" type="curve" smooth="yes"/>
			<point x="103" y="78"/>
			<point x="115" y="47"/>
		</contour>
		<contour>
			<point x="211" y="2" type="curve" smooth="yes"/>
			<point x="239" y="-11"/>
			<point x="270" y="1"/>
			<point x="283" y="29" type="curve"/>
			<point x="296" y="57"/>
			<point x="286" y="89"/>
			<point x="258" y="102" type="curve" smooth="yes"/>
			<point x="230" y="115"/>
			<point x="129" y="135"/>
			<point x="116" y="106" type="curve"/>
			<point x="103" y="78"/>
			<point x="183" y="15"/>
		</contour>
		<contour>
			<point x="106" y="490" type="curve" smooth="yes"/>
			<point x="134" y="490"/>
			<point x="155" y="512"/>
			<point x="155" y="540" type="curve" smooth="yes"/>
			<point x="155" y="568"/>
			<point x="134" y="590"/>
			<point x="106" y="590" type="curve" smooth="yes"/>
			<point x="78" y="590"/>
			<point x="55" y="568"/>
			<point x="55" y="540" type="curve" smooth="yes"/>
			<point x="55" y="512"/>
			<point x="78" y="490"/>
		</contour>
		<contour>
			<point x="106" y="250" type="curve" smooth="yes"/>
			<point x="134" y="250"/>
			<point x="155" y="272"/>
			<point x="155" y="300" type="curve"/>
			<point x="155" y="328"/>
			<point x="134" y="350"/>
			<point x="106" y="350" type="curve" smooth="yes"/>
			<point x="78" y="350"/>
			<point x="55" y="328"/>
			<point x="55" y="300" type="curve" smooth="yes"/>
			<point x="55" y="272"/>
			<point x="78" y="250"/>
		</contour>
		<contour>
			<point x="198" y="528" type="curve" smooth="yes"/>
			<point x="226" y="541"/>
			<point x="307" y="604"/>
			<point x="293" y="633" type="curve"/>
			<point x="280" y="661"/>
			<point x="179" y="641"/>
			<point x="151" y="628" type="curve" smooth="yes"/>
			<point x="123" y="615"/>
			<point x="113" y="583"/>
			<point x="126" y="555" type="curve" smooth="yes"/>
			<point x="139" y="527"/>
			<point x="170" y="515"/>
		</contour>
		<contour>
			<point x="181" y="284" type="curve" smooth="yes"/>
			<point x="212" y="284"/>
			<point x="310" y="308"/>
			<point x="310" y="339" type="curve" smooth="yes"/>
			<point x="310" y="370"/>
			<point x="212" y="394"/>
			<point x="181" y="394" type="curve" smooth="yes"/>
			<point x="150" y="394"/>
			<point x="125" y="370"/>
			<point x="125" y="339" type="curve"/>
			<point x="125" y="308"/>
			<point x="150" y="284"/>
		</contour>
		<contour>
			<point x="79" y="95" type="curve" smooth="yes"/>
			<point x="106" y="85"/>
			<point x="160" y="174"/>
			<point x="170" y="200" type="curve" smooth="yes"/>
			<point x="180" y="227"/>
			<point x="167" y="255"/>
			<point x="141" y="264" type="curve" smooth="yes"/>
			<point x="114" y="273"/>
			<point x="85" y="261"/>
			<point x="76" y="235" type="curve" smooth="yes"/>
			<point x="67" y="208"/>
			<point x="53" y="105"/>
		</contour>
		<contour>
			<point x="79" y="95" type="curve" smooth="yes"/>
			<point x="104" y="85"/>
			<point x="133" y="99"/>
			<point x="142" y="125" type="curve" smooth="yes"/>
			<point x="151" y="152"/>
			<point x="167" y="255"/>
			<point x="141" y="264" type="curve" smooth="yes"/>
			<point x="114" y="273"/>
			<point x="58" y="186"/>
			<point x="48" y="159" type="curve" smooth="yes"/>
			<point x="38" y="133"/>
			<point x="53" y="105"/>
		</contour>
		<contour>
			<point x="96" y="340" type="curve" smooth="yes"/>
			<point x="123" y="330"/>
			<point x="177" y="419"/>
			<point x="187" y="445" type="curve" smooth="yes"/>
			<point x="197" y="472"/>
			<point x="184" y="500"/>
			<point x="158" y="509" type="curve" smooth="yes"/>
			<point x="131" y="518"/>
			<point x="102" y="506"/>
			<point x="93" y="480" type="curve" smooth="yes"/>
			<point x="84" y="453"/>
			<point x="70" y="350"/>
		</contour>
		<contour>
			<point x="96" y="340" type="curve" smooth="yes"/>
			<point x="121" y="330"/>
			<point x="150" y="344"/>
			<point x="159" y="370" type="curve" smooth="yes"/>
			<point x="168" y="397"/>
			<point x="184" y="500"/>
			<point x="158" y="509" type="curve" smooth="yes"/>
			<point x="131" y="518"/>
			<point x="75" y="431"/>
			<point x="65" y="404" type="curve" smooth="yes"/>
			<point x="55" y="378"/>
			<point x="70" y="350"/>
		</contour>
		<contour>
			<point x="492" y="-120" type="curve" smooth="yes"/>
			<point x="523" y="-120"/>
			<point x="548" y="-96"/>
			<point x="548" y="-65" type="curve" smooth="yes"/>
			<point x="548" y="-34"/>
			<point x="523" y="-10"/>
			<point x="492" y="-10" type="curve" smooth="yes"/>
			<point x="461" y="-10"/>
			<point x="363" y="-34"/>
			<point x="363" y="-65" type="curve" smooth="yes"/>
			<point x="363" y="-96"/>
			<point x="461" y="-120"/>
		</contour>
		<contour>
			<point x="417" y="-120" type="curve" smooth="yes"/>
			<point x="448" y="-120"/>
			<point x="548" y="-96"/>
			<point x="548" y="-65" type="curve" smooth="yes"/>
			<point x="548" y="-34"/>
			<point x="448" y="-10"/>
			<point x="417" y="-10" type="curve" smooth="yes"/>
			<point x="386" y="-10"/>
			<point x="363" y="-34"/>
			<point x="363" y="-65" type="curve" smooth="yes"/>
			<point x="363" y="-96"/>
			<point x="386" y="-120"/>
		</contour>
		<contour>
			<point x="417" y="290" type="curve" smooth="yes"/>
			<point x="445" y="290"/>
			<point x="468" y="392"/>
			<point x="468" y="420" type="curve" smooth="yes"/>
			<point x="468" y="448"/>
			<point x="445" y="470"/>
			<point x="417" y="470" type="curve" smooth="yes"/>
			<point x="389" y="470"/>
			<point x="368" y="448"/>
			<point x="368" y="420" type="curve" smooth="yes"/>
			<point x="368" y="392"/>
			<point x="389" y="290"/>
		</contour>
		<contour>
			<point x="417" y="130" type="curve" smooth="yes"/>
			<point x="445" y="130"/>
			<point x="468" y="152"/>
			<point x="468" y="180" type="curve" smooth="yes"/>
			<point x="468" y="208"/>
			<point x="445" y="310"/>
			<point x="417" y="310" type="curve" smooth="yes"/>
			<point x="389" y="310"/>
			<point x="368" y="208"/>
			<point x="368" y="180" type="curve" smooth="yes"/>
			<point x="368" y="152"/>
			<point x="389" y="130"/>
		</contour>
		<contour>
			<point x="417" y="-30" type="curve" smooth="yes"/>
			<point x="445" y="-30"/>
			<point x="468" y="72"/>
			<point x="468" y="100" type="curve" smooth="yes"/>
			<point x="468" y="128"/>
			<point x="445" y="150"/>
			<point x="417" y="150" type="curve" smooth="yes"/>
			<point x="389" y="150"/>
			<point x="368" y="128"/>
			<point x="368" y="100" type="curve" smooth="yes"/>
			<point x="368" y="72"/>
			<point x="389" y="-30"/>
		</contour>
		<contour>
			<point x="417" y="-30" type="curve" smooth="yes"/>
			<point x="445" y="-30"/>
			<point x="468" y="-8"/>
			<point x="468" y="20" type="curve" smooth="yes"/>
			<point x="468" y="48"/>
			<point x="445" y="150"/>
			<point x="417" y="150" type="curve" smooth="yes"/>
			<point x="389" y="150"/>
			<point x="368" y="48"/>
			<point x="368" y="20" type="curve" smooth="yes"/>
			<point x="368" y="-8"/>
			<point x="391" y="-30"/>
		</contour>
		<contour>
			<point x="417" y="130" type="curve" smooth="yes"/>
			<point x="445" y="130"/>
			<point x="468" y="232"/>
			<point x="468" y="260" type="curve" smooth="yes"/>
			<point x="468" y="288"/>
			<point x="445" y="310"/>
			<point x="417" y="310" type="curve" smooth="yes"/>
			<point x="389" y="310"/>
			<point x="368" y="288"/>
			<point x="368" y="260" type="curve" smooth="yes"/>
			<point x="368" y="232"/>
			<point x="389" y="130"/>
		</contour>
		<contour>
			<point x="417" y="290" type="curve" smooth="yes"/>
			<point x="445" y="290"/>
			<point x="468" y="312"/>
			<point x="468" y="340" type="curve" smooth="yes"/>
			<point x="468" y="368"/>
			<point x="445" y="470"/>
			<point x="417" y="470" type="curve" smooth="yes"/>
			<point x="389" y="470"/>
			<point x="368" y="368"/>
			<point x="368" y="340" type="curve" smooth="yes"/>
			<point x="368" y="312"/>
			<point x="389" y="290"/>
		</contour>
		<contour>
			<point x="567" y="284" type="curve"/>
			<point x="598" y="284"/>
			<point x="623" y="308"/>
			<point x="623" y="339" type="curve"/>
			<point x="623" y="370"/>
			<point x="598" y="394"/>
			<point x="567" y="394" type="curve"/>
			<point x="536" y="394"/>
			<point x="438" y="370"/>
			<point x="438" y="339" type="curve"/>
			<point x="438" y="308"/>
			<point x="536" y="284"/>
		</contour>
		<contour>
			<point x="492" y="284" type="curve"/>
			<point x="523" y="284"/>
			<point x="623" y="308"/>
			<point x="623" y="339" type="curve"/>
			<point x="623" y="370"/>
			<point x="523" y="394"/>
			<point x="492" y="394" type="curve"/>
			<point x="461" y="394"/>
			<point x="438" y="370"/>
			<point x="438" y="339" type="curve"/>
			<point x="438" y="308"/>
			<point x="461" y="284"/>
		</contour>
		<contour>
			<point x="342" y="284" type="curve"/>
			<point x="373" y="284"/>
			<point x="398" y="308"/>
			<point x="398" y="339" type="curve"/>
			<point x="398" y="370"/>
			<point x="373" y="394"/>
			<point x="342" y="394" type="curve"/>
			<point x="311" y="394"/>
			<point x="213" y="370"/>
			<point x="213" y="339" type="curve"/>
			<point x="213" y="308"/>
			<point x="311" y="284"/>
		</contour>
		<contour>
			<point x="419" y="452" type="curve" smooth="yes"/>
			<point x="443" y="466"/>
			<point x="412" y="566"/>
			<point x="398" y="590" type="curve" smooth="yes"/>
			<point x="384" y="615"/>
			<point x="353" y="622"/>
			<point x="329" y="608" type="curve" smooth="yes"/>
			<point x="305" y="594"/>
			<point x="297" y="565"/>
			<point x="311" y="540" type="curve" smooth="yes"/>
			<point x="325" y="516"/>
			<point x="395" y="438"/>
		</contour>
		<contour>
			<point x="419" y="452" type="curve" smooth="yes"/>
			<point x="443" y="466"/>
			<point x="452" y="497"/>
			<point x="438" y="521" type="curve" smooth="yes"/>
			<point x="424" y="545"/>
			<point x="353" y="622"/>
			<point x="329" y="608" type="curve" smooth="yes"/>
			<point x="305" y="594"/>
			<point x="337" y="495"/>
			<point x="351" y="471" type="curve" smooth="yes"/>
			<point x="365" y="447"/>
			<point x="395" y="438"/>
		</contour>
		<contour>
			<point x="261" y="284" type="curve" smooth="yes"/>
			<point x="292" y="284"/>
			<point x="315" y="308"/>
			<point x="315" y="339" type="curve"/>
			<point x="315" y="370"/>
			<point x="292" y="394"/>
			<point x="261" y="394" type="curve" smooth="yes"/>
			<point x="230" y="394"/>
			<point x="205" y="370"/>
			<point x="205" y="339" type="curve" smooth="yes"/>
			<point x="205" y="308"/>
			<point x="230" y="284"/>
		</contour>
		<contour>
			<point x="404" y="34" type="curve" smooth="yes"/>
			<point x="432" y="47"/>
			<point x="444" y="78"/>
			<point x="431" y="106" type="curve" smooth="yes"/>
			<point x="418" y="135"/>
			<point x="385" y="148"/>
			<point x="357" y="134" type="curve" smooth="yes"/>
			<point x="329" y="120"/>
			<point x="251" y="57"/>
			<point x="264" y="29" type="curve" smooth="yes"/>
			<point x="277" y="1"/>
			<point x="376" y="21"/>
		</contour>
		<contour>
			<point x="336" y="2" type="curve" smooth="yes"/>
			<point x="364" y="15"/>
			<point x="444" y="78"/>
			<point x="431" y="106" type="curve"/>
			<point x="418" y="135"/>
			<point x="317" y="115"/>
			<point x="289" y="102" type="curve" smooth="yes"/>
			<point x="261" y="89"/>
			<point x="251" y="57"/>
			<point x="264" y="29" type="curve"/>
			<point x="277" y="1"/>
			<point x="308" y="-11"/>
		</contour>
	</outline>
</glyph>
<glyph name="quotesingle" format="2">
	<advance width="700"/>
	<unicode hex="0027"/>
	<outline>
		<contour>
			<point x="349" y="410" type="curve" smooth="yes"/>
			<point x="380" y="410"/>
			<point x="405" y="434"/>
			<point x="405" y="465" type="curve" smooth="yes"/>
			<point x="405" y="496"/>
			<point x="380" y="680"/>
			<point x="349" y="680" type="curve" smooth="yes"/>
			<point x="318" y="680"/>
			<point x="295" y="496"/>
			<point x="295" y="465" type="curve" smooth="yes"/>
			<point x="295" y="434"/>
			<point x="318" y="410"/>
		</contour>
		<contour>
			<point x="349" y="500" type="curve" smooth="yes"/>
			<point x="377" y="500"/>
			<point x="400" y="602"/>
			<point x="400" y="630" type="curve" smooth="yes"/>
			<point x="400" y="658"/>
			<point x="377" y="680"/>
			<point x="349" y="680" type="curve" smooth="yes"/>
			<point x="321" y="680"/>
			<point x="300" y="658"/>
			<point x="300" y="630" type="curve" smooth="yes"/>
			<point x="300" y="602"/>
			<point x="321" y="500"/>
		</contour>
		<contour>
			<point x="349" y="500" type="curve" smooth="yes"/>
			<point x="377" y="500"/>
			<point x="400" y="522"/>
			<point x="400" y="550" type="curve" smooth="yes"/>
			<point x="400" y="578"/>
			<point x="377" y="680"/>
			<point x="349" y="680" type="curve" smooth="yes"/>
			<point x="321" y="680"/>
			<point x="300" y="578"/>
			<point x="300" y="550" type="curve" smooth="yes"/>
			<point x="300" y="522"/>
			<point x="323" y="500"/>
		</contour>
	</outline>
</glyph>
<glyph name="parenleft" format="2">
	<advance width="700"/>
	<unicode hex="0028"/>
	<outline>
		<contour>
			<point x="240" y="328" type="curve" smooth="yes"/>
			<point x="268" y="328"/>
			<point x="291" y="430"/>
			<point x="291" y="458" type="curve" smooth="yes"/>
			<point x="291" y="486"/>
			<point x="268" y="508"/>
			<point x="240" y="508" type="curve" smooth="yes"/>
			<point x="212" y="508"/>
			<point x="191" y="486"/>
			<point x="191" y="458" type="curve" smooth="yes"/>
			<point x="191" y="430"/>
			<point x="212" y="328"/>
		</contour>
		<contour>
			<point x="240" y="168" type="curve" smooth="yes"/>
			<point x="268" y="168"/>
			<point x="291" y="190"/>
			<point x="291" y="218" type="curve" smooth="yes"/>
			<point x="291" y="246"/>
			<point x="268" y="348"/>
			<point x="240" y="348" type="curve" smooth="yes"/>
			<point x="212" y="348"/>
			<point x="191" y="246"/>
			<point x="191" y="218" type="curve" smooth="yes"/>
			<point x="191" y="190"/>
			<point x="212" y="168"/>
		</contour>
		<contour>
			<point x="240" y="8" type="curve" smooth="yes"/>
			<point x="268" y="8"/>
			<point x="291" y="110"/>
			<point x="291" y="138" type="curve" smooth="yes"/>
			<point x="291" y="166"/>
			<point x="268" y="188"/>
			<point x="240" y="188" type="curve" smooth="yes"/>
			<point x="212" y="188"/>
			<point x="191" y="166"/>
			<point x="191" y="138" type="curve" smooth="yes"/>
			<point x="191" y="110"/>
			<point x="212" y="8"/>
		</contour>
		<contour>
			<point x="240" y="8" type="curve" smooth="yes"/>
			<point x="268" y="8"/>
			<point x="291" y="30"/>
			<point x="291" y="58" type="curve" smooth="yes"/>
			<point x="291" y="86"/>
			<point x="268" y="188"/>
			<point x="240" y="188" type="curve" smooth="yes"/>
			<point x="212" y="188"/>
			<point x="191" y="86"/>
			<point x="191" y="58" type="curve" smooth="yes"/>
			<point x="191" y="30"/>
			<point x="214" y="8"/>
		</contour>
		<contour>
			<point x="240" y="168" type="curve" smooth="yes"/>
			<point x="268" y="168"/>
			<point x="291" y="270"/>
			<point x="291" y="298" type="curve" smooth="yes"/>
			<point x="291" y="326"/>
			<point x="268" y="348"/>
			<point x="240" y="348" type="curve" smooth="yes"/>
			<point x="212" y="348"/>
			<point x="191" y="326"/>
			<point x="191" y="298" type="curve" smooth="yes"/>
			<point x="191" y="270"/>
			<point x="212" y="168"/>
		</contour>
		<contour>
			<point x="240" y="328" type="curve" smooth="yes"/>
			<point x="268" y="328"/>
			<point x="291" y="350"/>
			<point x="291" y="378" type="curve" smooth="yes"/>
			<point x="291" y="406"/>
			<point x="268" y="508"/>
			<point x="240" y="508" type="curve" smooth="yes"/>
			<point x="212" y="508"/>
			<point x="191" y="406"/>
			<point x="191" y="378" type="curve" smooth="yes"/>
			<point x="191" y="350"/>
			<point x="212" y="328"/>
		</contour>
		<contour>
			<point x="304" y="-82" type="curve"/>
			<point x="328" y="-102"/>
			<point x="362" y="-100"/>
			<point x="382" y="-76" type="curve"/>
			<point x="402" y="-52"/>
			<point x="398" y="-18"/>
			<point x="374" y="2" type="curve"/>
			<point x="351" y="22"/>
			<point x="260" y="66"/>
			<point x="240" y="43" type="curve"/>
			<point x="220" y="19"/>
			<point x="280" y="-62"/>
		</contour>
		<contour>
			<point x="246" y="-34" type="curve"/>
			<point x="270" y="-54"/>
			<point x="362" y="-100"/>
			<point x="382" y="-76" type="curve"/>
			<point x="402" y="-52"/>
			<point x="341" y="30"/>
			<point x="317" y="50" type="curve"/>
			<point x="293" y="70"/>
			<point x="260" y="66"/>
			<point x="240" y="43" type="curve"/>
			<point x="220" y="19"/>
			<point x="223" y="-14"/>
		</contour>
		<contour>
			<point x="419" y="-178" type="curve"/>
			<point x="443" y="-198"/>
			<point x="477" y="-196"/>
			<point x="497" y="-172" type="curve"/>
			<point x="517" y="-148"/>
			<point x="513" y="-114"/>
			<point x="489" y="-94" type="curve"/>
			<point x="466" y="-74"/>
			<point x="375" y="-30"/>
			<point x="355" y="-53" type="curve"/>
			<point x="335" y="-77"/>
			<point x="395" y="-158"/>
		</contour>
		<contour>
			<point x="361" y="-130" type="curve"/>
			<point x="385" y="-150"/>
			<point x="477" y="-196"/>
			<point x="497" y="-172" type="curve"/>
			<point x="517" y="-148"/>
			<point x="456" y="-66"/>
			<point x="432" y="-46" type="curve"/>
			<point x="408" y="-26"/>
			<point x="375" y="-30"/>
			<point x="355" y="-53" type="curve"/>
			<point x="335" y="-77"/>
			<point x="338" y="-110"/>
		</contour>
		<contour>
			<point x="304" y="598" type="curve"/>
			<point x="280" y="578"/>
			<point x="220" y="497"/>
			<point x="240" y="473" type="curve"/>
			<point x="260" y="450"/>
			<point x="351" y="494"/>
			<point x="374" y="514" type="curve"/>
			<point x="398" y="534"/>
			<point x="402" y="568"/>
			<point x="382" y="592" type="curve"/>
			<point x="362" y="616"/>
			<point x="328" y="618"/>
		</contour>
		<contour>
			<point x="246" y="550" type="curve"/>
			<point x="223" y="530"/>
			<point x="220" y="497"/>
			<point x="240" y="473" type="curve"/>
			<point x="260" y="450"/>
			<point x="293" y="446"/>
			<point x="317" y="466" type="curve"/>
			<point x="341" y="486"/>
			<point x="402" y="568"/>
			<point x="382" y="592" type="curve"/>
			<point x="362" y="616"/>
			<point x="270" y="570"/>
		</contour>
		<contour>
			<point x="419" y="694" type="curve"/>
			<point x="395" y="674"/>
			<point x="335" y="593"/>
			<point x="355" y="569" type="curve"/>
			<point x="375" y="546"/>
			<point x="466" y="590"/>
			<point x="489" y="610" type="curve"/>
			<point x="513" y="630"/>
			<point x="517" y="664"/>
			<point x="497" y="688" type="curve"/>
			<point x="477" y="712"/>
			<point x="443" y="714"/>
		</contour>
		<contour>
			<point x="361" y="646" type="curve"/>
			<point x="338" y="626"/>
			<point x="335" y="593"/>
			<point x="355" y="569" type="curve"/>
			<point x="375" y="546"/>
			<point x="408" y="542"/>
			<point x="432" y="562" type="curve"/>
			<point x="456" y="582"/>
			<point x="517" y="664"/>
			<point x="497" y="688" type="curve"/>
			<point x="477" y="712"/>
			<point x="385" y="666"/>
		</contour>
	</outline>
</glyph>
<glyph name="asterisk" format="2">
	<advance width="700"/>
	<unicode hex="002A"/>
	<outline>
		<contour>
			<point x="327" y="680" type="curve" smooth="yes"/>
			<point x="299" y="680"/>
			<point x="278" y="578"/>
			<point x="278" y="550" type="curve" smooth="yes"/>
			<point x="278" y="522"/>
			<point x="299" y="500"/>
			<point x="327" y="500" type="curve" smooth="yes"/>
			<point x="355" y="500"/>
			<point x="378" y="522"/>
			<point x="378" y="550" type="curve" smooth="yes"/>
			<point x="378" y="578"/>
			<point x="355" y="680"/>
		</contour>
		<contour>
			<point x="327" y="680" type="curve" smooth="yes"/>
			<point x="301" y="680"/>
			<point x="278" y="658"/>
			<point x="278" y="630" type="curve" smooth="yes"/>
			<point x="278" y="602"/>
			<point x="299" y="500"/>
			<point x="327" y="500" type="curve" smooth="yes"/>
			<point x="355" y="500"/>
			<point x="378" y="602"/>
			<point x="378" y="630" type="curve"/>
			<point x="378" y="658"/>
			<point x="355" y="680"/>
		</contour>
		<contour>
			<point x="327" y="479" type="curve" smooth="yes"/>
			<point x="299" y="479"/>
			<point x="278" y="377"/>
			<point x="278" y="349" type="curve" smooth="yes"/>
			<point x="278" y="321"/>
			<point x="299" y="299"/>
			<point x="327" y="299" type="curve" smooth="yes"/>
			<point x="355" y="299"/>
			<point x="378" y="321"/>
			<point x="378" y="346" type="curve" smooth="yes"/>
			<point x="378" y="377"/>
			<point x="355" y="479"/>
		</contour>
		<contour>
			<point x="327" y="479" type="curve" smooth="yes"/>
			<point x="301" y="479"/>
			<point x="278" y="457"/>
			<point x="278" y="429" type="curve" smooth="yes"/>
			<point x="278" y="401"/>
			<point x="299" y="299"/>
			<point x="327" y="299" type="curve" smooth="yes"/>
			<point x="355" y="299"/>
			<point x="378" y="401"/>
			<point x="378" y="429" type="curve" smooth="yes"/>
			<point x="378" y="457"/>
			<point x="355" y="479"/>
		</contour>
		<contour>
			<point x="163" y="584" type="curve" smooth="yes"/>
			<point x="149" y="560"/>
			<point x="226" y="490"/>
			<point x="251" y="476" type="curve" smooth="yes"/>
			<point x="275" y="462"/>
			<point x="304" y="470"/>
			<point x="318" y="494" type="curve" smooth="yes"/>
			<point x="332" y="518"/>
			<point x="325" y="549"/>
			<point x="301" y="563" type="curve" smooth="yes"/>
			<point x="276" y="577"/>
			<point x="177" y="608"/>
		</contour>
		<contour>
			<point x="163" y="584" type="curve" smooth="yes"/>
			<point x="150" y="561"/>
			<point x="157" y="530"/>
			<point x="181" y="516" type="curve" smooth="yes"/>
			<point x="206" y="502"/>
			<point x="304" y="470"/>
			<point x="318" y="494" type="curve" smooth="yes"/>
			<point x="332" y="518"/>
			<point x="256" y="589"/>
			<point x="231" y="603" type="curve" smooth="yes"/>
			<point x="207" y="617"/>
			<point x="177" y="608"/>
		</contour>
		<contour>
			<point x="337" y="483" type="curve" smooth="yes"/>
			<point x="323" y="459"/>
			<point x="400" y="390"/>
			<point x="425" y="376" type="curve" smooth="yes"/>
			<point x="449" y="362"/>
			<point x="478" y="369"/>
			<point x="492" y="393" type="curve" smooth="yes"/>
			<point x="506" y="418"/>
			<point x="499" y="449"/>
			<point x="477" y="461" type="curve" smooth="yes"/>
			<point x="450" y="477"/>
			<point x="351" y="508"/>
		</contour>
		<contour>
			<point x="337" y="483" type="curve" smooth="yes"/>
			<point x="324" y="461"/>
			<point x="331" y="430"/>
			<point x="355" y="416" type="curve" smooth="yes"/>
			<point x="380" y="402"/>
			<point x="478" y="369"/>
			<point x="492" y="393" type="curve" smooth="yes"/>
			<point x="506" y="418"/>
			<point x="430" y="489"/>
			<point x="405" y="503" type="curve" smooth="yes"/>
			<point x="381" y="517"/>
			<point x="351" y="508"/>
		</contour>
		<contour>
			<point x="163" y="394" type="curve" smooth="yes"/>
			<point x="177" y="370"/>
			<point x="276" y="401"/>
			<point x="301" y="416" type="curve" smooth="yes"/>
			<point x="325" y="430"/>
			<point x="333" y="459"/>
			<point x="319" y="483" type="curve" smooth="yes"/>
			<point x="305" y="507"/>
			<point x="275" y="517"/>
			<point x="251" y="503" type="curve" smooth="yes"/>
			<point x="226" y="488"/>
			<point x="150" y="418"/>
		</contour>
		<contour>
			<point x="163" y="394" type="curve" smooth="yes"/>
			<point x="177" y="371"/>
			<point x="207" y="362"/>
			<point x="231" y="375" type="curve" smooth="yes"/>
			<point x="256" y="390"/>
			<point x="333" y="459"/>
			<point x="319" y="483" type="curve" smooth="yes"/>
			<point x="305" y="507"/>
			<point x="206" y="477"/>
			<point x="181" y="462" type="curve" smooth="yes"/>
			<point x="157" y="448"/>
			<point x="150" y="418"/>
		</contour>
		<contour>
			<point x="338" y="494" type="curve" smooth="yes"/>
			<point x="352" y="470"/>
			<point x="450" y="502"/>
			<point x="475" y="517" type="curve" smooth="yes"/>
			<point x="499" y="530"/>
			<point x="507" y="559"/>
			<point x="493" y="583" type="curve" smooth="yes"/>
			<point x="479" y="608"/>
			<point x="448" y="617"/>
			<point x="427" y="604" type="curve" smooth="yes"/>
			<point x="400" y="589"/>
			<point x="323" y="519"/>
		</contour>
		<contour>
			<point x="338" y="494" type="curve" smooth="yes"/>
			<point x="350" y="472"/>
			<point x="381" y="462"/>
			<point x="405" y="476" type="curve" smooth="yes"/>
			<point x="430" y="491"/>
			<point x="507" y="559"/>
			<point x="493" y="583" type="curve" smooth="yes"/>
			<point x="479" y="608"/>
			<point x="379" y="578"/>
			<point x="355" y="563" type="curve" smooth="yes"/>
			<point x="330" y="549"/>
			<point x="323" y="519"/>
		</contour>
	</outline>
</glyph>
<glyph name="plus" format="2">
	<advance width="700"/>
	<unicode hex="002B"/>
	<outline>
		<contour>
			<point x="349" y="320" type="curve" smooth="yes"/>
			<point x="377" y="320"/>
			<point x="400" y="422"/>
			<point x="400" y="450" type="curve" smooth="yes"/>
			<point x="400" y="478"/>
			<point x="377" y="500"/>
			<point x="349" y="500" type="curve" smooth="yes"/>
			<point x="321" y="500"/>
			<point x="300" y="478"/>
			<point x="300" y="450" type="curve" smooth="yes"/>
			<point x="300" y="422"/>
			<point x="321" y="320"/>
		</contour>
		<contour>
			<point x="349" y="320" type="curve" smooth="yes"/>
			<point x="377" y="320"/>
			<point x="400" y="342"/>
			<point x="400" y="370" type="curve" smooth="yes"/>
			<point x="400" y="398"/>
			<point x="377" y="500"/>
			<point x="349" y="500" type="curve" smooth="yes"/>
			<point x="321" y="500"/>
			<point x="300" y="398"/>
			<point x="300" y="370" type="curve" smooth="yes"/>
			<point x="300" y="342"/>
			<point x="321" y="320"/>
		</contour>
		<contour>
			<point x="349" y="341" type="curve" smooth="yes"/>
			<point x="321" y="341"/>
			<point x="300" y="239"/>
			<point x="300" y="211" type="curve" smooth="yes"/>
			<point x="300" y="183"/>
			<point x="321" y="161"/>
			<point x="349" y="161" type="curve" smooth="yes"/>
			<point x="377" y="161"/>
			<point x="400" y="183"/>
			<point x="400" y="211" type="curve" smooth="yes"/>
			<point x="400" y="239"/>
			<point x="377" y="341"/>
		</contour>
		<contour>
			<point x="349" y="341" type="curve" smooth="yes"/>
			<point x="321" y="341"/>
			<point x="300" y="319"/>
			<point x="300" y="291" type="curve" smooth="yes"/>
			<point x="300" y="263"/>
			<point x="321" y="161"/>
			<point x="349" y="161" type="curve" smooth="yes"/>
			<point x="377" y="161"/>
			<point x="400" y="263"/>
			<point x="400" y="291" type="curve" smooth="yes"/>
			<point x="400" y="319"/>
			<point x="377" y="341"/>
		</contour>
		<contour>
			<point x="340" y="332" type="curve" smooth="yes"/>
			<point x="340" y="304"/>
			<point x="442" y="281"/>
			<point x="470" y="281" type="curve" smooth="yes"/>
			<point x="498" y="281"/>
			<point x="520" y="304"/>
			<point x="520" y="332" type="curve" smooth="yes"/>
			<point x="520" y="360"/>
			<point x="498" y="381"/>
			<point x="470" y="381" type="curve" smooth="yes"/>
			<point x="442" y="381"/>
			<point x="340" y="360"/>
		</contour>
		<contour>
			<point x="340" y="332" type="curve" smooth="yes"/>
			<point x="340" y="304"/>
			<point x="362" y="281"/>
			<point x="390" y="281" type="curve" smooth="yes"/>
			<point x="418" y="281"/>
			<point x="520" y="304"/>
			<point x="520" y="332" type="curve" smooth="yes"/>
			<point x="520" y="360"/>
			<point x="418" y="381"/>
			<point x="390" y="381" type="curve" smooth="yes"/>
			<point x="362" y="381"/>
			<point x="340" y="360"/>
		</contour>
		<contour>
			<point x="361" y="332" type="curve" smooth="yes"/>
			<point x="361" y="360"/>
			<point x="259" y="381"/>
			<point x="231" y="381" type="curve" smooth="yes"/>
			<point x="203" y="381"/>
			<point x="181" y="360"/>
			<point x="181" y="332" type="curve" smooth="yes"/>
			<point x="181" y="304"/>
			<point x="203" y="281"/>
			<point x="231" y="281" type="curve" smooth="yes"/>
			<point x="259" y="281"/>
			<point x="361" y="304"/>
		</contour>
		<contour>
			<point x="361" y="332" type="curve" smooth="yes"/>
			<point x="361" y="360"/>
			<point x="339" y="381"/>
			<point x="311" y="381" type="curve" smooth="yes"/>
			<point x="283" y="381"/>
			<point x="181" y="360"/>
			<point x="181" y="332" type="curve" smooth="yes"/>
			<point x="181" y="304"/>
			<point x="283" y="281"/>
			<point x="311" y="281" type="curve" smooth="yes"/>
			<point x="339" y="281"/>
			<point x="361" y="304"/>
		</contour>
	</outline>
</glyph>
<glyph name="comma" format="2">
	<advance width="700"/>
	<unicode hex="002C"/>
	<outline>
		<contour>
			<point x="252" y="-153" type="curve" smooth="yes"/>
			<point x="276" y="-167"/>
			<point x="309" y="-155"/>
			<point x="327" y="-125" type="curve" smooth="yes"/>
			<point x="344" y="-96"/>
			<point x="386" y="24"/>
			<point x="362" y="38" type="curve" smooth="yes"/>
			<point x="338" y="52"/>
			<point x="257" y="-46"/>
			<point x="240" y="-75" type="curve" smooth="yes"/>
			<point x="223" y="-105"/>
			<point x="229" y="-140"/>
		</contour>
		<contour>
			<point x="312" y="-49" type="curve" smooth="yes"/>
			<point x="336" y="-63"/>
			<point x="419" y="34"/>
			<point x="436" y="63" type="curve" smooth="yes"/>
			<point x="453" y="93"/>
			<point x="446" y="128"/>
			<point x="422" y="142" type="curve" smooth="yes"/>
			<point x="398" y="156"/>
			<point x="366" y="143"/>
			<point x="349" y="113" type="curve" smooth="yes"/>
			<point x="332" y="84"/>
			<point x="288" y="-35"/>
		</contour>
	</outline>
</glyph>
<glyph name="hyphen" format="2">
	<advance width="700"/>
	<unicode hex="002D"/>
	<outline>
		<contour>
			<point x="255" y="359" type="curve" smooth="yes"/>
			<point x="255" y="331"/>
			<point x="277" y="310"/>
			<point x="305" y="310" type="curve" smooth="yes"/>
			<point x="333" y="310"/>
			<point x="355" y="331"/>
			<point x="355" y="359" type="curve" smooth="yes"/>
			<point x="355" y="387"/>
			<point x="333" y="410"/>
			<point x="305" y="410" type="curve" smooth="yes"/>
			<point x="277" y="410"/>
			<point x="255" y="387"/>
		</contour>
		<contour>
			<point x="175" y="359" type="curve" smooth="yes"/>
			<point x="175" y="333"/>
			<point x="197" y="310"/>
			<point x="225" y="310" type="curve" smooth="yes"/>
			<point x="253" y="310"/>
			<point x="355" y="331"/>
			<point x="355" y="359" type="curve" smooth="yes"/>
			<point x="355" y="387"/>
			<point x="253" y="410"/>
			<point x="225" y="410" type="curve" smooth="yes"/>
			<point x="197" y="410"/>
			<point x="175" y="387"/>
		</contour>
		<contour>
			<point x="335" y="359" type="curve" smooth="yes"/>
			<point x="335" y="331"/>
			<point x="357" y="310"/>
			<point x="385" y="310" type="curve" smooth="yes"/>
			<point x="413" y="310"/>
			<point x="435" y="331"/>
			<point x="435" y="359" type="curve" smooth="yes"/>
			<point x="435" y="387"/>
			<point x="413" y="410"/>
			<point x="385" y="410" type="curve" smooth="yes"/>
			<point x="357" y="410"/>
			<point x="335" y="387"/>
		</contour>
		<contour>
			<point x="515" y="359" type="curve"/>
			<point x="515" y="387"/>
			<point x="493" y="410"/>
			<point x="465" y="410" type="curve"/>
			<point x="437" y="410"/>
			<point x="335" y="387"/>
			<point x="335" y="359" type="curve"/>
			<point x="335" y="331"/>
			<point x="437" y="310"/>
			<point x="465" y="310" type="curve" smooth="yes"/>
			<point x="493" y="310"/>
			<point x="515" y="333"/>
		</contour>
	</outline>
</glyph>
<glyph name="period" format="2">
	<advance width="700"/>
	<unicode hex="002E"/>
	<outline>
		<contour>
			<point x="350" y="0" type="curve" smooth="yes"/>
			<point x="387" y="0"/>
			<point x="415" y="28"/>
			<point x="415" y="65" type="curve" smooth="yes"/>
			<point x="415" y="102"/>
			<point x="387" y="130"/>
			<point x="350" y="130" type="curve" smooth="yes"/>
			<point x="313" y="130"/>
			<point x="285" y="102"/>
			<point x="285" y="65" type="curve" smooth="yes"/>
			<point x="285" y="28"/>
			<point x="313" y="0"/>
		</contour>
	</outline>
</glyph>
<glyph name="zero" format="2">
	<advance width="700"/>
	<unicode hex="0030"/>
	<guideline x="122" y="178" angle="0"/>
	<guideline x="120" y="457" angle="0"/>
	<guideline x="457" y="100" angle="0"/>
	<guideline x="608" y="287" angle="0"/>
	<outline>
		<contour>
			<point x="136" y="207" type="curve"/>
			<point x="164" y="207"/>
			<point x="186" y="229"/>
			<point x="186" y="257" type="curve"/>
			<point x="186" y="285"/>
			<point x="164" y="387"/>
			<point x="136" y="387" type="curve"/>
			<point x="108" y="387"/>
			<point x="86" y="285"/>
			<point x="86" y="257" type="curve"/>
			<point x="86" y="229"/>
			<point x="108" y="207"/>
		</contour>
		<contour>
			<point x="313" y="570" type="curve"/>
			<point x="343" y="570"/>
			<point x="443" y="595"/>
			<point x="443" y="625" type="curve"/>
			<point x="443" y="655"/>
			<point x="343" y="680"/>
			<point x="313" y="680" type="curve"/>
			<point x="283" y="680"/>
			<point x="258" y="655"/>
			<point x="258" y="625" type="curve"/>
			<point x="258" y="595"/>
			<point x="283" y="570"/>
		</contour>
		<contour>
			<point x="313" y="110" type="curve"/>
			<point x="283" y="110"/>
			<point x="258" y="85"/>
			<point x="258" y="55" type="curve"/>
			<point x="258" y="25"/>
			<point x="283" y="0"/>
			<point x="313" y="0" type="curve"/>
			<point x="343" y="0"/>
			<point x="443" y="25"/>
			<point x="443" y="55" type="curve"/>
			<point x="443" y="85"/>
			<point x="343" y="110"/>
		</contour>
		<contour>
			<point x="388" y="570" type="curve"/>
			<point x="418" y="570"/>
			<point x="443" y="595"/>
			<point x="443" y="625" type="curve"/>
			<point x="443" y="655"/>
			<point x="418" y="680"/>
			<point x="388" y="680" type="curve"/>
			<point x="358" y="680"/>
			<point x="258" y="655"/>
			<point x="258" y="625" type="curve"/>
			<point x="258" y="595"/>
			<point x="358" y="570"/>
		</contour>
		<contour>
			<point x="388" y="110" type="curve"/>
			<point x="358" y="110"/>
			<point x="258" y="85"/>
			<point x="258" y="55" type="curve"/>
			<point x="258" y="25"/>
			<point x="358" y="0"/>
			<point x="388" y="0" type="curve"/>
			<point x="418" y="0"/>
			<point x="443" y="25"/>
			<point x="443" y="55" type="curve"/>
			<point x="443" y="85"/>
			<point x="418" y="110"/>
		</contour>
		<contour>
			<point x="166" y="178" type="curve"/>
			<point x="180" y="178"/>
			<point x="191" y="189"/>
			<point x="191" y="203" type="curve"/>
			<point x="191" y="217"/>
			<point x="180" y="228"/>
			<point x="166" y="228" type="curve"/>
			<point x="152" y="228"/>
			<point x="141" y="217"/>
			<point x="141" y="203" type="curve"/>
			<point x="141" y="189"/>
			<point x="152" y="178"/>
		</contour>
		<contour>
			<point x="164" y="445" type="curve"/>
			<point x="178" y="445"/>
			<point x="189" y="456"/>
			<point x="189" y="470" type="curve"/>
			<point x="189" y="484"/>
			<point x="178" y="495"/>
			<point x="164" y="495" type="curve"/>
			<point x="150" y="495"/>
			<point x="139" y="484"/>
			<point x="139" y="470" type="curve"/>
			<point x="139" y="456"/>
			<point x="150" y="445"/>
		</contour>
		<contour>
			<point x="531" y="178" type="curve"/>
			<point x="545" y="178"/>
			<point x="556" y="189"/>
			<point x="556" y="203" type="curve"/>
			<point x="556" y="217"/>
			<point x="545" y="228"/>
			<point x="531" y="228" type="curve"/>
			<point x="517" y="228"/>
			<point x="506" y="217"/>
			<point x="506" y="203" type="curve"/>
			<point x="506" y="189"/>
			<point x="517" y="178"/>
		</contour>
		<contour>
			<point x="537" y="444" type="curve"/>
			<point x="551" y="444"/>
			<point x="562" y="455"/>
			<point x="562" y="469" type="curve"/>
			<point x="562" y="483"/>
			<point x="551" y="494"/>
			<point x="537" y="494" type="curve"/>
			<point x="523" y="494"/>
			<point x="512" y="483"/>
			<point x="512" y="469" type="curve"/>
			<point x="512" y="455"/>
			<point x="523" y="444"/>
		</contour>
		<contour>
			<point x="514" y="455" type="curve"/>
			<point x="535" y="473"/>
			<point x="487" y="565"/>
			<point x="469" y="587" type="curve"/>
			<point x="451" y="608"/>
			<point x="420" y="611"/>
			<point x="398" y="593" type="curve"/>
			<point x="377" y="575"/>
			<point x="374" y="544"/>
			<point x="392" y="523" type="curve"/>
			<point x="410" y="501"/>
			<point x="492" y="437"/>
		</contour>
		<contour>
			<point x="514" y="455" type="curve"/>
			<point x="535" y="473"/>
			<point x="538" y="504"/>
			<point x="520" y="525" type="curve"/>
			<point x="502" y="547"/>
			<point x="420" y="611"/>
			<point x="398" y="593" type="curve"/>
			<point x="377" y="575"/>
			<point x="425" y="483"/>
			<point x="443" y="461" type="curve"/>
			<point x="461" y="440"/>
			<point x="492" y="437"/>
		</contour>
		<contour>
			<point x="187" y="455" type="curve"/>
			<point x="209" y="437"/>
			<point x="291" y="501"/>
			<point x="309" y="523" type="curve"/>
			<point x="327" y="544"/>
			<point x="324" y="575"/>
			<point x="303" y="593" type="curve"/>
			<point x="281" y="611"/>
			<point x="250" y="608"/>
			<point x="232" y="587" type="curve"/>
			<point x="214" y="565"/>
			<point x="166" y="473"/>
		</contour>
		<contour>
			<point x="187" y="455" type="curve"/>
			<point x="209" y="437"/>
			<point x="240" y="440"/>
			<point x="258" y="461" type="curve"/>
			<point x="276" y="483"/>
			<point x="324" y="575"/>
			<point x="303" y="593" type="curve"/>
			<point x="281" y="611"/>
			<point x="199" y="547"/>
			<point x="181" y="525" type="curve"/>
			<point x="163" y="504"/>
			<point x="166" y="473"/>
		</contour>
		<contour>
			<point x="514" y="221" type="curve"/>
			<point x="492" y="239"/>
			<point x="410" y="175"/>
			<point x="392" y="153" type="curve"/>
			<point x="374" y="132"/>
			<point x="377" y="101"/>
			<point x="398" y="83" type="curve"/>
			<point x="420" y="65"/>
			<point x="451" y="68"/>
			<point x="469" y="89" type="curve"/>
			<point x="487" y="111"/>
			<point x="535" y="203"/>
		</contour>
		<contour>
			<point x="514" y="221" type="curve"/>
			<point x="492" y="239"/>
			<point x="461" y="236"/>
			<point x="443" y="215" type="curve"/>
			<point x="425" y="193"/>
			<point x="377" y="101"/>
			<point x="398" y="83" type="curve"/>
			<point x="420" y="65"/>
			<point x="502" y="129"/>
			<point x="520" y="151" type="curve"/>
			<point x="538" y="172"/>
			<point x="535" y="203"/>
		</contour>
		<contour>
			<point x="187" y="221" type="curve"/>
			<point x="166" y="203"/>
			<point x="214" y="111"/>
			<point x="232" y="89" type="curve"/>
			<point x="250" y="68"/>
			<point x="281" y="65"/>
			<point x="303" y="83" type="curve"/>
			<point x="324" y="101"/>
			<point x="327" y="132"/>
			<point x="309" y="153" type="curve"/>
			<point x="291" y="175"/>
			<point x="209" y="239"/>
		</contour>
		<contour>
			<point x="187" y="221" type="curve"/>
			<point x="166" y="203"/>
			<point x="163" y="172"/>
			<point x="181" y="151" type="curve"/>
			<point x="199" y="129"/>
			<point x="281" y="65"/>
			<point x="303" y="83" type="curve"/>
			<point x="324" y="101"/>
			<point x="276" y="193"/>
			<point x="258" y="215" type="curve"/>
			<point x="240" y="236"/>
			<point x="209" y="239"/>
		</contour>
		<contour>
			<point x="564" y="387" type="curve" smooth="yes"/>
			<point x="536" y="387"/>
			<point x="515" y="365"/>
			<point x="515" y="337" type="curve" smooth="yes"/>
			<point x="515" y="309"/>
			<point x="536" y="287"/>
			<point x="564" y="287" type="curve" smooth="yes"/>
			<point x="592" y="287"/>
			<point x="615" y="309"/>
			<point x="615" y="337" type="curve" smooth="yes"/>
			<point x="615" y="365"/>
			<point x="592" y="387"/>
		</contour>
		<contour>
			<point x="564" y="467" type="curve" smooth="yes"/>
			<point x="538" y="467"/>
			<point x="515" y="445"/>
			<point x="515" y="417" type="curve" smooth="yes"/>
			<point x="515" y="389"/>
			<point x="536" y="287"/>
			<point x="564" y="287" type="curve" smooth="yes"/>
			<point x="592" y="287"/>
			<point x="615" y="389"/>
			<point x="615" y="417" type="curve" smooth="yes"/>
			<point x="615" y="445"/>
			<point x="592" y="467"/>
		</contour>
		<contour>
			<point x="564" y="207" type="curve"/>
			<point x="592" y="207"/>
			<point x="615" y="229"/>
			<point x="615" y="257" type="curve"/>
			<point x="615" y="285"/>
			<point x="592" y="387"/>
			<point x="564" y="387" type="curve"/>
			<point x="536" y="387"/>
			<point x="515" y="285"/>
			<point x="515" y="257" type="curve" smooth="yes"/>
			<point x="515" y="229"/>
			<point x="538" y="207"/>
		</contour>
		<contour>
			<point x="135" y="387" type="curve" smooth="yes"/>
			<point x="107" y="387"/>
			<point x="86" y="365"/>
			<point x="86" y="337" type="curve" smooth="yes"/>
			<point x="86" y="309"/>
			<point x="107" y="287"/>
			<point x="135" y="287" type="curve" smooth="yes"/>
			<point x="163" y="287"/>
			<point x="186" y="309"/>
			<point x="186" y="337" type="curve" smooth="yes"/>
			<point x="186" y="365"/>
			<point x="163" y="387"/>
		</contour>
		<contour>
			<point x="135" y="467" type="curve" smooth="yes"/>
			<point x="109" y="467"/>
			<point x="86" y="445"/>
			<point x="86" y="417" type="curve" smooth="yes"/>
			<point x="86" y="389"/>
			<point x="107" y="287"/>
			<point x="135" y="287" type="curve" smooth="yes"/>
			<point x="163" y="287"/>
			<point x="186" y="389"/>
			<point x="186" y="417" type="curve" smooth="yes"/>
			<point x="186" y="445"/>
			<point x="163" y="467"/>
		</contour>
	</outline>
</glyph>
<glyph name="one" format="2">
	<advance width="700"/>
	<unicode hex="0031"/>
	<outline>
		<contour>
			<point x="330" y="570" type="curve" smooth="yes"/>
			<point x="361" y="570"/>
			<point x="384" y="594"/>
			<point x="384" y="625" type="curve" smooth="yes"/>
			<point x="384" y="656"/>
			<point x="361" y="680"/>
			<point x="330" y="680" type="curve" smooth="yes"/>
			<point x="299" y="680"/>
			<point x="199" y="656"/>
			<point x="199" y="625" type="curve" smooth="yes"/>
			<point x="199" y="594"/>
			<point x="299" y="570"/>
		</contour>
		<contour>
			<point x="405" y="490" type="curve" smooth="yes"/>
			<point x="436" y="490"/>
			<point x="459" y="594"/>
			<point x="459" y="625" type="curve" smooth="yes"/>
			<point x="459" y="656"/>
			<point x="436" y="680"/>
			<point x="405" y="680" type="curve" smooth="yes"/>
			<point x="374" y="680"/>
			<point x="349" y="656"/>
			<point x="349" y="625" type="curve" smooth="yes"/>
			<point x="349" y="594"/>
			<point x="374" y="490"/>
		</contour>
		<contour>
			<point x="255" y="0" type="curve" smooth="yes"/>
			<point x="286" y="0"/>
			<point x="384" y="24"/>
			<point x="384" y="55" type="curve" smooth="yes"/>
			<point x="384" y="86"/>
			<point x="286" y="110"/>
			<point x="255" y="110" type="curve" smooth="yes"/>
			<point x="224" y="110"/>
			<point x="199" y="86"/>
			<point x="199" y="55" type="curve" smooth="yes"/>
			<point x="199" y="24"/>
			<point x="224" y="0"/>
		</contour>
		<contour>
			<point x="330" y="0" type="curve" smooth="yes"/>
			<point x="361" y="0"/>
			<point x="384" y="24"/>
			<point x="384" y="55" type="curve" smooth="yes"/>
			<point x="384" y="86"/>
			<point x="361" y="110"/>
			<point x="330" y="110" type="curve" smooth="yes"/>
			<point x="299" y="110"/>
			<point x="199" y="86"/>
			<point x="199" y="55" type="curve" smooth="yes"/>
			<point x="199" y="24"/>
			<point x="299" y="0"/>
		</contour>
		<contour>
			<point x="405" y="0" type="curve" smooth="yes"/>
			<point x="436" y="0"/>
			<point x="459" y="24"/>
			<point x="459" y="55" type="curve" smooth="yes"/>
			<point x="459" y="86"/>
			<point x="436" y="190"/>
			<point x="405" y="190" type="curve" smooth="yes"/>
			<point x="374" y="190"/>
			<point x="349" y="86"/>
			<point x="349" y="55" type="curve" smooth="yes"/>
			<point x="349" y="24"/>
			<point x="374" y="0"/>
		</contour>
		<contour>
			<point x="480" y="0" type="curve" smooth="yes"/>
			<point x="511" y="0"/>
			<point x="609" y="24"/>
			<point x="609" y="55" type="curve" smooth="yes"/>
			<point x="609" y="86"/>
			<point x="511" y="110"/>
			<point x="480" y="110" type="curve" smooth="yes"/>
			<point x="449" y="110"/>
			<point x="424" y="86"/>
			<point x="424" y="55" type="curve"/>
			<point x="424" y="24"/>
			<point x="449" y="0"/>
		</contour>
		<contour>
			<point x="405" y="490" type="curve" smooth="yes"/>
			<point x="433" y="490"/>
			<point x="454" y="512"/>
			<point x="454" y="540" type="curve" smooth="yes"/>
			<point x="454" y="568"/>
			<point x="433" y="680"/>
			<point x="405" y="680" type="curve" smooth="yes"/>
			<point x="377" y="680"/>
			<point x="354" y="568"/>
			<point x="354" y="540" type="curve" smooth="yes"/>
			<point x="354" y="512"/>
			<point x="377" y="490"/>
		</contour>
		<contour>
			<point x="405" y="170" type="curve" smooth="yes"/>
			<point x="433" y="170"/>
			<point x="454" y="272"/>
			<point x="454" y="300" type="curve"/>
			<point x="454" y="328"/>
			<point x="433" y="350"/>
			<point x="405" y="350" type="curve" smooth="yes"/>
			<point x="377" y="350"/>
			<point x="354" y="328"/>
			<point x="354" y="300" type="curve" smooth="yes"/>
			<point x="354" y="272"/>
			<point x="377" y="170"/>
		</contour>
		<contour>
			<point x="405" y="170" type="curve" smooth="yes"/>
			<point x="433" y="170"/>
			<point x="454" y="192"/>
			<point x="454" y="220" type="curve" smooth="yes"/>
			<point x="454" y="248"/>
			<point x="433" y="350"/>
			<point x="405" y="350" type="curve" smooth="yes"/>
			<point x="377" y="350"/>
			<point x="354" y="248"/>
			<point x="354" y="220" type="curve" smooth="yes"/>
			<point x="354" y="192"/>
			<point x="377" y="170"/>
		</contour>
		<contour>
			<point x="405" y="0" type="curve" smooth="yes"/>
			<point x="431" y="0"/>
			<point x="454" y="112"/>
			<point x="454" y="140" type="curve" smooth="yes"/>
			<point x="454" y="168"/>
			<point x="433" y="190"/>
			<point x="405" y="190" type="curve" smooth="yes"/>
			<point x="377" y="190"/>
			<point x="354" y="168"/>
			<point x="354" y="140" type="curve" smooth="yes"/>
			<point x="354" y="112"/>
			<point x="377" y="0"/>
		</contour>
		<contour>
			<point x="405" y="330" type="curve" smooth="yes"/>
			<point x="433" y="330"/>
			<point x="454" y="352"/>
			<point x="454" y="380" type="curve" smooth="yes"/>
			<point x="454" y="408"/>
			<point x="433" y="510"/>
			<point x="405" y="510" type="curve" smooth="yes"/>
			<point x="377" y="510"/>
			<point x="354" y="408"/>
			<point x="354" y="380" type="curve" smooth="yes"/>
			<point x="354" y="352"/>
			<point x="377" y="330"/>
		</contour>
		<contour>
			<point x="405" y="330" type="curve" smooth="yes"/>
			<point x="433" y="330"/>
			<point x="454" y="432"/>
			<point x="454" y="460" type="curve" smooth="yes"/>
			<point x="454" y="488"/>
			<point x="433" y="510"/>
			<point x="405" y="510" type="curve" smooth="yes"/>
			<point x="377" y="510"/>
			<point x="354" y="488"/>
			<point x="354" y="460" type="curve"/>
			<point x="354" y="432"/>
			<point x="377" y="330"/>
		</contour>
		<contour>
			<point x="183" y="330" type="curve" smooth="yes"/>
			<point x="211" y="330"/>
			<point x="232" y="352"/>
			<point x="232" y="380" type="curve" smooth="yes"/>
			<point x="232" y="408"/>
			<point x="211" y="510"/>
			<point x="183" y="510" type="curve" smooth="yes"/>
			<point x="155" y="510"/>
			<point x="132" y="408"/>
			<point x="132" y="380" type="curve" smooth="yes"/>
			<point x="132" y="352"/>
			<point x="155" y="330"/>
		</contour>
		<contour>
			<point x="183" y="330" type="curve" smooth="yes"/>
			<point x="211" y="330"/>
			<point x="232" y="432"/>
			<point x="232" y="460" type="curve" smooth="yes"/>
			<point x="232" y="488"/>
			<point x="211" y="510"/>
			<point x="183" y="510" type="curve" smooth="yes"/>
			<point x="155" y="510"/>
			<point x="132" y="488"/>
			<point x="132" y="460" type="curve"/>
			<point x="132" y="432"/>
			<point x="155" y="330"/>
		</contour>
		<contour>
			<point x="255" y="570" type="curve" smooth="yes"/>
			<point x="286" y="570"/>
			<point x="384" y="594"/>
			<point x="384" y="625" type="curve" smooth="yes"/>
			<point x="384" y="656"/>
			<point x="286" y="680"/>
			<point x="255" y="680" type="curve" smooth="yes"/>
			<point x="224" y="680"/>
			<point x="199" y="656"/>
			<point x="199" y="625" type="curve" smooth="yes"/>
			<point x="199" y="594"/>
			<point x="224" y="570"/>
		</contour>
		<contour>
			<point x="555" y="0" type="curve" smooth="yes"/>
			<point x="586" y="0"/>
			<point x="609" y="24"/>
			<point x="609" y="55" type="curve" smooth="yes"/>
			<point x="609" y="86"/>
			<point x="586" y="110"/>
			<point x="555" y="110" type="curve" smooth="yes"/>
			<point x="524" y="110"/>
			<point x="424" y="86"/>
			<point x="424" y="55" type="curve"/>
			<point x="424" y="24"/>
			<point x="524" y="0"/>
		</contour>
		<contour>
			<point x="193" y="504" type="curve" smooth="yes"/>
			<point x="219" y="514"/>
			<point x="205" y="617"/>
			<point x="196" y="644" type="curve" smooth="yes"/>
			<point x="187" y="670"/>
			<point x="158" y="682"/>
			<point x="131" y="673" type="curve" smooth="yes"/>
			<point x="105" y="664"/>
			<point x="92" y="636"/>
			<point x="102" y="609" type="curve" smooth="yes"/>
			<point x="112" y="583"/>
			<point x="166" y="494"/>
		</contour>
		<contour>
			<point x="193" y="504" type="curve" smooth="yes"/>
			<point x="219" y="514"/>
			<point x="234" y="542"/>
			<point x="224" y="569" type="curve" smooth="yes"/>
			<point x="214" y="595"/>
			<point x="158" y="682"/>
			<point x="131" y="673" type="curve" smooth="yes"/>
			<point x="105" y="664"/>
			<point x="121" y="561"/>
			<point x="130" y="534" type="curve" smooth="yes"/>
			<point x="139" y="508"/>
			<point x="168" y="494"/>
		</contour>
	</outline>
</glyph>
<glyph name="two" format="2">
	<advance width="700"/>
	<unicode hex="0032"/>
	<guideline x="160" y="60" angle="0"/>
	<guideline x="569" y="238" angle="90"/>
	<guideline x="501" y="105" angle="90"/>
	<guideline x="160" y="110" angle="90"/>
	<outline>
		<contour>
			<point x="368" y="0" type="curve" smooth="yes"/>
			<point x="399" y="0"/>
			<point x="499" y="24"/>
			<point x="499" y="55" type="curve" smooth="yes"/>
			<point x="499" y="86"/>
			<point x="399" y="110"/>
			<point x="368" y="110" type="curve" smooth="yes"/>
			<point x="337" y="110"/>
			<point x="314" y="86"/>
			<point x="314" y="55" type="curve" smooth="yes"/>
			<point x="314" y="24"/>
			<point x="337" y="0"/>
		</contour>
		<contour>
			<point x="293" y="0" type="curve" smooth="yes"/>
			<point x="324" y="0"/>
			<point x="349" y="24"/>
			<point x="349" y="55" type="curve" smooth="yes"/>
			<point x="349" y="86"/>
			<point x="324" y="110"/>
			<point x="293" y="110" type="curve" smooth="yes"/>
			<point x="262" y="110"/>
			<point x="164" y="86"/>
			<point x="164" y="55" type="curve" smooth="yes"/>
			<point x="164" y="24"/>
			<point x="262" y="0"/>
		</contour>
		<contour>
			<point x="218" y="0" type="curve" smooth="yes"/>
			<point x="249" y="0"/>
			<point x="349" y="24"/>
			<point x="349" y="55" type="curve" smooth="yes"/>
			<point x="349" y="86"/>
			<point x="249" y="110"/>
			<point x="218" y="110" type="curve" smooth="yes"/>
			<point x="187" y="110"/>
			<point x="164" y="86"/>
			<point x="164" y="55" type="curve" smooth="yes"/>
			<point x="164" y="24"/>
			<point x="187" y="0"/>
		</contour>
		<contour>
			<point x="122" y="168" type="curve" smooth="yes"/>
			<point x="150" y="168"/>
			<point x="173" y="190"/>
			<point x="173" y="218" type="curve" smooth="yes"/>
			<point x="173" y="246"/>
			<point x="150" y="268"/>
			<point x="122" y="268" type="curve" smooth="yes"/>
			<point x="94" y="268"/>
			<point x="73" y="246"/>
			<point x="73" y="218" type="curve" smooth="yes"/>
			<point x="73" y="190"/>
			<point x="94" y="168"/>
		</contour>
		<contour>
			<point x="122" y="88" type="curve" smooth="yes"/>
			<point x="150" y="88"/>
			<point x="173" y="110"/>
			<point x="173" y="138" type="curve" smooth="yes"/>
			<point x="173" y="166"/>
			<point x="150" y="268"/>
			<point x="122" y="268" type="curve" smooth="yes"/>
			<point x="94" y="268"/>
			<point x="73" y="166"/>
			<point x="73" y="138" type="curve" smooth="yes"/>
			<point x="73" y="110"/>
			<point x="96" y="88"/>
		</contour>
		<contour>
			<point x="451" y="570" type="curve" smooth="yes"/>
			<point x="482" y="570"/>
			<point x="507" y="594"/>
			<point x="507" y="625" type="curve" smooth="yes"/>
			<point x="507" y="656"/>
			<point x="482" y="680"/>
			<point x="451" y="680" type="curve" smooth="yes"/>
			<point x="420" y="680"/>
			<point x="322" y="656"/>
			<point x="322" y="625" type="curve" smooth="yes"/>
			<point x="322" y="594"/>
			<point x="420" y="570"/>
		</contour>
		<contour>
			<point x="376" y="570" type="curve" smooth="yes"/>
			<point x="407" y="570"/>
			<point x="507" y="594"/>
			<point x="507" y="625" type="curve" smooth="yes"/>
			<point x="507" y="656"/>
			<point x="407" y="680"/>
			<point x="376" y="680" type="curve" smooth="yes"/>
			<point x="345" y="680"/>
			<point x="322" y="656"/>
			<point x="322" y="625" type="curve" smooth="yes"/>
			<point x="322" y="594"/>
			<point x="345" y="570"/>
		</contour>
		<contour>
			<point x="301" y="570" type="curve"/>
			<point x="332" y="570"/>
			<point x="357" y="594"/>
			<point x="357" y="625" type="curve" smooth="yes"/>
			<point x="357" y="656"/>
			<point x="332" y="680"/>
			<point x="301" y="680" type="curve" smooth="yes"/>
			<point x="270" y="680"/>
			<point x="172" y="656"/>
			<point x="172" y="625" type="curve" smooth="yes"/>
			<point x="172" y="594"/>
			<point x="270" y="570"/>
		</contour>
		<contour>
			<point x="160" y="60" type="curve"/>
			<point x="174" y="60"/>
			<point x="185" y="71"/>
			<point x="185" y="85" type="curve"/>
			<point x="185" y="99"/>
			<point x="174" y="110"/>
			<point x="160" y="110" type="curve"/>
			<point x="146" y="110"/>
			<point x="135" y="99"/>
			<point x="135" y="85" type="curve"/>
			<point x="135" y="71"/>
			<point x="146" y="60"/>
		</contour>
		<contour>
			<point x="443" y="0" type="curve" smooth="yes"/>
			<point x="474" y="0"/>
			<point x="499" y="24"/>
			<point x="499" y="55" type="curve" smooth="yes"/>
			<point x="499" y="86"/>
			<point x="474" y="110"/>
			<point x="443" y="110" type="curve" smooth="yes"/>
			<point x="412" y="110"/>
			<point x="314" y="86"/>
			<point x="314" y="55" type="curve" smooth="yes"/>
			<point x="314" y="24"/>
			<point x="412" y="0"/>
		</contour>
		<contour>
			<point x="569" y="539" type="curve" smooth="yes"/>
			<point x="541" y="539"/>
			<point x="518" y="517"/>
			<point x="518" y="489" type="curve" smooth="yes"/>
			<point x="518" y="461"/>
			<point x="541" y="439"/>
			<point x="569" y="439" type="curve" smooth="yes"/>
			<point x="597" y="439"/>
			<point x="618" y="461"/>
			<point x="618" y="489" type="curve" smooth="yes"/>
			<point x="618" y="517"/>
			<point x="597" y="539"/>
		</contour>
		<contour>
			<point x="569" y="619" type="curve" smooth="yes"/>
			<point x="541" y="619"/>
			<point x="518" y="597"/>
			<point x="518" y="569" type="curve" smooth="yes"/>
			<point x="518" y="541"/>
			<point x="541" y="439"/>
			<point x="569" y="439" type="curve" smooth="yes"/>
			<point x="597" y="439"/>
			<point x="618" y="541"/>
			<point x="618" y="569" type="curve" smooth="yes"/>
			<point x="618" y="597"/>
			<point x="595" y="619"/>
		</contour>
		<contour>
			<point x="524" y="639" type="curve"/>
			<point x="510" y="639"/>
			<point x="499" y="628"/>
			<point x="499" y="614" type="curve"/>
			<point x="499" y="600"/>
			<point x="510" y="589"/>
			<point x="524" y="589" type="curve"/>
			<point x="538" y="589"/>
			<point x="549" y="600"/>
			<point x="549" y="614" type="curve"/>
			<point x="549" y="628"/>
			<point x="538" y="639"/>
		</contour>
		<contour>
			<point x="451" y="408" type="curve"/>
			<point x="420" y="408"/>
			<point x="322" y="384"/>
			<point x="322" y="353" type="curve"/>
			<point x="322" y="322"/>
			<point x="420" y="298"/>
			<point x="451" y="298" type="curve"/>
			<point x="482" y="298"/>
			<point x="507" y="322"/>
			<point x="507" y="353" type="curve"/>
			<point x="507" y="384"/>
			<point x="482" y="408"/>
		</contour>
		<contour>
			<point x="376" y="408" type="curve"/>
			<point x="345" y="408"/>
			<point x="322" y="384"/>
			<point x="322" y="353" type="curve"/>
			<point x="322" y="322"/>
			<point x="345" y="298"/>
			<point x="376" y="298" type="curve"/>
			<point x="407" y="298"/>
			<point x="507" y="322"/>
			<point x="507" y="353" type="curve"/>
			<point x="507" y="384"/>
			<point x="407" y="408"/>
		</contour>
		<contour>
			<point x="301" y="408" type="curve"/>
			<point x="270" y="408"/>
			<point x="172" y="384"/>
			<point x="172" y="353" type="curve"/>
			<point x="172" y="322"/>
			<point x="270" y="298"/>
			<point x="301" y="298" type="curve"/>
			<point x="332" y="298"/>
			<point x="357" y="322"/>
			<point x="357" y="353" type="curve"/>
			<point x="357" y="384"/>
			<point x="332" y="408"/>
		</contour>
		<contour>
			<point x="226" y="408" type="curve"/>
			<point x="195" y="408"/>
			<point x="172" y="387"/>
			<point x="172" y="353" type="curve"/>
			<point x="172" y="322"/>
			<point x="195" y="298"/>
			<point x="226" y="298" type="curve"/>
			<point x="257" y="298"/>
			<point x="357" y="322"/>
			<point x="357" y="353" type="curve"/>
			<point x="357" y="384"/>
			<point x="257" y="408"/>
		</contour>
		<contour>
			<point x="569" y="359" type="curve"/>
			<point x="595" y="359"/>
			<point x="618" y="381"/>
			<point x="618" y="409" type="curve"/>
			<point x="618" y="437"/>
			<point x="597" y="539"/>
			<point x="569" y="539" type="curve"/>
			<point x="541" y="539"/>
			<point x="518" y="437"/>
			<point x="518" y="409" type="curve"/>
			<point x="518" y="381"/>
			<point x="541" y="359"/>
		</contour>
		<contour>
			<point x="524" y="332" type="curve" smooth="yes"/>
			<point x="538" y="332"/>
			<point x="549" y="343"/>
			<point x="549" y="357" type="curve" smooth="yes"/>
			<point x="549" y="371"/>
			<point x="538" y="382"/>
			<point x="524" y="382" type="curve" smooth="yes"/>
			<point x="510" y="382"/>
			<point x="499" y="371"/>
			<point x="499" y="357" type="curve" smooth="yes"/>
			<point x="499" y="343"/>
			<point x="510" y="332"/>
		</contour>
		<contour>
			<point x="122" y="168" type="curve" smooth="yes"/>
			<point x="150" y="168"/>
			<point x="173" y="270"/>
			<point x="173" y="298" type="curve" smooth="yes"/>
			<point x="173" y="326"/>
			<point x="150" y="348"/>
			<point x="122" y="348" type="curve" smooth="yes"/>
			<point x="94" y="348"/>
			<point x="73" y="326"/>
			<point x="73" y="298" type="curve" smooth="yes"/>
			<point x="73" y="270"/>
			<point x="94" y="168"/>
		</contour>
		<contour>
			<point x="160" y="332" type="curve"/>
			<point x="174" y="332"/>
			<point x="185" y="343"/>
			<point x="185" y="357" type="curve"/>
			<point x="185" y="371"/>
			<point x="174" y="382"/>
			<point x="160" y="382" type="curve"/>
			<point x="146" y="382"/>
			<point x="135" y="371"/>
			<point x="135" y="357" type="curve"/>
			<point x="135" y="343"/>
			<point x="146" y="332"/>
		</contour>
		<contour>
			<point x="226" y="570" type="curve"/>
			<point x="257" y="570"/>
			<point x="357" y="594"/>
			<point x="357" y="625" type="curve" smooth="yes"/>
			<point x="357" y="656"/>
			<point x="257" y="680"/>
			<point x="226" y="680" type="curve" smooth="yes"/>
			<point x="195" y="680"/>
			<point x="172" y="656"/>
			<point x="172" y="625" type="curve" smooth="yes"/>
			<point x="172" y="594"/>
			<point x="195" y="570"/>
		</contour>
		<contour>
			<point x="171" y="504" type="curve" smooth="yes"/>
			<point x="197" y="514"/>
			<point x="183" y="617"/>
			<point x="174" y="644" type="curve" smooth="yes"/>
			<point x="165" y="670"/>
			<point x="136" y="682"/>
			<point x="109" y="673" type="curve" smooth="yes"/>
			<point x="83" y="664"/>
			<point x="70" y="636"/>
			<point x="80" y="609" type="curve" smooth="yes"/>
			<point x="90" y="583"/>
			<point x="144" y="494"/>
		</contour>
		<contour>
			<point x="171" y="504" type="curve" smooth="yes"/>
			<point x="197" y="514"/>
			<point x="212" y="542"/>
			<point x="202" y="569" type="curve" smooth="yes"/>
			<point x="192" y="595"/>
			<point x="136" y="682"/>
			<point x="109" y="673" type="curve" smooth="yes"/>
			<point x="83" y="664"/>
			<point x="99" y="561"/>
			<point x="108" y="534" type="curve" smooth="yes"/>
			<point x="117" y="508"/>
			<point x="146" y="494"/>
		</contour>
		<contour>
			<point x="559" y="233" type="curve" smooth="yes"/>
			<point x="531" y="233"/>
			<point x="508" y="211"/>
			<point x="508" y="183" type="curve" smooth="yes"/>
			<point x="508" y="155"/>
			<point x="531" y="53"/>
			<point x="559" y="53" type="curve" smooth="yes"/>
			<point x="587" y="53"/>
			<point x="608" y="155"/>
			<point x="608" y="183" type="curve" smooth="yes"/>
			<point x="608" y="211"/>
			<point x="587" y="233"/>
		</contour>
		<contour>
			<point x="559" y="53" type="curve"/>
			<point x="585" y="53"/>
			<point x="608" y="75"/>
			<point x="608" y="103" type="curve"/>
			<point x="608" y="131"/>
			<point x="587" y="233"/>
			<point x="559" y="233" type="curve"/>
			<point x="531" y="233"/>
			<point x="508" y="131"/>
			<point x="508" y="103" type="curve"/>
			<point x="508" y="75"/>
			<point x="531" y="53"/>
		</contour>
		<contour>
			<point x="503" y="55" type="curve" smooth="yes"/>
			<point x="517" y="55"/>
			<point x="528" y="66"/>
			<point x="528" y="80" type="curve" smooth="yes"/>
			<point x="528" y="94"/>
			<point x="517" y="105"/>
			<point x="503" y="105" type="curve" smooth="yes"/>
			<point x="489" y="105"/>
			<point x="478" y="94"/>
			<point x="478" y="80" type="curve" smooth="yes"/>
			<point x="478" y="66"/>
			<point x="489" y="55"/>
		</contour>
	</outline>
</glyph>
<glyph name="three" format="2">
	<advance width="700"/>
	<unicode hex="0033"/>
	<guideline x="618" y="409" angle="90"/>
	<guideline x="451" y="298" angle="90"/>
	<guideline x="548" y="85" angle="90"/>
	<guideline x="529" y="368" angle="90"/>
	<guideline x="499" y="614" angle="90"/>
	<outline>
		<contour>
			<point x="368" y="0" type="curve" smooth="yes"/>
			<point x="399" y="0"/>
			<point x="499" y="24"/>
			<point x="499" y="55" type="curve" smooth="yes"/>
			<point x="499" y="86"/>
			<point x="399" y="110"/>
			<point x="368" y="110" type="curve" smooth="yes"/>
			<point x="337" y="110"/>
			<point x="314" y="86"/>
			<point x="314" y="55" type="curve" smooth="yes"/>
			<point x="314" y="24"/>
			<point x="337" y="0"/>
		</contour>
		<contour>
			<point x="293" y="0" type="curve" smooth="yes"/>
			<point x="324" y="0"/>
			<point x="349" y="24"/>
			<point x="349" y="55" type="curve" smooth="yes"/>
			<point x="349" y="86"/>
			<point x="324" y="110"/>
			<point x="293" y="110" type="curve" smooth="yes"/>
			<point x="262" y="110"/>
			<point x="164" y="86"/>
			<point x="164" y="55" type="curve" smooth="yes"/>
			<point x="164" y="24"/>
			<point x="262" y="0"/>
		</contour>
		<contour>
			<point x="218" y="0" type="curve" smooth="yes"/>
			<point x="249" y="0"/>
			<point x="349" y="24"/>
			<point x="349" y="55" type="curve" smooth="yes"/>
			<point x="349" y="86"/>
			<point x="249" y="110"/>
			<point x="218" y="110" type="curve" smooth="yes"/>
			<point x="187" y="110"/>
			<point x="164" y="86"/>
			<point x="164" y="55" type="curve" smooth="yes"/>
			<point x="164" y="24"/>
			<point x="187" y="0"/>
		</contour>
		<contour>
			<point x="451" y="570" type="curve" smooth="yes"/>
			<point x="482" y="570"/>
			<point x="507" y="594"/>
			<point x="507" y="625" type="curve" smooth="yes"/>
			<point x="507" y="656"/>
			<point x="482" y="680"/>
			<point x="451" y="680" type="curve" smooth="yes"/>
			<point x="420" y="680"/>
			<point x="322" y="656"/>
			<point x="322" y="625" type="curve" smooth="yes"/>
			<point x="322" y="594"/>
			<point x="420" y="570"/>
		</contour>
		<contour>
			<point x="376" y="570" type="curve" smooth="yes"/>
			<point x="407" y="570"/>
			<point x="507" y="594"/>
			<point x="507" y="625" type="curve" smooth="yes"/>
			<point x="507" y="656"/>
			<point x="407" y="680"/>
			<point x="376" y="680" type="curve" smooth="yes"/>
			<point x="345" y="680"/>
			<point x="322" y="656"/>
			<point x="322" y="625" type="curve" smooth="yes"/>
			<point x="322" y="594"/>
			<point x="345" y="570"/>
		</contour>
		<contour>
			<point x="301" y="570" type="curve"/>
			<point x="332" y="570"/>
			<point x="357" y="594"/>
			<point x="357" y="625" type="curve" smooth="yes"/>
			<point x="357" y="656"/>
			<point x="332" y="680"/>
			<point x="301" y="680" type="curve" smooth="yes"/>
			<point x="270" y="680"/>
			<point x="172" y="656"/>
			<point x="172" y="625" type="curve" smooth="yes"/>
			<point x="172" y="594"/>
			<point x="270" y="570"/>
		</contour>
		<contour>
			<point x="443" y="0" type="curve" smooth="yes"/>
			<point x="474" y="0"/>
			<point x="499" y="24"/>
			<point x="499" y="55" type="curve" smooth="yes"/>
			<point x="499" y="86"/>
			<point x="474" y="110"/>
			<point x="443" y="110" type="curve" smooth="yes"/>
			<point x="412" y="110"/>
			<point x="314" y="86"/>
			<point x="314" y="55" type="curve" smooth="yes"/>
			<point x="314" y="24"/>
			<point x="412" y="0"/>
		</contour>
		<contour>
			<point x="499" y="639" type="curve"/>
			<point x="485" y="639"/>
			<point x="474" y="628"/>
			<point x="474" y="614" type="curve"/>
			<point x="474" y="600"/>
			<point x="485" y="589"/>
			<point x="499" y="589" type="curve"/>
			<point x="513" y="589"/>
			<point x="524" y="600"/>
			<point x="524" y="614" type="curve"/>
			<point x="524" y="628"/>
			<point x="513" y="639"/>
		</contour>
		<contour>
			<point x="451" y="408" type="curve"/>
			<point x="420" y="408"/>
			<point x="322" y="384"/>
			<point x="322" y="353" type="curve"/>
			<point x="322" y="322"/>
			<point x="420" y="298"/>
			<point x="451" y="298" type="curve"/>
			<point x="482" y="298"/>
			<point x="507" y="322"/>
			<point x="507" y="353" type="curve"/>
			<point x="507" y="384"/>
			<point x="482" y="408"/>
		</contour>
		<contour>
			<point x="376" y="408" type="curve"/>
			<point x="345" y="408"/>
			<point x="322" y="384"/>
			<point x="322" y="353" type="curve"/>
			<point x="322" y="322"/>
			<point x="345" y="298"/>
			<point x="376" y="298" type="curve"/>
			<point x="407" y="298"/>
			<point x="507" y="322"/>
			<point x="507" y="353" type="curve"/>
			<point x="507" y="384"/>
			<point x="407" y="408"/>
		</contour>
		<contour>
			<point x="301" y="408" type="curve"/>
			<point x="270" y="408"/>
			<point x="172" y="384"/>
			<point x="172" y="353" type="curve"/>
			<point x="172" y="322"/>
			<point x="270" y="298"/>
			<point x="301" y="298" type="curve"/>
			<point x="332" y="298"/>
			<point x="357" y="322"/>
			<point x="357" y="353" type="curve"/>
			<point x="357" y="384"/>
			<point x="332" y="408"/>
		</contour>
		<contour>
			<point x="226" y="408" type="curve"/>
			<point x="195" y="408"/>
			<point x="172" y="387"/>
			<point x="172" y="353" type="curve"/>
			<point x="172" y="322"/>
			<point x="195" y="298"/>
			<point x="226" y="298" type="curve"/>
			<point x="257" y="298"/>
			<point x="357" y="322"/>
			<point x="357" y="353" type="curve"/>
			<point x="357" y="384"/>
			<point x="257" y="408"/>
		</contour>
		<contour>
			<point x="524" y="332" type="curve" smooth="yes"/>
			<point x="538" y="332"/>
			<point x="549" y="343"/>
			<point x="549" y="357" type="curve" smooth="yes"/>
			<point x="549" y="371"/>
			<point x="538" y="382"/>
			<point x="524" y="382" type="curve" smooth="yes"/>
			<point x="510" y="382"/>
			<point x="499" y="371"/>
			<point x="499" y="357" type="curve" smooth="yes"/>
			<point x="499" y="343"/>
			<point x="510" y="332"/>
		</contour>
		<contour>
			<point x="226" y="570" type="curve"/>
			<point x="257" y="570"/>
			<point x="357" y="594"/>
			<point x="357" y="625" type="curve" smooth="yes"/>
			<point x="357" y="656"/>
			<point x="257" y="680"/>
			<point x="226" y="680" type="curve" smooth="yes"/>
			<point x="195" y="680"/>
			<point x="172" y="656"/>
			<point x="172" y="625" type="curve" smooth="yes"/>
			<point x="172" y="594"/>
			<point x="195" y="570"/>
		</contour>
		<contour>
			<point x="171" y="504" type="curve" smooth="yes"/>
			<point x="197" y="514"/>
			<point x="183" y="617"/>
			<point x="174" y="644" type="curve" smooth="yes"/>
			<point x="165" y="670"/>
			<point x="136" y="682"/>
			<point x="109" y="673" type="curve" smooth="yes"/>
			<point x="83" y="664"/>
			<point x="70" y="636"/>
			<point x="80" y="609" type="curve" smooth="yes"/>
			<point x="90" y="583"/>
			<point x="144" y="494"/>
		</contour>
		<contour>
			<point x="171" y="504" type="curve" smooth="yes"/>
			<point x="197" y="514"/>
			<point x="212" y="542"/>
			<point x="202" y="569" type="curve" smooth="yes"/>
			<point x="192" y="595"/>
			<point x="136" y="682"/>
			<point x="109" y="673" type="curve" smooth="yes"/>
			<point x="83" y="664"/>
			<point x="99" y="561"/>
			<point x="108" y="534" type="curve" smooth="yes"/>
			<point x="117" y="508"/>
			<point x="146" y="494"/>
		</contour>
		<contour>
			<point x="499" y="55" type="curve" smooth="yes"/>
			<point x="513" y="55"/>
			<point x="524" y="66"/>
			<point x="524" y="80" type="curve" smooth="yes"/>
			<point x="524" y="94"/>
			<point x="513" y="105"/>
			<point x="499" y="105" type="curve" smooth="yes"/>
			<point x="485" y="105"/>
			<point x="474" y="94"/>
			<point x="474" y="80" type="curve" smooth="yes"/>
			<point x="474" y="66"/>
			<point x="485" y="55"/>
		</contour>
		<contour>
			<point x="584" y="254" type="curve" smooth="yes"/>
			<point x="556" y="254"/>
			<point x="533" y="232"/>
			<point x="533" y="204" type="curve" smooth="yes"/>
			<point x="533" y="176"/>
			<point x="556" y="154"/>
			<point x="584" y="154" type="curve" smooth="yes"/>
			<point x="612" y="154"/>
			<point x="633" y="176"/>
			<point x="633" y="204" type="curve" smooth="yes"/>
			<point x="633" y="232"/>
			<point x="612" y="254"/>
		</contour>
		<contour>
			<point x="529" y="341" type="curve" smooth="yes"/>
			<point x="505" y="327"/>
			<point x="496" y="297"/>
			<point x="510" y="273" type="curve" smooth="yes"/>
			<point x="524" y="248"/>
			<point x="595" y="172"/>
			<point x="619" y="186" type="curve" smooth="yes"/>
			<point x="643" y="200"/>
			<point x="610" y="298"/>
			<point x="596" y="323" type="curve" smooth="yes"/>
			<point x="582" y="347"/>
			<point x="551" y="354"/>
		</contour>
		<contour>
			<point x="523" y="64" type="curve" smooth="yes"/>
			<point x="546" y="51"/>
			<point x="576" y="59"/>
			<point x="590" y="83" type="curve" smooth="yes"/>
			<point x="604" y="107"/>
			<point x="637" y="206"/>
			<point x="613" y="220" type="curve"/>
			<point x="589" y="234"/>
			<point x="518" y="157"/>
			<point x="504" y="133" type="curve"/>
			<point x="490" y="109"/>
			<point x="499" y="78"/>
		</contour>
		<contour>
			<point x="171" y="215" type="curve" smooth="yes"/>
			<point x="144" y="225"/>
			<point x="90" y="136"/>
			<point x="80" y="110" type="curve" smooth="yes"/>
			<point x="70" y="83"/>
			<point x="83" y="55"/>
			<point x="109" y="46" type="curve" smooth="yes"/>
			<point x="136" y="37"/>
			<point x="165" y="49"/>
			<point x="174" y="75" type="curve" smooth="yes"/>
			<point x="183" y="102"/>
			<point x="197" y="205"/>
		</contour>
		<contour>
			<point x="171" y="215" type="curve" smooth="yes"/>
			<point x="146" y="225"/>
			<point x="117" y="211"/>
			<point x="108" y="185" type="curve" smooth="yes"/>
			<point x="99" y="158"/>
			<point x="83" y="55"/>
			<point x="109" y="46" type="curve" smooth="yes"/>
			<point x="136" y="37"/>
			<point x="192" y="124"/>
			<point x="202" y="150" type="curve" smooth="yes"/>
			<point x="212" y="177"/>
			<point x="197" y="205"/>
		</contour>
		<contour>
			<point x="590" y="555" type="curve" smooth="yes"/>
			<point x="562" y="555"/>
			<point x="539" y="533"/>
			<point x="539" y="505" type="curve" smooth="yes"/>
			<point x="539" y="477"/>
			<point x="562" y="455"/>
			<point x="590" y="455" type="curve" smooth="yes"/>
			<point x="618" y="455"/>
			<point x="639" y="477"/>
			<point x="639" y="505" type="curve" smooth="yes"/>
			<point x="639" y="533"/>
			<point x="618" y="555"/>
		</contour>
		<contour>
			<point x="534" y="645" type="curve" smooth="yes"/>
			<point x="510" y="631"/>
			<point x="501" y="601"/>
			<point x="515" y="577" type="curve" smooth="yes"/>
			<point x="529" y="552"/>
			<point x="600" y="476"/>
			<point x="624" y="490" type="curve" smooth="yes"/>
			<point x="648" y="504"/>
			<point x="615" y="602"/>
			<point x="601" y="627" type="curve" smooth="yes"/>
			<point x="587" y="651"/>
			<point x="556" y="658"/>
		</contour>
		<contour>
			<point x="528" y="368" type="curve"/>
			<point x="551" y="355"/>
			<point x="581" y="363"/>
			<point x="595" y="387" type="curve"/>
			<point x="609" y="411"/>
			<point x="642" y="510"/>
			<point x="618" y="524" type="curve"/>
			<point x="594" y="538"/>
			<point x="523" y="461"/>
			<point x="509" y="437" type="curve"/>
			<point x="495" y="413"/>
			<point x="504" y="382"/>
		</contour>
	</outline>
</glyph>
<glyph name="four" format="2">
	<advance width="700"/>
	<unicode hex="0034"/>
	<outline>
		<contour>
			<point x="508" y="570" type="curve" smooth="yes"/>
			<point x="539" y="570"/>
			<point x="562" y="594"/>
			<point x="562" y="625" type="curve" smooth="yes"/>
			<point x="562" y="656"/>
			<point x="539" y="680"/>
			<point x="508" y="680" type="curve" smooth="yes"/>
			<point x="477" y="680"/>
			<point x="377" y="656"/>
			<point x="377" y="625" type="curve"/>
			<point x="377" y="594"/>
			<point x="477" y="570"/>
		</contour>
		<contour>
			<point x="433" y="0" type="curve" smooth="yes"/>
			<point x="464" y="0"/>
			<point x="562" y="24"/>
			<point x="562" y="55" type="curve" smooth="yes"/>
			<point x="562" y="86"/>
			<point x="464" y="110"/>
			<point x="433" y="110" type="curve" smooth="yes"/>
			<point x="402" y="110"/>
			<point x="377" y="86"/>
			<point x="377" y="55" type="curve" smooth="yes"/>
			<point x="377" y="24"/>
			<point x="402" y="0"/>
		</contour>
		<contour>
			<point x="508" y="0" type="curve" smooth="yes"/>
			<point x="539" y="0"/>
			<point x="562" y="24"/>
			<point x="562" y="55" type="curve" smooth="yes"/>
			<point x="562" y="86"/>
			<point x="539" y="110"/>
			<point x="508" y="110" type="curve" smooth="yes"/>
			<point x="477" y="110"/>
			<point x="377" y="86"/>
			<point x="377" y="55" type="curve"/>
			<point x="377" y="24"/>
			<point x="477" y="0"/>
		</contour>
		<contour>
			<point x="184" y="332" type="curve" smooth="yes"/>
			<point x="198" y="332"/>
			<point x="209" y="343"/>
			<point x="209" y="357" type="curve" smooth="yes"/>
			<point x="209" y="371"/>
			<point x="198" y="382"/>
			<point x="184" y="382" type="curve" smooth="yes"/>
			<point x="170" y="382"/>
			<point x="159" y="371"/>
			<point x="159" y="357" type="curve" smooth="yes"/>
			<point x="159" y="343"/>
			<point x="170" y="332"/>
		</contour>
		<contour>
			<point x="138" y="359" type="curve"/>
			<point x="166" y="359"/>
			<point x="189" y="381"/>
			<point x="189" y="409" type="curve"/>
			<point x="189" y="437"/>
			<point x="166" y="539"/>
			<point x="138" y="539" type="curve"/>
			<point x="110" y="539"/>
			<point x="89" y="437"/>
			<point x="89" y="409" type="curve"/>
			<point x="89" y="381"/>
			<point x="112" y="359"/>
		</contour>
		<contour>
			<point x="406" y="95" type="curve" smooth="yes"/>
			<point x="431" y="85"/>
			<point x="460" y="99"/>
			<point x="469" y="125" type="curve" smooth="yes"/>
			<point x="478" y="152"/>
			<point x="494" y="255"/>
			<point x="468" y="264" type="curve" smooth="yes"/>
			<point x="441" y="273"/>
			<point x="385" y="186"/>
			<point x="375" y="159" type="curve" smooth="yes"/>
			<point x="365" y="133"/>
			<point x="380" y="105"/>
		</contour>
		<contour>
			<point x="406" y="95" type="curve" smooth="yes"/>
			<point x="433" y="85"/>
			<point x="487" y="174"/>
			<point x="497" y="200" type="curve" smooth="yes"/>
			<point x="507" y="227"/>
			<point x="494" y="255"/>
			<point x="468" y="264" type="curve" smooth="yes"/>
			<point x="441" y="273"/>
			<point x="412" y="261"/>
			<point x="403" y="235" type="curve" smooth="yes"/>
			<point x="394" y="208"/>
			<point x="380" y="105"/>
		</contour>
		<contour>
			<point x="138" y="539" type="curve" smooth="yes"/>
			<point x="110" y="539"/>
			<point x="89" y="517"/>
			<point x="89" y="489" type="curve" smooth="yes"/>
			<point x="89" y="461"/>
			<point x="110" y="439"/>
			<point x="138" y="439" type="curve" smooth="yes"/>
			<point x="166" y="439"/>
			<point x="189" y="461"/>
			<point x="189" y="489" type="curve" smooth="yes"/>
			<point x="189" y="517"/>
			<point x="166" y="539"/>
		</contour>
		<contour>
			<point x="256" y="408" type="curve"/>
			<point x="225" y="408"/>
			<point x="200" y="384"/>
			<point x="200" y="353" type="curve"/>
			<point x="200" y="322"/>
			<point x="225" y="298"/>
			<point x="256" y="298" type="curve"/>
			<point x="287" y="298"/>
			<point x="385" y="322"/>
			<point x="385" y="353" type="curve"/>
			<point x="385" y="384"/>
			<point x="287" y="408"/>
		</contour>
		<contour>
			<point x="331" y="408" type="curve"/>
			<point x="300" y="408"/>
			<point x="200" y="384"/>
			<point x="200" y="353" type="curve"/>
			<point x="200" y="322"/>
			<point x="300" y="298"/>
			<point x="331" y="298" type="curve"/>
			<point x="362" y="298"/>
			<point x="385" y="322"/>
			<point x="385" y="353" type="curve"/>
			<point x="385" y="384"/>
			<point x="362" y="408"/>
		</contour>
		<contour>
			<point x="138" y="619" type="curve" smooth="yes"/>
			<point x="112" y="619"/>
			<point x="89" y="597"/>
			<point x="89" y="569" type="curve" smooth="yes"/>
			<point x="89" y="541"/>
			<point x="110" y="439"/>
			<point x="138" y="439" type="curve" smooth="yes"/>
			<point x="166" y="439"/>
			<point x="189" y="541"/>
			<point x="189" y="569" type="curve" smooth="yes"/>
			<point x="189" y="597"/>
			<point x="166" y="619"/>
		</contour>
		<contour>
			<point x="401" y="303" type="curve" smooth="yes"/>
			<point x="429" y="303"/>
			<point x="450" y="325"/>
			<point x="450" y="353" type="curve" smooth="yes"/>
			<point x="450" y="381"/>
			<point x="429" y="403"/>
			<point x="401" y="403" type="curve" smooth="yes"/>
			<point x="373" y="403"/>
			<point x="350" y="381"/>
			<point x="350" y="353" type="curve" smooth="yes"/>
			<point x="350" y="325"/>
			<point x="373" y="303"/>
		</contour>
		<contour>
			<point x="479" y="232" type="curve" smooth="yes"/>
			<point x="507" y="232"/>
			<point x="528" y="254"/>
			<point x="528" y="282" type="curve" smooth="yes"/>
			<point x="528" y="310"/>
			<point x="507" y="332"/>
			<point x="479" y="332" type="curve" smooth="yes"/>
			<point x="451" y="332"/>
			<point x="428" y="310"/>
			<point x="428" y="282" type="curve" smooth="yes"/>
			<point x="428" y="254"/>
			<point x="451" y="232"/>
		</contour>
		<contour>
			<point x="150" y="570" type="curve" smooth="yes"/>
			<point x="181" y="570"/>
			<point x="279" y="594"/>
			<point x="279" y="625" type="curve" smooth="yes"/>
			<point x="279" y="656"/>
			<point x="181" y="680"/>
			<point x="150" y="680" type="curve" smooth="yes"/>
			<point x="119" y="680"/>
			<point x="94" y="656"/>
			<point x="94" y="625" type="curve" smooth="yes"/>
			<point x="94" y="594"/>
			<point x="119" y="570"/>
		</contour>
		<contour>
			<point x="225" y="570" type="curve" smooth="yes"/>
			<point x="256" y="570"/>
			<point x="279" y="594"/>
			<point x="279" y="625" type="curve" smooth="yes"/>
			<point x="279" y="656"/>
			<point x="256" y="680"/>
			<point x="225" y="680" type="curve" smooth="yes"/>
			<point x="194" y="680"/>
			<point x="94" y="656"/>
			<point x="94" y="625" type="curve"/>
			<point x="94" y="594"/>
			<point x="194" y="570"/>
		</contour>
		<contour>
			<point x="423" y="340" type="curve" smooth="yes"/>
			<point x="448" y="330"/>
			<point x="477" y="344"/>
			<point x="486" y="370" type="curve" smooth="yes"/>
			<point x="495" y="397"/>
			<point x="511" y="500"/>
			<point x="485" y="509" type="curve" smooth="yes"/>
			<point x="458" y="518"/>
			<point x="402" y="431"/>
			<point x="392" y="404" type="curve" smooth="yes"/>
			<point x="382" y="378"/>
			<point x="397" y="350"/>
		</contour>
		<contour>
			<point x="482" y="408" type="curve"/>
			<point x="451" y="408"/>
			<point x="426" y="384"/>
			<point x="426" y="353" type="curve"/>
			<point x="426" y="322"/>
			<point x="451" y="298"/>
			<point x="482" y="298" type="curve"/>
			<point x="513" y="298"/>
			<point x="611" y="322"/>
			<point x="611" y="353" type="curve"/>
			<point x="611" y="384"/>
			<point x="513" y="408"/>
		</contour>
		<contour>
			<point x="557" y="408" type="curve"/>
			<point x="526" y="408"/>
			<point x="426" y="384"/>
			<point x="426" y="353" type="curve"/>
			<point x="426" y="322"/>
			<point x="526" y="298"/>
			<point x="557" y="298" type="curve"/>
			<point x="588" y="298"/>
			<point x="611" y="322"/>
			<point x="611" y="353" type="curve"/>
			<point x="611" y="387"/>
			<point x="588" y="408"/>
		</contour>
		<contour>
			<point x="423" y="340" type="curve" smooth="yes"/>
			<point x="450" y="330"/>
			<point x="504" y="419"/>
			<point x="514" y="445" type="curve" smooth="yes"/>
			<point x="524" y="472"/>
			<point x="511" y="500"/>
			<point x="485" y="509" type="curve" smooth="yes"/>
			<point x="458" y="518"/>
			<point x="429" y="506"/>
			<point x="420" y="480" type="curve" smooth="yes"/>
			<point x="411" y="453"/>
			<point x="397" y="350"/>
		</contour>
		<contour>
			<point x="433" y="490" type="curve" smooth="yes"/>
			<point x="461" y="490"/>
			<point x="482" y="512"/>
			<point x="482" y="540" type="curve" smooth="yes"/>
			<point x="482" y="568"/>
			<point x="461" y="590"/>
			<point x="433" y="590" type="curve" smooth="yes"/>
			<point x="405" y="590"/>
			<point x="382" y="568"/>
			<point x="382" y="540" type="curve" smooth="yes"/>
			<point x="382" y="512"/>
			<point x="405" y="490"/>
		</contour>
		<contour>
			<point x="433" y="570" type="curve" smooth="yes"/>
			<point x="464" y="570"/>
			<point x="562" y="594"/>
			<point x="562" y="625" type="curve" smooth="yes"/>
			<point x="562" y="656"/>
			<point x="464" y="680"/>
			<point x="433" y="680" type="curve" smooth="yes"/>
			<point x="402" y="680"/>
			<point x="377" y="656"/>
			<point x="377" y="625" type="curve" smooth="yes"/>
			<point x="377" y="594"/>
			<point x="402" y="570"/>
		</contour>
	</outline>
</glyph>
<glyph name="five" format="2">
	<advance width="700"/>
	<unicode hex="0035"/>
	<guideline x="147" y="357" angle="0"/>
	<outline>
		<contour>
			<point x="325" y="0" type="curve" smooth="yes"/>
			<point x="356" y="0"/>
			<point x="379" y="24"/>
			<point x="379" y="55" type="curve" smooth="yes"/>
			<point x="379" y="86"/>
			<point x="356" y="110"/>
			<point x="325" y="110" type="curve" smooth="yes"/>
			<point x="294" y="110"/>
			<point x="194" y="86"/>
			<point x="194" y="55" type="curve" smooth="yes"/>
			<point x="194" y="24"/>
			<point x="294" y="0"/>
		</contour>
		<contour>
			<point x="400" y="0" type="curve" smooth="yes"/>
			<point x="431" y="0"/>
			<point x="529" y="24"/>
			<point x="529" y="55" type="curve" smooth="yes"/>
			<point x="529" y="86"/>
			<point x="431" y="110"/>
			<point x="400" y="110" type="curve" smooth="yes"/>
			<point x="369" y="110"/>
			<point x="344" y="86"/>
			<point x="344" y="55" type="curve" smooth="yes"/>
			<point x="344" y="24"/>
			<point x="369" y="0"/>
		</contour>
		<contour>
			<point x="475" y="0" type="curve" smooth="yes"/>
			<point x="506" y="0"/>
			<point x="529" y="24"/>
			<point x="529" y="55" type="curve" smooth="yes"/>
			<point x="529" y="86"/>
			<point x="506" y="110"/>
			<point x="475" y="110" type="curve" smooth="yes"/>
			<point x="444" y="110"/>
			<point x="344" y="86"/>
			<point x="344" y="55" type="curve" smooth="yes"/>
			<point x="344" y="24"/>
			<point x="444" y="0"/>
		</contour>
		<contour>
			<point x="242" y="570" type="curve" smooth="yes"/>
			<point x="273" y="570"/>
			<point x="371" y="594"/>
			<point x="371" y="625" type="curve" smooth="yes"/>
			<point x="371" y="656"/>
			<point x="273" y="680"/>
			<point x="242" y="680" type="curve" smooth="yes"/>
			<point x="211" y="680"/>
			<point x="186" y="656"/>
			<point x="186" y="625" type="curve" smooth="yes"/>
			<point x="186" y="594"/>
			<point x="211" y="570"/>
		</contour>
		<contour>
			<point x="317" y="570" type="curve" smooth="yes"/>
			<point x="348" y="570"/>
			<point x="371" y="594"/>
			<point x="371" y="625" type="curve" smooth="yes"/>
			<point x="371" y="656"/>
			<point x="348" y="680"/>
			<point x="317" y="680" type="curve" smooth="yes"/>
			<point x="286" y="680"/>
			<point x="186" y="656"/>
			<point x="186" y="625" type="curve" smooth="yes"/>
			<point x="186" y="594"/>
			<point x="286" y="570"/>
		</contour>
		<contour>
			<point x="392" y="570" type="curve"/>
			<point x="423" y="570"/>
			<point x="521" y="594"/>
			<point x="521" y="625" type="curve" smooth="yes"/>
			<point x="521" y="656"/>
			<point x="423" y="680"/>
			<point x="392" y="680" type="curve" smooth="yes"/>
			<point x="361" y="680"/>
			<point x="336" y="656"/>
			<point x="336" y="625" type="curve" smooth="yes"/>
			<point x="336" y="594"/>
			<point x="361" y="570"/>
		</contour>
		<contour>
			<point x="250" y="0" type="curve" smooth="yes"/>
			<point x="281" y="0"/>
			<point x="379" y="24"/>
			<point x="379" y="55" type="curve" smooth="yes"/>
			<point x="379" y="86"/>
			<point x="281" y="110"/>
			<point x="250" y="110" type="curve" smooth="yes"/>
			<point x="219" y="110"/>
			<point x="194" y="86"/>
			<point x="194" y="55" type="curve" smooth="yes"/>
			<point x="194" y="24"/>
			<point x="219" y="0"/>
		</contour>
		<contour>
			<point x="194" y="639" type="curve"/>
			<point x="180" y="639"/>
			<point x="169" y="628"/>
			<point x="169" y="614" type="curve"/>
			<point x="169" y="600"/>
			<point x="180" y="589"/>
			<point x="194" y="589" type="curve"/>
			<point x="208" y="589"/>
			<point x="219" y="600"/>
			<point x="219" y="614" type="curve"/>
			<point x="219" y="628"/>
			<point x="208" y="639"/>
		</contour>
		<contour>
			<point x="242" y="408" type="curve"/>
			<point x="211" y="408"/>
			<point x="186" y="384"/>
			<point x="186" y="353" type="curve"/>
			<point x="186" y="322"/>
			<point x="211" y="298"/>
			<point x="242" y="298" type="curve"/>
			<point x="273" y="298"/>
			<point x="371" y="322"/>
			<point x="371" y="353" type="curve"/>
			<point x="371" y="384"/>
			<point x="273" y="408"/>
		</contour>
		<contour>
			<point x="317" y="408" type="curve"/>
			<point x="286" y="408"/>
			<point x="186" y="384"/>
			<point x="186" y="353" type="curve"/>
			<point x="186" y="322"/>
			<point x="286" y="298"/>
			<point x="317" y="298" type="curve"/>
			<point x="348" y="298"/>
			<point x="371" y="322"/>
			<point x="371" y="353" type="curve"/>
			<point x="371" y="384"/>
			<point x="348" y="408"/>
		</contour>
		<contour>
			<point x="392" y="408" type="curve"/>
			<point x="361" y="408"/>
			<point x="336" y="384"/>
			<point x="336" y="353" type="curve"/>
			<point x="336" y="322"/>
			<point x="361" y="298"/>
			<point x="392" y="298" type="curve"/>
			<point x="423" y="298"/>
			<point x="521" y="322"/>
			<point x="521" y="353" type="curve"/>
			<point x="521" y="384"/>
			<point x="423" y="408"/>
		</contour>
		<contour>
			<point x="467" y="408" type="curve"/>
			<point x="436" y="408"/>
			<point x="336" y="384"/>
			<point x="336" y="353" type="curve"/>
			<point x="336" y="322"/>
			<point x="436" y="298"/>
			<point x="467" y="298" type="curve"/>
			<point x="498" y="298"/>
			<point x="521" y="322"/>
			<point x="521" y="353" type="curve"/>
			<point x="521" y="387"/>
			<point x="498" y="408"/>
		</contour>
		<contour>
			<point x="169" y="332" type="curve" smooth="yes"/>
			<point x="183" y="332"/>
			<point x="194" y="343"/>
			<point x="194" y="357" type="curve" smooth="yes"/>
			<point x="194" y="371"/>
			<point x="183" y="382"/>
			<point x="169" y="382" type="curve" smooth="yes"/>
			<point x="155" y="382"/>
			<point x="144" y="371"/>
			<point x="144" y="357" type="curve" smooth="yes"/>
			<point x="144" y="343"/>
			<point x="155" y="332"/>
		</contour>
		<contour>
			<point x="467" y="570" type="curve"/>
			<point x="498" y="570"/>
			<point x="521" y="594"/>
			<point x="521" y="625" type="curve" smooth="yes"/>
			<point x="521" y="656"/>
			<point x="498" y="680"/>
			<point x="467" y="680" type="curve" smooth="yes"/>
			<point x="436" y="680"/>
			<point x="336" y="656"/>
			<point x="336" y="625" type="curve" smooth="yes"/>
			<point x="336" y="594"/>
			<point x="436" y="570"/>
		</contour>
		<contour>
			<point x="522" y="504" type="curve" smooth="yes"/>
			<point x="549" y="494"/>
			<point x="603" y="583"/>
			<point x="613" y="609" type="curve" smooth="yes"/>
			<point x="623" y="636"/>
			<point x="610" y="664"/>
			<point x="584" y="673" type="curve" smooth="yes"/>
			<point x="557" y="682"/>
			<point x="528" y="670"/>
			<point x="519" y="644" type="curve" smooth="yes"/>
			<point x="510" y="617"/>
			<point x="496" y="514"/>
		</contour>
		<contour>
			<point x="522" y="504" type="curve" smooth="yes"/>
			<point x="547" y="494"/>
			<point x="576" y="508"/>
			<point x="585" y="534" type="curve" smooth="yes"/>
			<point x="594" y="561"/>
			<point x="610" y="664"/>
			<point x="584" y="673" type="curve" smooth="yes"/>
			<point x="557" y="682"/>
			<point x="501" y="595"/>
			<point x="491" y="569" type="curve" smooth="yes"/>
			<point x="481" y="542"/>
			<point x="496" y="514"/>
		</contour>
		<contour>
			<point x="194" y="55" type="curve" smooth="yes"/>
			<point x="208" y="55"/>
			<point x="219" y="66"/>
			<point x="219" y="80" type="curve" smooth="yes"/>
			<point x="219" y="94"/>
			<point x="207" y="105"/>
			<point x="194" y="105" type="curve" smooth="yes"/>
			<point x="180" y="105"/>
			<point x="169" y="94"/>
			<point x="169" y="80" type="curve" smooth="yes"/>
			<point x="169" y="66"/>
			<point x="180" y="55"/>
		</contour>
		<contour>
			<point x="117" y="249" type="curve" smooth="yes"/>
			<point x="91" y="239"/>
			<point x="105" y="136"/>
			<point x="114" y="109" type="curve" smooth="yes"/>
			<point x="123" y="83"/>
			<point x="152" y="71"/>
			<point x="179" y="80" type="curve" smooth="yes"/>
			<point x="205" y="89"/>
			<point x="218" y="117"/>
			<point x="208" y="144" type="curve" smooth="yes"/>
			<point x="198" y="170"/>
			<point x="144" y="259"/>
		</contour>
		<contour>
			<point x="117" y="249" type="curve" smooth="yes"/>
			<point x="91" y="239"/>
			<point x="76" y="211"/>
			<point x="86" y="184" type="curve" smooth="yes"/>
			<point x="96" y="158"/>
			<point x="152" y="71"/>
			<point x="179" y="80" type="curve" smooth="yes"/>
			<point x="205" y="89"/>
			<point x="189" y="192"/>
			<point x="180" y="219" type="curve" smooth="yes"/>
			<point x="171" y="245"/>
			<point x="142" y="259"/>
		</contour>
		<contour>
			<point x="103" y="555" type="curve" smooth="yes"/>
			<point x="75" y="555"/>
			<point x="54" y="533"/>
			<point x="54" y="505" type="curve" smooth="yes"/>
			<point x="54" y="477"/>
			<point x="75" y="455"/>
			<point x="103" y="455" type="curve" smooth="yes"/>
			<point x="131" y="455"/>
			<point x="154" y="477"/>
			<point x="154" y="505" type="curve" smooth="yes"/>
			<point x="154" y="533"/>
			<point x="131" y="555"/>
		</contour>
		<contour>
			<point x="159" y="645" type="curve" smooth="yes"/>
			<point x="137" y="658"/>
			<point x="106" y="651"/>
			<point x="92" y="627" type="curve" smooth="yes"/>
			<point x="78" y="602"/>
			<point x="45" y="504"/>
			<point x="69" y="490" type="curve" smooth="yes"/>
			<point x="93" y="476"/>
			<point x="164" y="552"/>
			<point x="178" y="577" type="curve" smooth="yes"/>
			<point x="192" y="601"/>
			<point x="183" y="631"/>
		</contour>
		<contour>
			<point x="165" y="368" type="curve"/>
			<point x="189" y="382"/>
			<point x="198" y="413"/>
			<point x="184" y="437" type="curve"/>
			<point x="170" y="461"/>
			<point x="99" y="538"/>
			<point x="75" y="524" type="curve"/>
			<point x="51" y="510"/>
			<point x="84" y="411"/>
			<point x="98" y="387" type="curve"/>
			<point x="112" y="363"/>
			<point x="142" y="355"/>
		</contour>
		<contour>
			<point x="537" y="332" type="curve" smooth="yes"/>
			<point x="551" y="332"/>
			<point x="562" y="343"/>
			<point x="562" y="357" type="curve" smooth="yes"/>
			<point x="562" y="371"/>
			<point x="551" y="382"/>
			<point x="537" y="382" type="curve" smooth="yes"/>
			<point x="523" y="382"/>
			<point x="512" y="371"/>
			<point x="512" y="357" type="curve" smooth="yes"/>
			<point x="512" y="343"/>
			<point x="523" y="332"/>
		</contour>
		<contour>
			<point x="512" y="55" type="curve" smooth="yes"/>
			<point x="526" y="55"/>
			<point x="537" y="66"/>
			<point x="537" y="80" type="curve" smooth="yes"/>
			<point x="537" y="94"/>
			<point x="526" y="105"/>
			<point x="512" y="105" type="curve" smooth="yes"/>
			<point x="499" y="105"/>
			<point x="487" y="94"/>
			<point x="487" y="80" type="curve" smooth="yes"/>
			<point x="487" y="66"/>
			<point x="498" y="55"/>
		</contour>
		<contour>
			<point x="597" y="254" type="curve" smooth="yes"/>
			<point x="569" y="254"/>
			<point x="546" y="232"/>
			<point x="546" y="204" type="curve" smooth="yes"/>
			<point x="546" y="176"/>
			<point x="569" y="154"/>
			<point x="597" y="154" type="curve" smooth="yes"/>
			<point x="625" y="154"/>
			<point x="646" y="176"/>
			<point x="646" y="204" type="curve" smooth="yes"/>
			<point x="646" y="232"/>
			<point x="625" y="254"/>
		</contour>
		<contour>
			<point x="542" y="341" type="curve" smooth="yes"/>
			<point x="518" y="327"/>
			<point x="509" y="297"/>
			<point x="523" y="273" type="curve" smooth="yes"/>
			<point x="537" y="248"/>
			<point x="608" y="172"/>
			<point x="632" y="186" type="curve" smooth="yes"/>
			<point x="656" y="200"/>
			<point x="623" y="298"/>
			<point x="609" y="323" type="curve" smooth="yes"/>
			<point x="595" y="347"/>
			<point x="564" y="354"/>
		</contour>
		<contour>
			<point x="536" y="64" type="curve" smooth="yes"/>
			<point x="559" y="51"/>
			<point x="589" y="59"/>
			<point x="603" y="83" type="curve" smooth="yes"/>
			<point x="617" y="107"/>
			<point x="650" y="206"/>
			<point x="626" y="220" type="curve"/>
			<point x="602" y="234"/>
			<point x="531" y="157"/>
			<point x="517" y="133" type="curve"/>
			<point x="503" y="109"/>
			<point x="512" y="78"/>
		</contour>
	</outline>
</glyph>
<glyph name="six" format="2">
	<advance width="700"/>
	<unicode hex="0036"/>
	<guideline x="164" y="55" angle="90"/>
	<guideline x="314" y="55" angle="90"/>
	<guideline x="130" y="357" angle="90"/>
	<outline>
		<contour>
			<point x="392" y="0" type="curve" smooth="yes"/>
			<point x="423" y="0"/>
			<point x="523" y="24"/>
			<point x="523" y="55" type="curve" smooth="yes"/>
			<point x="523" y="86"/>
			<point x="423" y="110"/>
			<point x="392" y="110" type="curve" smooth="yes"/>
			<point x="361" y="110"/>
			<point x="338" y="86"/>
			<point x="338" y="55" type="curve" smooth="yes"/>
			<point x="338" y="24"/>
			<point x="361" y="0"/>
		</contour>
		<contour>
			<point x="317" y="0" type="curve" smooth="yes"/>
			<point x="348" y="0"/>
			<point x="373" y="24"/>
			<point x="373" y="55" type="curve" smooth="yes"/>
			<point x="373" y="86"/>
			<point x="348" y="110"/>
			<point x="317" y="110" type="curve" smooth="yes"/>
			<point x="286" y="110"/>
			<point x="188" y="86"/>
			<point x="188" y="55" type="curve" smooth="yes"/>
			<point x="188" y="24"/>
			<point x="286" y="0"/>
		</contour>
		<contour>
			<point x="242" y="0" type="curve" smooth="yes"/>
			<point x="273" y="0"/>
			<point x="373" y="24"/>
			<point x="373" y="55" type="curve" smooth="yes"/>
			<point x="373" y="86"/>
			<point x="273" y="110"/>
			<point x="242" y="110" type="curve" smooth="yes"/>
			<point x="211" y="110"/>
			<point x="188" y="86"/>
			<point x="188" y="55" type="curve" smooth="yes"/>
			<point x="188" y="24"/>
			<point x="211" y="0"/>
		</contour>
		<contour>
			<point x="146" y="170" type="curve" smooth="yes"/>
			<point x="174" y="170"/>
			<point x="197" y="192"/>
			<point x="197" y="220" type="curve" smooth="yes"/>
			<point x="197" y="248"/>
			<point x="174" y="270"/>
			<point x="146" y="270" type="curve" smooth="yes"/>
			<point x="118" y="270"/>
			<point x="97" y="248"/>
			<point x="97" y="220" type="curve" smooth="yes"/>
			<point x="97" y="192"/>
			<point x="118" y="170"/>
		</contour>
		<contour>
			<point x="146" y="90" type="curve" smooth="yes"/>
			<point x="174" y="90"/>
			<point x="197" y="112"/>
			<point x="197" y="140" type="curve" smooth="yes"/>
			<point x="197" y="168"/>
			<point x="174" y="270"/>
			<point x="146" y="270" type="curve" smooth="yes"/>
			<point x="118" y="270"/>
			<point x="97" y="168"/>
			<point x="97" y="140" type="curve" smooth="yes"/>
			<point x="97" y="112"/>
			<point x="120" y="90"/>
		</contour>
		<contour>
			<point x="184" y="60" type="curve"/>
			<point x="198" y="60"/>
			<point x="209" y="71"/>
			<point x="209" y="85" type="curve"/>
			<point x="209" y="99"/>
			<point x="198" y="110"/>
			<point x="184" y="110" type="curve"/>
			<point x="170" y="110"/>
			<point x="159" y="99"/>
			<point x="159" y="85" type="curve"/>
			<point x="159" y="71"/>
			<point x="170" y="60"/>
		</contour>
		<contour>
			<point x="467" y="0" type="curve" smooth="yes"/>
			<point x="498" y="0"/>
			<point x="523" y="24"/>
			<point x="523" y="55" type="curve" smooth="yes"/>
			<point x="523" y="86"/>
			<point x="498" y="110"/>
			<point x="467" y="110" type="curve" smooth="yes"/>
			<point x="436" y="110"/>
			<point x="338" y="86"/>
			<point x="338" y="55" type="curve" smooth="yes"/>
			<point x="338" y="24"/>
			<point x="436" y="0"/>
		</contour>
		<contour>
			<point x="467" y="408" type="curve"/>
			<point x="436" y="408"/>
			<point x="338" y="384"/>
			<point x="338" y="353" type="curve"/>
			<point x="338" y="322"/>
			<point x="436" y="298"/>
			<point x="467" y="298" type="curve"/>
			<point x="498" y="298"/>
			<point x="523" y="322"/>
			<point x="523" y="353" type="curve"/>
			<point x="523" y="384"/>
			<point x="498" y="408"/>
		</contour>
		<contour>
			<point x="392" y="408" type="curve"/>
			<point x="361" y="408"/>
			<point x="338" y="384"/>
			<point x="338" y="353" type="curve"/>
			<point x="338" y="322"/>
			<point x="361" y="298"/>
			<point x="392" y="298" type="curve"/>
			<point x="423" y="298"/>
			<point x="523" y="322"/>
			<point x="523" y="353" type="curve"/>
			<point x="523" y="384"/>
			<point x="423" y="408"/>
		</contour>
		<contour>
			<point x="317" y="408" type="curve"/>
			<point x="286" y="408"/>
			<point x="188" y="384"/>
			<point x="188" y="353" type="curve"/>
			<point x="188" y="322"/>
			<point x="286" y="298"/>
			<point x="317" y="298" type="curve"/>
			<point x="348" y="298"/>
			<point x="373" y="322"/>
			<point x="373" y="353" type="curve"/>
			<point x="373" y="384"/>
			<point x="348" y="408"/>
		</contour>
		<contour>
			<point x="242" y="408" type="curve"/>
			<point x="168" y="408"/>
			<point x="172" y="298"/>
			<point x="242" y="298" type="curve" smooth="yes"/>
			<point x="273" y="298"/>
			<point x="373" y="322"/>
			<point x="373" y="353" type="curve"/>
			<point x="373" y="384"/>
			<point x="273" y="408"/>
		</contour>
		<contour>
			<point x="146" y="170" type="curve" smooth="yes"/>
			<point x="174" y="170"/>
			<point x="197" y="272"/>
			<point x="197" y="300" type="curve" smooth="yes"/>
			<point x="197" y="328"/>
			<point x="174" y="350"/>
			<point x="146" y="350" type="curve" smooth="yes"/>
			<point x="118" y="350"/>
			<point x="97" y="328"/>
			<point x="97" y="300" type="curve" smooth="yes"/>
			<point x="97" y="272"/>
			<point x="118" y="170"/>
		</contour>
		<contour>
			<point x="179" y="332" type="curve"/>
			<point x="193" y="332"/>
			<point x="204" y="343"/>
			<point x="204" y="357" type="curve"/>
			<point x="204" y="371"/>
			<point x="193" y="382"/>
			<point x="179" y="382" type="curve"/>
			<point x="165" y="382"/>
			<point x="154" y="371"/>
			<point x="154" y="357" type="curve"/>
			<point x="154" y="343"/>
			<point x="165" y="332"/>
		</contour>
		<contour>
			<point x="566" y="170" type="curve" smooth="yes"/>
			<point x="594" y="170"/>
			<point x="615" y="192"/>
			<point x="615" y="220" type="curve" smooth="yes"/>
			<point x="615" y="248"/>
			<point x="594" y="270"/>
			<point x="566" y="270" type="curve" smooth="yes"/>
			<point x="538" y="270"/>
			<point x="515" y="248"/>
			<point x="515" y="220" type="curve" smooth="yes"/>
			<point x="515" y="192"/>
			<point x="538" y="170"/>
		</contour>
		<contour>
			<point x="566" y="90" type="curve" smooth="yes"/>
			<point x="592" y="90"/>
			<point x="615" y="112"/>
			<point x="615" y="140" type="curve" smooth="yes"/>
			<point x="615" y="168"/>
			<point x="594" y="270"/>
			<point x="566" y="270" type="curve" smooth="yes"/>
			<point x="538" y="270"/>
			<point x="515" y="168"/>
			<point x="515" y="140" type="curve" smooth="yes"/>
			<point x="515" y="112"/>
			<point x="538" y="90"/>
		</contour>
		<contour>
			<point x="528" y="60" type="curve"/>
			<point x="542" y="60"/>
			<point x="553" y="71"/>
			<point x="553" y="85" type="curve"/>
			<point x="553" y="99"/>
			<point x="542" y="110"/>
			<point x="528" y="110" type="curve"/>
			<point x="514" y="110"/>
			<point x="503" y="99"/>
			<point x="503" y="85" type="curve"/>
			<point x="503" y="71"/>
			<point x="514" y="60"/>
		</contour>
		<contour>
			<point x="566" y="170" type="curve" smooth="yes"/>
			<point x="594" y="170"/>
			<point x="615" y="272"/>
			<point x="615" y="300" type="curve" smooth="yes"/>
			<point x="615" y="328"/>
			<point x="594" y="350"/>
			<point x="566" y="350" type="curve" smooth="yes"/>
			<point x="538" y="350"/>
			<point x="515" y="328"/>
			<point x="515" y="300" type="curve" smooth="yes"/>
			<point x="515" y="272"/>
			<point x="538" y="170"/>
		</contour>
		<contour>
			<point x="533" y="332" type="curve"/>
			<point x="547" y="332"/>
			<point x="558" y="343"/>
			<point x="558" y="357" type="curve"/>
			<point x="558" y="371"/>
			<point x="547" y="382"/>
			<point x="533" y="382" type="curve"/>
			<point x="519" y="382"/>
			<point x="508" y="371"/>
			<point x="508" y="357" type="curve"/>
			<point x="508" y="343"/>
			<point x="519" y="332"/>
		</contour>
		<contour>
			<point x="219" y="525" type="curve"/>
			<point x="246" y="541"/>
			<point x="319" y="611"/>
			<point x="303" y="638" type="curve" smooth="yes"/>
			<point x="287" y="664"/>
			<point x="190" y="636"/>
			<point x="164" y="621" type="curve" smooth="yes"/>
			<point x="137" y="606"/>
			<point x="127" y="572"/>
			<point x="142" y="545" type="curve" smooth="yes"/>
			<point x="157" y="519"/>
			<point x="192" y="511"/>
		</contour>
		<contour>
			<point x="283" y="563" type="curve" smooth="yes"/>
			<point x="310" y="579"/>
			<point x="319" y="611"/>
			<point x="303" y="638" type="curve" smooth="yes"/>
			<point x="287" y="664"/>
			<point x="256" y="674"/>
			<point x="229" y="658" type="curve" smooth="yes"/>
			<point x="202" y="642"/>
			<point x="127" y="572"/>
			<point x="142" y="545" type="curve" smooth="yes"/>
			<point x="157" y="519"/>
			<point x="257" y="547"/>
		</contour>
		<contour>
			<point x="133" y="539" type="curve" smooth="yes"/>
			<point x="105" y="539"/>
			<point x="84" y="517"/>
			<point x="84" y="489" type="curve" smooth="yes"/>
			<point x="84" y="461"/>
			<point x="105" y="439"/>
			<point x="133" y="439" type="curve" smooth="yes"/>
			<point x="161" y="439"/>
			<point x="184" y="461"/>
			<point x="184" y="489" type="curve" smooth="yes"/>
			<point x="184" y="517"/>
			<point x="161" y="539"/>
		</contour>
		<contour>
			<point x="133" y="359" type="curve"/>
			<point x="161" y="359"/>
			<point x="184" y="381"/>
			<point x="184" y="409" type="curve"/>
			<point x="184" y="437"/>
			<point x="161" y="539"/>
			<point x="133" y="539" type="curve"/>
			<point x="105" y="539"/>
			<point x="84" y="437"/>
			<point x="84" y="409" type="curve" smooth="yes"/>
			<point x="84" y="381"/>
			<point x="107" y="359"/>
		</contour>
		<contour>
			<point x="293" y="696" type="curve" smooth="yes"/>
			<point x="266" y="680"/>
			<point x="256" y="647"/>
			<point x="272" y="620" type="curve" smooth="yes"/>
			<point x="288" y="593"/>
			<point x="321" y="585"/>
			<point x="348" y="600" type="curve" smooth="yes"/>
			<point x="375" y="615"/>
			<point x="447" y="686"/>
			<point x="432" y="712" type="curve" smooth="yes"/>
			<point x="416" y="739"/>
			<point x="319" y="711"/>
		</contour>
		<contour>
			<point x="358" y="733" type="curve" smooth="yes"/>
			<point x="332" y="717"/>
			<point x="256" y="647"/>
			<point x="272" y="620" type="curve" smooth="yes"/>
			<point x="288" y="593"/>
			<point x="386" y="622"/>
			<point x="413" y="638" type="curve" smooth="yes"/>
			<point x="439" y="653"/>
			<point x="447" y="686"/>
			<point x="432" y="712" type="curve" smooth="yes"/>
			<point x="416" y="739"/>
			<point x="384" y="749"/>
		</contour>
		<contour>
			<point x="534" y="557" type="curve" smooth="yes"/>
			<point x="559" y="571"/>
			<point x="568" y="602"/>
			<point x="554" y="626" type="curve" smooth="yes"/>
			<point x="540" y="650"/>
			<point x="469" y="727"/>
			<point x="444" y="713" type="curve" smooth="yes"/>
			<point x="420" y="699"/>
			<point x="453" y="600"/>
			<point x="467" y="576" type="curve" smooth="yes"/>
			<point x="481" y="552"/>
			<point x="510" y="543"/>
		</contour>
		<contour>
			<point x="444" y="713" type="curve"/>
			<point x="422" y="700"/>
			<point x="413" y="670"/>
			<point x="427" y="645" type="curve"/>
			<point x="441" y="621"/>
			<point x="510" y="543"/>
			<point x="534" y="557" type="curve"/>
			<point x="559" y="571"/>
			<point x="528" y="671"/>
			<point x="514" y="695" type="curve" smooth="yes"/>
			<point x="500" y="720"/>
			<point x="469" y="727"/>
		</contour>
	</outline>
</glyph>
<glyph name="seven" format="2">
	<advance width="700"/>
	<unicode hex="0037"/>
	<outline>
		<contour>
			<point x="252" y="570" type="curve"/>
			<point x="283" y="570"/>
			<point x="381" y="594"/>
			<point x="381" y="625" type="curve" smooth="yes"/>
			<point x="381" y="656"/>
			<point x="283" y="680"/>
			<point x="252" y="680" type="curve" smooth="yes"/>
			<point x="221" y="680"/>
			<point x="196" y="656"/>
			<point x="196" y="625" type="curve" smooth="yes"/>
			<point x="196" y="594"/>
			<point x="221" y="570"/>
		</contour>
		<contour>
			<point x="327" y="570" type="curve"/>
			<point x="358" y="570"/>
			<point x="381" y="594"/>
			<point x="381" y="625" type="curve" smooth="yes"/>
			<point x="381" y="656"/>
			<point x="358" y="680"/>
			<point x="327" y="680" type="curve" smooth="yes"/>
			<point x="296" y="680"/>
			<point x="196" y="656"/>
			<point x="196" y="625" type="curve" smooth="yes"/>
			<point x="196" y="594"/>
			<point x="296" y="570"/>
		</contour>
		<contour>
			<point x="477" y="570" type="curve"/>
			<point x="508" y="570"/>
			<point x="606" y="594"/>
			<point x="606" y="625" type="curve" smooth="yes"/>
			<point x="606" y="656"/>
			<point x="508" y="680"/>
			<point x="477" y="680" type="curve" smooth="yes"/>
			<point x="446" y="680"/>
			<point x="421" y="656"/>
			<point x="421" y="625" type="curve" smooth="yes"/>
			<point x="421" y="594"/>
			<point x="446" y="570"/>
		</contour>
		<contour>
			<point x="143" y="539" type="curve" smooth="yes"/>
			<point x="115" y="539"/>
			<point x="94" y="517"/>
			<point x="94" y="489" type="curve" smooth="yes"/>
			<point x="94" y="461"/>
			<point x="115" y="439"/>
			<point x="143" y="439" type="curve" smooth="yes"/>
			<point x="171" y="439"/>
			<point x="194" y="461"/>
			<point x="194" y="489" type="curve" smooth="yes"/>
			<point x="194" y="517"/>
			<point x="171" y="539"/>
		</contour>
		<contour>
			<point x="143" y="619" type="curve" smooth="yes"/>
			<point x="117" y="619"/>
			<point x="94" y="597"/>
			<point x="94" y="569" type="curve" smooth="yes"/>
			<point x="94" y="541"/>
			<point x="115" y="439"/>
			<point x="143" y="439" type="curve" smooth="yes"/>
			<point x="171" y="439"/>
			<point x="194" y="541"/>
			<point x="194" y="569" type="curve" smooth="yes"/>
			<point x="194" y="597"/>
			<point x="171" y="619"/>
		</contour>
		<contour>
			<point x="179" y="639" type="curve"/>
			<point x="165" y="639"/>
			<point x="154" y="628"/>
			<point x="154" y="614" type="curve"/>
			<point x="154" y="600"/>
			<point x="165" y="589"/>
			<point x="179" y="589" type="curve"/>
			<point x="193" y="589"/>
			<point x="204" y="600"/>
			<point x="204" y="614" type="curve"/>
			<point x="204" y="628"/>
			<point x="193" y="639"/>
		</contour>
		<contour>
			<point x="143" y="359" type="curve"/>
			<point x="171" y="359"/>
			<point x="194" y="381"/>
			<point x="194" y="409" type="curve"/>
			<point x="194" y="437"/>
			<point x="171" y="539"/>
			<point x="143" y="539" type="curve"/>
			<point x="115" y="539"/>
			<point x="94" y="437"/>
			<point x="94" y="409" type="curve" smooth="yes"/>
			<point x="94" y="381"/>
			<point x="117" y="359"/>
		</contour>
		<contour>
			<point x="552" y="570" type="curve"/>
			<point x="583" y="570"/>
			<point x="606" y="594"/>
			<point x="606" y="625" type="curve" smooth="yes"/>
			<point x="606" y="656"/>
			<point x="583" y="680"/>
			<point x="552" y="680" type="curve" smooth="yes"/>
			<point x="521" y="680"/>
			<point x="421" y="656"/>
			<point x="421" y="625" type="curve" smooth="yes"/>
			<point x="421" y="594"/>
			<point x="521" y="570"/>
		</contour>
		<contour>
			<point x="550" y="510" type="curve" smooth="yes"/>
			<point x="524" y="510"/>
			<point x="501" y="408"/>
			<point x="501" y="380" type="curve" smooth="yes"/>
			<point x="501" y="352"/>
			<point x="522" y="330"/>
			<point x="550" y="330" type="curve" smooth="yes"/>
			<point x="578" y="330"/>
			<point x="601" y="352"/>
			<point x="601" y="380" type="curve" smooth="yes"/>
			<point x="601" y="408"/>
			<point x="578" y="510"/>
		</contour>
		<contour>
			<point x="550" y="510" type="curve" smooth="yes"/>
			<point x="524" y="510"/>
			<point x="501" y="488"/>
			<point x="501" y="460" type="curve" smooth="yes"/>
			<point x="501" y="432"/>
			<point x="522" y="410"/>
			<point x="550" y="410" type="curve" smooth="yes"/>
			<point x="578" y="410"/>
			<point x="601" y="432"/>
			<point x="601" y="460" type="curve" smooth="yes"/>
			<point x="601" y="488"/>
			<point x="578" y="510"/>
		</contour>
		<contour>
			<point x="550" y="590" type="curve" smooth="yes"/>
			<point x="524" y="590"/>
			<point x="501" y="568"/>
			<point x="501" y="540" type="curve" smooth="yes"/>
			<point x="501" y="512"/>
			<point x="522" y="410"/>
			<point x="550" y="410" type="curve" smooth="yes"/>
			<point x="578" y="410"/>
			<point x="601" y="512"/>
			<point x="601" y="540" type="curve" smooth="yes"/>
			<point x="601" y="568"/>
			<point x="578" y="590"/>
		</contour>
		<contour>
			<point x="400" y="680" type="curve" smooth="yes"/>
			<point x="369" y="680"/>
			<point x="346" y="656"/>
			<point x="346" y="625" type="curve" smooth="yes"/>
			<point x="346" y="594"/>
			<point x="369" y="570"/>
			<point x="400" y="570" type="curve" smooth="yes"/>
			<point x="431" y="570"/>
			<point x="456" y="594"/>
			<point x="456" y="625" type="curve" smooth="yes"/>
			<point x="456" y="656"/>
			<point x="431" y="680"/>
		</contour>
		<contour>
			<point x="467" y="255" type="curve" smooth="yes"/>
			<point x="439" y="255"/>
			<point x="418" y="233"/>
			<point x="418" y="205" type="curve" smooth="yes"/>
			<point x="418" y="177"/>
			<point x="439" y="155"/>
			<point x="467" y="155" type="curve" smooth="yes"/>
			<point x="495" y="155"/>
			<point x="518" y="177"/>
			<point x="518" y="205" type="curve" smooth="yes"/>
			<point x="518" y="233"/>
			<point x="495" y="255"/>
		</contour>
		<contour>
			<point x="476" y="323" type="curve"/>
			<point x="462" y="297"/>
			<point x="433" y="198"/>
			<point x="459" y="183" type="curve"/>
			<point x="485" y="169"/>
			<point x="557" y="242"/>
			<point x="572" y="268" type="curve"/>
			<point x="587" y="294"/>
			<point x="578" y="329"/>
			<point x="552" y="344" type="curve"/>
			<point x="526" y="359"/>
			<point x="492" y="350"/>
		</contour>
		<contour>
			<point x="368" y="148" type="curve"/>
			<point x="353" y="122"/>
			<point x="362" y="87"/>
			<point x="388" y="72" type="curve"/>
			<point x="414" y="58"/>
			<point x="448" y="67"/>
			<point x="464" y="93" type="curve"/>
			<point x="479" y="119"/>
			<point x="507" y="218"/>
			<point x="481" y="233" type="curve"/>
			<point x="455" y="248"/>
			<point x="384" y="174"/>
		</contour>
		<contour>
			<point x="370" y="100" type="curve" smooth="yes"/>
			<point x="342" y="100"/>
			<point x="321" y="78"/>
			<point x="321" y="50" type="curve" smooth="yes"/>
			<point x="321" y="22"/>
			<point x="342" y="0"/>
			<point x="370" y="0" type="curve" smooth="yes"/>
			<point x="398" y="0"/>
			<point x="421" y="22"/>
			<point x="421" y="50" type="curve" smooth="yes"/>
			<point x="421" y="78"/>
			<point x="398" y="100"/>
		</contour>
	</outline>
</glyph>
<glyph name="eight" format="2">
	<advance width="700"/>
	<unicode hex="0038"/>
	<guideline x="443" y="408" angle="90"/>
	<outline>
		<contour>
			<point x="389" y="0" type="curve" smooth="yes"/>
			<point x="420" y="0"/>
			<point x="520" y="24"/>
			<point x="520" y="55" type="curve" smooth="yes"/>
			<point x="520" y="86"/>
			<point x="420" y="110"/>
			<point x="389" y="110" type="curve" smooth="yes"/>
			<point x="358" y="110"/>
			<point x="335" y="86"/>
			<point x="335" y="55" type="curve" smooth="yes"/>
			<point x="335" y="24"/>
			<point x="358" y="0"/>
		</contour>
		<contour>
			<point x="314" y="0" type="curve" smooth="yes"/>
			<point x="345" y="0"/>
			<point x="370" y="24"/>
			<point x="370" y="55" type="curve" smooth="yes"/>
			<point x="370" y="86"/>
			<point x="345" y="110"/>
			<point x="314" y="110" type="curve" smooth="yes"/>
			<point x="283" y="110"/>
			<point x="185" y="86"/>
			<point x="185" y="55" type="curve" smooth="yes"/>
			<point x="185" y="24"/>
			<point x="283" y="0"/>
		</contour>
		<contour>
			<point x="239" y="0" type="curve" smooth="yes"/>
			<point x="270" y="0"/>
			<point x="370" y="24"/>
			<point x="370" y="55" type="curve" smooth="yes"/>
			<point x="370" y="86"/>
			<point x="270" y="110"/>
			<point x="239" y="110" type="curve" smooth="yes"/>
			<point x="208" y="110"/>
			<point x="185" y="86"/>
			<point x="185" y="55" type="curve" smooth="yes"/>
			<point x="185" y="24"/>
			<point x="208" y="0"/>
		</contour>
		<contour>
			<point x="143" y="170" type="curve" smooth="yes"/>
			<point x="171" y="170"/>
			<point x="194" y="192"/>
			<point x="194" y="220" type="curve" smooth="yes"/>
			<point x="194" y="248"/>
			<point x="171" y="270"/>
			<point x="143" y="270" type="curve" smooth="yes"/>
			<point x="115" y="270"/>
			<point x="94" y="248"/>
			<point x="94" y="220" type="curve" smooth="yes"/>
			<point x="94" y="192"/>
			<point x="115" y="170"/>
		</contour>
		<contour>
			<point x="143" y="90" type="curve" smooth="yes"/>
			<point x="171" y="90"/>
			<point x="194" y="112"/>
			<point x="194" y="140" type="curve" smooth="yes"/>
			<point x="194" y="168"/>
			<point x="171" y="270"/>
			<point x="143" y="270" type="curve" smooth="yes"/>
			<point x="115" y="270"/>
			<point x="94" y="168"/>
			<point x="94" y="140" type="curve" smooth="yes"/>
			<point x="94" y="112"/>
			<point x="117" y="90"/>
		</contour>
		<contour>
			<point x="181" y="60" type="curve"/>
			<point x="195" y="60"/>
			<point x="206" y="71"/>
			<point x="206" y="85" type="curve"/>
			<point x="206" y="99"/>
			<point x="195" y="110"/>
			<point x="181" y="110" type="curve"/>
			<point x="167" y="110"/>
			<point x="156" y="99"/>
			<point x="156" y="85" type="curve"/>
			<point x="156" y="71"/>
			<point x="167" y="60"/>
		</contour>
		<contour>
			<point x="464" y="0" type="curve" smooth="yes"/>
			<point x="495" y="0"/>
			<point x="520" y="24"/>
			<point x="520" y="55" type="curve" smooth="yes"/>
			<point x="520" y="86"/>
			<point x="495" y="110"/>
			<point x="464" y="110" type="curve" smooth="yes"/>
			<point x="433" y="110"/>
			<point x="335" y="86"/>
			<point x="335" y="55" type="curve" smooth="yes"/>
			<point x="335" y="24"/>
			<point x="433" y="0"/>
		</contour>
		<contour>
			<point x="464" y="408" type="curve"/>
			<point x="433" y="408"/>
			<point x="335" y="384"/>
			<point x="335" y="353" type="curve"/>
			<point x="335" y="322"/>
			<point x="433" y="298"/>
			<point x="464" y="298" type="curve"/>
			<point x="495" y="298"/>
			<point x="520" y="322"/>
			<point x="520" y="353" type="curve"/>
			<point x="520" y="384"/>
			<point x="495" y="408"/>
		</contour>
		<contour>
			<point x="389" y="408" type="curve"/>
			<point x="358" y="408"/>
			<point x="335" y="384"/>
			<point x="335" y="353" type="curve"/>
			<point x="335" y="322"/>
			<point x="358" y="298"/>
			<point x="389" y="298" type="curve"/>
			<point x="420" y="298"/>
			<point x="520" y="322"/>
			<point x="520" y="353" type="curve"/>
			<point x="520" y="384"/>
			<point x="420" y="408"/>
		</contour>
		<contour>
			<point x="314" y="408" type="curve"/>
			<point x="283" y="408"/>
			<point x="185" y="384"/>
			<point x="185" y="353" type="curve"/>
			<point x="185" y="322"/>
			<point x="283" y="298"/>
			<point x="314" y="298" type="curve"/>
			<point x="345" y="298"/>
			<point x="370" y="322"/>
			<point x="370" y="353" type="curve"/>
			<point x="370" y="384"/>
			<point x="345" y="408"/>
		</contour>
		<contour>
			<point x="239" y="408" type="curve"/>
			<point x="165" y="408"/>
			<point x="169" y="298"/>
			<point x="239" y="298" type="curve" smooth="yes"/>
			<point x="270" y="298"/>
			<point x="370" y="322"/>
			<point x="370" y="353" type="curve"/>
			<point x="370" y="384"/>
			<point x="270" y="408"/>
		</contour>
		<contour>
			<point x="143" y="170" type="curve" smooth="yes"/>
			<point x="171" y="170"/>
			<point x="194" y="272"/>
			<point x="194" y="300" type="curve" smooth="yes"/>
			<point x="194" y="328"/>
			<point x="171" y="350"/>
			<point x="143" y="350" type="curve" smooth="yes"/>
			<point x="115" y="350"/>
			<point x="94" y="328"/>
			<point x="94" y="300" type="curve" smooth="yes"/>
			<point x="94" y="272"/>
			<point x="115" y="170"/>
		</contour>
		<contour>
			<point x="176" y="332" type="curve"/>
			<point x="190" y="332"/>
			<point x="201" y="343"/>
			<point x="201" y="357" type="curve"/>
			<point x="201" y="371"/>
			<point x="190" y="382"/>
			<point x="176" y="382" type="curve"/>
			<point x="162" y="382"/>
			<point x="151" y="371"/>
			<point x="151" y="357" type="curve"/>
			<point x="151" y="343"/>
			<point x="162" y="332"/>
		</contour>
		<contour>
			<point x="563" y="170" type="curve" smooth="yes"/>
			<point x="591" y="170"/>
			<point x="612" y="192"/>
			<point x="612" y="220" type="curve" smooth="yes"/>
			<point x="612" y="248"/>
			<point x="591" y="270"/>
			<point x="563" y="270" type="curve" smooth="yes"/>
			<point x="535" y="270"/>
			<point x="512" y="248"/>
			<point x="512" y="220" type="curve" smooth="yes"/>
			<point x="512" y="192"/>
			<point x="535" y="170"/>
		</contour>
		<contour>
			<point x="563" y="90" type="curve" smooth="yes"/>
			<point x="589" y="90"/>
			<point x="612" y="112"/>
			<point x="612" y="140" type="curve" smooth="yes"/>
			<point x="612" y="168"/>
			<point x="591" y="270"/>
			<point x="563" y="270" type="curve" smooth="yes"/>
			<point x="535" y="270"/>
			<point x="512" y="168"/>
			<point x="512" y="140" type="curve" smooth="yes"/>
			<point x="512" y="112"/>
			<point x="535" y="90"/>
		</contour>
		<contour>
			<point x="525" y="60" type="curve"/>
			<point x="539" y="60"/>
			<point x="550" y="71"/>
			<point x="550" y="85" type="curve"/>
			<point x="550" y="99"/>
			<point x="539" y="110"/>
			<point x="525" y="110" type="curve"/>
			<point x="511" y="110"/>
			<point x="500" y="99"/>
			<point x="500" y="85" type="curve"/>
			<point x="500" y="71"/>
			<point x="511" y="60"/>
		</contour>
		<contour>
			<point x="563" y="170" type="curve" smooth="yes"/>
			<point x="591" y="170"/>
			<point x="612" y="272"/>
			<point x="612" y="300" type="curve" smooth="yes"/>
			<point x="612" y="328"/>
			<point x="591" y="350"/>
			<point x="563" y="350" type="curve" smooth="yes"/>
			<point x="535" y="350"/>
			<point x="512" y="328"/>
			<point x="512" y="300" type="curve" smooth="yes"/>
			<point x="512" y="272"/>
			<point x="535" y="170"/>
		</contour>
		<contour>
			<point x="530" y="332" type="curve"/>
			<point x="544" y="332"/>
			<point x="555" y="343"/>
			<point x="555" y="357" type="curve"/>
			<point x="555" y="371"/>
			<point x="544" y="382"/>
			<point x="530" y="382" type="curve"/>
			<point x="516" y="382"/>
			<point x="505" y="371"/>
			<point x="505" y="357" type="curve"/>
			<point x="505" y="343"/>
			<point x="516" y="332"/>
		</contour>
		<contour>
			<point x="239" y="570" type="curve" smooth="yes"/>
			<point x="270" y="570"/>
			<point x="368" y="594"/>
			<point x="368" y="625" type="curve" smooth="yes"/>
			<point x="368" y="656"/>
			<point x="270" y="680"/>
			<point x="239" y="680" type="curve" smooth="yes"/>
			<point x="208" y="680"/>
			<point x="183" y="656"/>
			<point x="183" y="625" type="curve" smooth="yes"/>
			<point x="183" y="594"/>
			<point x="208" y="570"/>
		</contour>
		<contour>
			<point x="314" y="570" type="curve" smooth="yes"/>
			<point x="345" y="570"/>
			<point x="368" y="594"/>
			<point x="368" y="625" type="curve" smooth="yes"/>
			<point x="368" y="656"/>
			<point x="345" y="680"/>
			<point x="314" y="680" type="curve" smooth="yes"/>
			<point x="283" y="680"/>
			<point x="183" y="656"/>
			<point x="183" y="625" type="curve" smooth="yes"/>
			<point x="183" y="594"/>
			<point x="283" y="570"/>
		</contour>
		<contour>
			<point x="389" y="570" type="curve"/>
			<point x="420" y="570"/>
			<point x="518" y="594"/>
			<point x="518" y="625" type="curve" smooth="yes"/>
			<point x="518" y="656"/>
			<point x="420" y="680"/>
			<point x="389" y="680" type="curve" smooth="yes"/>
			<point x="358" y="680"/>
			<point x="333" y="656"/>
			<point x="333" y="625" type="curve" smooth="yes"/>
			<point x="333" y="594"/>
			<point x="358" y="570"/>
		</contour>
		<contour>
			<point x="130" y="539" type="curve" smooth="yes"/>
			<point x="102" y="539"/>
			<point x="81" y="517"/>
			<point x="81" y="489" type="curve" smooth="yes"/>
			<point x="81" y="461"/>
			<point x="102" y="439"/>
			<point x="130" y="439" type="curve" smooth="yes"/>
			<point x="158" y="439"/>
			<point x="181" y="461"/>
			<point x="181" y="489" type="curve" smooth="yes"/>
			<point x="181" y="517"/>
			<point x="158" y="539"/>
		</contour>
		<contour>
			<point x="130" y="619" type="curve" smooth="yes"/>
			<point x="104" y="619"/>
			<point x="81" y="597"/>
			<point x="81" y="569" type="curve" smooth="yes"/>
			<point x="81" y="541"/>
			<point x="102" y="439"/>
			<point x="130" y="439" type="curve" smooth="yes"/>
			<point x="158" y="439"/>
			<point x="181" y="541"/>
			<point x="181" y="569" type="curve" smooth="yes"/>
			<point x="181" y="597"/>
			<point x="158" y="619"/>
		</contour>
		<contour>
			<point x="166" y="639" type="curve"/>
			<point x="152" y="639"/>
			<point x="141" y="628"/>
			<point x="141" y="614" type="curve"/>
			<point x="141" y="600"/>
			<point x="152" y="589"/>
			<point x="166" y="589" type="curve"/>
			<point x="180" y="589"/>
			<point x="191" y="600"/>
			<point x="191" y="614" type="curve"/>
			<point x="191" y="628"/>
			<point x="180" y="639"/>
		</contour>
		<contour>
			<point x="130" y="359" type="curve"/>
			<point x="158" y="359"/>
			<point x="181" y="381"/>
			<point x="181" y="409" type="curve"/>
			<point x="181" y="437"/>
			<point x="158" y="539"/>
			<point x="130" y="539" type="curve"/>
			<point x="102" y="539"/>
			<point x="81" y="437"/>
			<point x="81" y="409" type="curve" smooth="yes"/>
			<point x="81" y="381"/>
			<point x="104" y="359"/>
		</contour>
		<contour>
			<point x="464" y="570" type="curve"/>
			<point x="495" y="570"/>
			<point x="518" y="594"/>
			<point x="518" y="625" type="curve" smooth="yes"/>
			<point x="518" y="656"/>
			<point x="495" y="680"/>
			<point x="464" y="680" type="curve" smooth="yes"/>
			<point x="433" y="680"/>
			<point x="333" y="656"/>
			<point x="333" y="625" type="curve" smooth="yes"/>
			<point x="333" y="594"/>
			<point x="433" y="570"/>
		</contour>
		<contour>
			<point x="568" y="539" type="curve" smooth="yes"/>
			<point x="540" y="539"/>
			<point x="519" y="517"/>
			<point x="519" y="489" type="curve" smooth="yes"/>
			<point x="519" y="461"/>
			<point x="540" y="439"/>
			<point x="568" y="439" type="curve" smooth="yes"/>
			<point x="596" y="439"/>
			<point x="619" y="461"/>
			<point x="619" y="489" type="curve" smooth="yes"/>
			<point x="619" y="517"/>
			<point x="596" y="539"/>
		</contour>
		<contour>
			<point x="568" y="619" type="curve" smooth="yes"/>
			<point x="542" y="619"/>
			<point x="519" y="597"/>
			<point x="519" y="569" type="curve" smooth="yes"/>
			<point x="519" y="541"/>
			<point x="540" y="439"/>
			<point x="568" y="439" type="curve" smooth="yes"/>
			<point x="596" y="439"/>
			<point x="619" y="541"/>
			<point x="619" y="569" type="curve" smooth="yes"/>
			<point x="619" y="597"/>
			<point x="596" y="619"/>
		</contour>
		<contour>
			<point x="568" y="359" type="curve"/>
			<point x="596" y="359"/>
			<point x="619" y="381"/>
			<point x="619" y="409" type="curve"/>
			<point x="619" y="437"/>
			<point x="596" y="539"/>
			<point x="568" y="539" type="curve"/>
			<point x="540" y="539"/>
			<point x="519" y="437"/>
			<point x="519" y="409" type="curve" smooth="yes"/>
			<point x="519" y="381"/>
			<point x="542" y="359"/>
		</contour>
		<contour>
			<point x="521" y="639" type="curve"/>
			<point x="507" y="639"/>
			<point x="496" y="628"/>
			<point x="496" y="614" type="curve"/>
			<point x="496" y="600"/>
			<point x="507" y="589"/>
			<point x="521" y="589" type="curve"/>
			<point x="535" y="589"/>
			<point x="546" y="600"/>
			<point x="546" y="614" type="curve"/>
			<point x="546" y="628"/>
			<point x="535" y="639"/>
		</contour>
	</outline>
</glyph>
<glyph name="nine" format="2">
	<advance width="700"/>
	<unicode hex="0039"/>
	<guideline x="463" y="382" angle="90"/>
	<guideline x="235" y="408" angle="90"/>
	<guideline x="126" y="359" angle="0"/>
	<outline>
		<contour>
			<point x="553" y="539" type="curve" smooth="yes"/>
			<point x="525" y="539"/>
			<point x="502" y="517"/>
			<point x="502" y="489" type="curve" smooth="yes"/>
			<point x="502" y="461"/>
			<point x="525" y="439"/>
			<point x="553" y="439" type="curve" smooth="yes"/>
			<point x="581" y="439"/>
			<point x="602" y="461"/>
			<point x="602" y="489" type="curve" smooth="yes"/>
			<point x="602" y="517"/>
			<point x="581" y="539"/>
		</contour>
		<contour>
			<point x="553" y="619" type="curve" smooth="yes"/>
			<point x="525" y="619"/>
			<point x="502" y="597"/>
			<point x="502" y="569" type="curve" smooth="yes"/>
			<point x="502" y="541"/>
			<point x="525" y="439"/>
			<point x="553" y="439" type="curve" smooth="yes"/>
			<point x="581" y="439"/>
			<point x="602" y="541"/>
			<point x="602" y="569" type="curve" smooth="yes"/>
			<point x="602" y="597"/>
			<point x="579" y="619"/>
		</contour>
		<contour>
			<point x="515" y="620" type="curve"/>
			<point x="501" y="620"/>
			<point x="490" y="609"/>
			<point x="490" y="595" type="curve"/>
			<point x="490" y="581"/>
			<point x="501" y="570"/>
			<point x="515" y="570" type="curve"/>
			<point x="529" y="570"/>
			<point x="540" y="581"/>
			<point x="540" y="595" type="curve"/>
			<point x="540" y="609"/>
			<point x="529" y="620"/>
		</contour>
		<contour>
			<point x="553" y="539" type="curve" smooth="yes"/>
			<point x="525" y="539"/>
			<point x="502" y="437"/>
			<point x="502" y="409" type="curve" smooth="yes"/>
			<point x="502" y="381"/>
			<point x="525" y="359"/>
			<point x="553" y="359" type="curve" smooth="yes"/>
			<point x="581" y="359"/>
			<point x="602" y="381"/>
			<point x="602" y="409" type="curve" smooth="yes"/>
			<point x="602" y="437"/>
			<point x="581" y="539"/>
		</contour>
		<contour>
			<point x="470" y="184" type="curve"/>
			<point x="443" y="168"/>
			<point x="370" y="98"/>
			<point x="386" y="71" type="curve" smooth="yes"/>
			<point x="402" y="45"/>
			<point x="499" y="73"/>
			<point x="525" y="88" type="curve" smooth="yes"/>
			<point x="552" y="103"/>
			<point x="562" y="137"/>
			<point x="547" y="164" type="curve" smooth="yes"/>
			<point x="532" y="190"/>
			<point x="497" y="198"/>
		</contour>
		<contour>
			<point x="406" y="146" type="curve" smooth="yes"/>
			<point x="379" y="130"/>
			<point x="370" y="98"/>
			<point x="386" y="71" type="curve" smooth="yes"/>
			<point x="402" y="45"/>
			<point x="433" y="35"/>
			<point x="460" y="51" type="curve" smooth="yes"/>
			<point x="487" y="67"/>
			<point x="562" y="137"/>
			<point x="547" y="164" type="curve" smooth="yes"/>
			<point x="532" y="190"/>
			<point x="432" y="162"/>
		</contour>
		<contour>
			<point x="556" y="170" type="curve" smooth="yes"/>
			<point x="584" y="170"/>
			<point x="605" y="192"/>
			<point x="605" y="220" type="curve" smooth="yes"/>
			<point x="605" y="248"/>
			<point x="584" y="270"/>
			<point x="556" y="270" type="curve" smooth="yes"/>
			<point x="528" y="270"/>
			<point x="505" y="248"/>
			<point x="505" y="220" type="curve" smooth="yes"/>
			<point x="505" y="192"/>
			<point x="528" y="170"/>
		</contour>
		<contour>
			<point x="556" y="350" type="curve"/>
			<point x="528" y="350"/>
			<point x="505" y="328"/>
			<point x="505" y="300" type="curve"/>
			<point x="505" y="272"/>
			<point x="528" y="170"/>
			<point x="556" y="170" type="curve"/>
			<point x="584" y="170"/>
			<point x="605" y="272"/>
			<point x="605" y="300" type="curve" smooth="yes"/>
			<point x="605" y="328"/>
			<point x="582" y="350"/>
		</contour>
		<contour>
			<point x="395" y="12" type="curve" smooth="yes"/>
			<point x="422" y="28"/>
			<point x="433" y="62"/>
			<point x="417" y="89" type="curve" smooth="yes"/>
			<point x="401" y="116"/>
			<point x="367" y="123"/>
			<point x="340" y="108" type="curve" smooth="yes"/>
			<point x="313" y="93"/>
			<point x="241" y="22"/>
			<point x="256" y="-4" type="curve" smooth="yes"/>
			<point x="272" y="-31"/>
			<point x="369" y="-3"/>
		</contour>
		<contour>
			<point x="155" y="152" type="curve" smooth="yes"/>
			<point x="130" y="138"/>
			<point x="121" y="107"/>
			<point x="135" y="83" type="curve" smooth="yes"/>
			<point x="149" y="59"/>
			<point x="220" y="-18"/>
			<point x="245" y="-4" type="curve" smooth="yes"/>
			<point x="269" y="10"/>
			<point x="236" y="109"/>
			<point x="222" y="133" type="curve" smooth="yes"/>
			<point x="208" y="157"/>
			<point x="179" y="166"/>
		</contour>
		<contour>
			<point x="245" y="-4" type="curve"/>
			<point x="267" y="9"/>
			<point x="276" y="39"/>
			<point x="262" y="64" type="curve"/>
			<point x="248" y="88"/>
			<point x="179" y="166"/>
			<point x="155" y="152" type="curve"/>
			<point x="130" y="138"/>
			<point x="161" y="38"/>
			<point x="175" y="14" type="curve" smooth="yes"/>
			<point x="189" y="-11"/>
			<point x="220" y="-18"/>
		</contour>
		<contour>
			<point x="235" y="570" type="curve" smooth="yes"/>
			<point x="266" y="570"/>
			<point x="364" y="594"/>
			<point x="364" y="625" type="curve" smooth="yes"/>
			<point x="364" y="656"/>
			<point x="266" y="680"/>
			<point x="235" y="680" type="curve" smooth="yes"/>
			<point x="204" y="680"/>
			<point x="179" y="656"/>
			<point x="179" y="625" type="curve" smooth="yes"/>
			<point x="179" y="594"/>
			<point x="204" y="570"/>
		</contour>
		<contour>
			<point x="310" y="570" type="curve" smooth="yes"/>
			<point x="341" y="570"/>
			<point x="364" y="594"/>
			<point x="364" y="625" type="curve" smooth="yes"/>
			<point x="364" y="656"/>
			<point x="341" y="680"/>
			<point x="310" y="680" type="curve" smooth="yes"/>
			<point x="279" y="680"/>
			<point x="179" y="656"/>
			<point x="179" y="625" type="curve" smooth="yes"/>
			<point x="179" y="594"/>
			<point x="279" y="570"/>
		</contour>
		<contour>
			<point x="385" y="570" type="curve"/>
			<point x="416" y="570"/>
			<point x="514" y="594"/>
			<point x="514" y="625" type="curve" smooth="yes"/>
			<point x="514" y="656"/>
			<point x="416" y="680"/>
			<point x="385" y="680" type="curve" smooth="yes"/>
			<point x="354" y="680"/>
			<point x="329" y="656"/>
			<point x="329" y="625" type="curve" smooth="yes"/>
			<point x="329" y="594"/>
			<point x="354" y="570"/>
		</contour>
		<contour>
			<point x="126" y="539" type="curve" smooth="yes"/>
			<point x="98" y="539"/>
			<point x="77" y="517"/>
			<point x="77" y="489" type="curve" smooth="yes"/>
			<point x="77" y="461"/>
			<point x="98" y="439"/>
			<point x="126" y="439" type="curve" smooth="yes"/>
			<point x="154" y="439"/>
			<point x="177" y="461"/>
			<point x="177" y="489" type="curve" smooth="yes"/>
			<point x="177" y="517"/>
			<point x="154" y="539"/>
		</contour>
		<contour>
			<point x="126" y="619" type="curve" smooth="yes"/>
			<point x="100" y="619"/>
			<point x="77" y="597"/>
			<point x="77" y="569" type="curve" smooth="yes"/>
			<point x="77" y="541"/>
			<point x="98" y="439"/>
			<point x="126" y="439" type="curve" smooth="yes"/>
			<point x="154" y="439"/>
			<point x="177" y="541"/>
			<point x="177" y="569" type="curve" smooth="yes"/>
			<point x="177" y="597"/>
			<point x="154" y="619"/>
		</contour>
		<contour>
			<point x="171" y="639" type="curve"/>
			<point x="157" y="639"/>
			<point x="146" y="628"/>
			<point x="146" y="614" type="curve"/>
			<point x="146" y="600"/>
			<point x="157" y="589"/>
			<point x="171" y="589" type="curve"/>
			<point x="185" y="589"/>
			<point x="196" y="600"/>
			<point x="196" y="614" type="curve"/>
			<point x="196" y="628"/>
			<point x="185" y="639"/>
		</contour>
		<contour>
			<point x="235" y="408" type="curve"/>
			<point x="204" y="408"/>
			<point x="179" y="384"/>
			<point x="179" y="353" type="curve"/>
			<point x="179" y="322"/>
			<point x="204" y="298"/>
			<point x="235" y="298" type="curve"/>
			<point x="266" y="298"/>
			<point x="364" y="322"/>
			<point x="364" y="353" type="curve"/>
			<point x="364" y="384"/>
			<point x="266" y="408"/>
		</contour>
		<contour>
			<point x="310" y="408" type="curve"/>
			<point x="279" y="408"/>
			<point x="179" y="384"/>
			<point x="179" y="353" type="curve"/>
			<point x="179" y="322"/>
			<point x="279" y="298"/>
			<point x="310" y="298" type="curve"/>
			<point x="341" y="298"/>
			<point x="364" y="322"/>
			<point x="364" y="353" type="curve"/>
			<point x="364" y="384"/>
			<point x="341" y="408"/>
		</contour>
		<contour>
			<point x="385" y="408" type="curve"/>
			<point x="354" y="408"/>
			<point x="329" y="384"/>
			<point x="329" y="353" type="curve"/>
			<point x="329" y="322"/>
			<point x="354" y="298"/>
			<point x="385" y="298" type="curve"/>
			<point x="416" y="298"/>
			<point x="514" y="322"/>
			<point x="514" y="353" type="curve"/>
			<point x="514" y="384"/>
			<point x="416" y="408"/>
		</contour>
		<contour>
			<point x="460" y="408" type="curve"/>
			<point x="429" y="408"/>
			<point x="329" y="384"/>
			<point x="329" y="353" type="curve"/>
			<point x="329" y="322"/>
			<point x="429" y="298"/>
			<point x="460" y="298" type="curve"/>
			<point x="491" y="298"/>
			<point x="514" y="322"/>
			<point x="514" y="353" type="curve"/>
			<point x="514" y="387"/>
			<point x="491" y="408"/>
		</contour>
		<contour>
			<point x="126" y="359" type="curve"/>
			<point x="154" y="359"/>
			<point x="177" y="381"/>
			<point x="177" y="409" type="curve"/>
			<point x="177" y="437"/>
			<point x="154" y="539"/>
			<point x="126" y="539" type="curve"/>
			<point x="98" y="539"/>
			<point x="77" y="437"/>
			<point x="77" y="409" type="curve" smooth="yes"/>
			<point x="77" y="381"/>
			<point x="100" y="359"/>
		</contour>
		<contour>
			<point x="172" y="332" type="curve"/>
			<point x="186" y="332"/>
			<point x="197" y="343"/>
			<point x="197" y="357" type="curve" smooth="yes"/>
			<point x="197" y="371"/>
			<point x="186" y="382"/>
			<point x="172" y="382" type="curve" smooth="yes"/>
			<point x="158" y="382"/>
			<point x="147" y="371"/>
			<point x="147" y="357" type="curve" smooth="yes"/>
			<point x="147" y="343"/>
			<point x="158" y="332"/>
		</contour>
		<contour>
			<point x="460" y="570" type="curve"/>
			<point x="491" y="570"/>
			<point x="514" y="594"/>
			<point x="514" y="625" type="curve" smooth="yes"/>
			<point x="514" y="656"/>
			<point x="491" y="680"/>
			<point x="460" y="680" type="curve" smooth="yes"/>
			<point x="429" y="680"/>
			<point x="329" y="656"/>
			<point x="329" y="625" type="curve" smooth="yes"/>
			<point x="329" y="594"/>
			<point x="429" y="570"/>
		</contour>
		<contour>
			<point x="530" y="332" type="curve"/>
			<point x="544" y="332"/>
			<point x="555" y="343"/>
			<point x="555" y="357" type="curve"/>
			<point x="555" y="371"/>
			<point x="544" y="382"/>
			<point x="530" y="382" type="curve"/>
			<point x="516" y="382"/>
			<point x="505" y="371"/>
			<point x="505" y="357" type="curve"/>
			<point x="505" y="343"/>
			<point x="516" y="332"/>
		</contour>
		<contour>
			<point x="276" y="71" type="curve" smooth="yes"/>
			<point x="249" y="55"/>
			<point x="240" y="23"/>
			<point x="256" y="-4" type="curve" smooth="yes"/>
			<point x="272" y="-30"/>
			<point x="303" y="-40"/>
			<point x="330" y="-24" type="curve" smooth="yes"/>
			<point x="357" y="-8"/>
			<point x="432" y="62"/>
			<point x="417" y="89" type="curve" smooth="yes"/>
			<point x="402" y="115"/>
			<point x="302" y="87"/>
		</contour>
	</outline>
</glyph>
<glyph name="colon" format="2">
	<advance width="700"/>
	<unicode hex="003A"/>
	<guideline x="415" y="65" angle="90"/>
	<outline>
		<contour>
			<point x="350" y="0" type="curve" smooth="yes"/>
			<point x="387" y="0"/>
			<point x="415" y="28"/>
			<point x="415" y="65" type="curve" smooth="yes"/>
			<point x="415" y="102"/>
			<point x="387" y="130"/>
			<point x="350" y="130" type="curve" smooth="yes"/>
			<point x="313" y="130"/>
			<point x="285" y="102"/>
			<point x="285" y="65" type="curve" smooth="yes"/>
			<point x="285" y="28"/>
			<point x="313" y="0"/>
		</contour>
		<contour>
			<point x="350" y="390" type="curve" smooth="yes"/>
			<point x="387" y="390"/>
			<point x="415" y="418"/>
			<point x="415" y="455" type="curve" smooth="yes"/>
			<point x="415" y="492"/>
			<point x="387" y="520"/>
			<point x="350" y="520" type="curve" smooth="yes"/>
			<point x="313" y="520"/>
			<point x="285" y="492"/>
			<point x="285" y="455" type="curve" smooth="yes"/>
			<point x="285" y="418"/>
			<point x="313" y="390"/>
		</contour>
	</outline>
</glyph>
<glyph name="equal" format="2">
	<advance width="700"/>
	<unicode hex="003D"/>
	<outline>
		<contour>
			<point x="339" y="424" type="curve" smooth="yes"/>
			<point x="339" y="396"/>
			<point x="441" y="373"/>
			<point x="469" y="373" type="curve" smooth="yes"/>
			<point x="497" y="373"/>
			<point x="519" y="396"/>
			<point x="519" y="424" type="curve" smooth="yes"/>
			<point x="519" y="452"/>
			<point x="497" y="473"/>
			<point x="469" y="473" type="curve" smooth="yes"/>
			<point x="441" y="473"/>
			<point x="339" y="452"/>
		</contour>
		<contour>
			<point x="339" y="424" type="curve" smooth="yes"/>
			<point x="339" y="396"/>
			<point x="361" y="373"/>
			<point x="389" y="373" type="curve" smooth="yes"/>
			<point x="417" y="373"/>
			<point x="519" y="396"/>
			<point x="519" y="424" type="curve" smooth="yes"/>
			<point x="519" y="452"/>
			<point x="417" y="473"/>
			<point x="389" y="473" type="curve" smooth="yes"/>
			<point x="361" y="473"/>
			<point x="339" y="452"/>
		</contour>
		<contour>
			<point x="360" y="424" type="curve" smooth="yes"/>
			<point x="360" y="452"/>
			<point x="258" y="473"/>
			<point x="230" y="473" type="curve" smooth="yes"/>
			<point x="202" y="473"/>
			<point x="180" y="452"/>
			<point x="180" y="424" type="curve" smooth="yes"/>
			<point x="180" y="396"/>
			<point x="202" y="373"/>
			<point x="230" y="373" type="curve" smooth="yes"/>
			<point x="258" y="373"/>
			<point x="360" y="396"/>
		</contour>
		<contour>
			<point x="360" y="424" type="curve" smooth="yes"/>
			<point x="360" y="452"/>
			<point x="338" y="473"/>
			<point x="310" y="473" type="curve" smooth="yes"/>
			<point x="282" y="473"/>
			<point x="180" y="452"/>
			<point x="180" y="424" type="curve" smooth="yes"/>
			<point x="180" y="396"/>
			<point x="282" y="373"/>
			<point x="310" y="373" type="curve" smooth="yes"/>
			<point x="338" y="373"/>
			<point x="360" y="396"/>
		</contour>
		<contour>
			<point x="339" y="242" type="curve" smooth="yes"/>
			<point x="339" y="214"/>
			<point x="441" y="191"/>
			<point x="469" y="191" type="curve" smooth="yes"/>
			<point x="497" y="191"/>
			<point x="519" y="214"/>
			<point x="519" y="242" type="curve" smooth="yes"/>
			<point x="519" y="270"/>
			<point x="497" y="291"/>
			<point x="469" y="291" type="curve" smooth="yes"/>
			<point x="441" y="291"/>
			<point x="339" y="270"/>
		</contour>
		<contour>
			<point x="339" y="242" type="curve" smooth="yes"/>
			<point x="339" y="214"/>
			<point x="361" y="191"/>
			<point x="389" y="191" type="curve" smooth="yes"/>
			<point x="417" y="191"/>
			<point x="519" y="214"/>
			<point x="519" y="242" type="curve" smooth="yes"/>
			<point x="519" y="270"/>
			<point x="417" y="291"/>
			<point x="389" y="291" type="curve" smooth="yes"/>
			<point x="361" y="291"/>
			<point x="339" y="270"/>
		</contour>
		<contour>
			<point x="360" y="242" type="curve" smooth="yes"/>
			<point x="360" y="270"/>
			<point x="258" y="291"/>
			<point x="230" y="291" type="curve" smooth="yes"/>
			<point x="202" y="291"/>
			<point x="180" y="270"/>
			<point x="180" y="242" type="curve" smooth="yes"/>
			<point x="180" y="214"/>
			<point x="202" y="191"/>
			<point x="230" y="191" type="curve" smooth="yes"/>
			<point x="258" y="191"/>
			<point x="360" y="214"/>
		</contour>
		<contour>
			<point x="360" y="242" type="curve" smooth="yes"/>
			<point x="360" y="270"/>
			<point x="338" y="291"/>
			<point x="310" y="291" type="curve" smooth="yes"/>
			<point x="282" y="291"/>
			<point x="180" y="270"/>
			<point x="180" y="242" type="curve" smooth="yes"/>
			<point x="180" y="214"/>
			<point x="282" y="191"/>
			<point x="310" y="191" type="curve" smooth="yes"/>
			<point x="338" y="191"/>
			<point x="360" y="214"/>
		</contour>
	</outline>
</glyph>
<glyph name="greater" format="2">
	<advance width="700"/>
	<unicode hex="003E"/>
	<outline>
		<contour>
			<point x="341" y="429" type="curve" smooth="yes"/>
			<point x="327" y="405"/>
			<point x="404" y="334"/>
			<point x="428" y="320" type="curve" smooth="yes"/>
			<point x="452" y="306"/>
			<point x="483" y="315"/>
			<point x="497" y="339" type="curve" smooth="yes"/>
			<point x="511" y="363"/>
			<point x="502" y="393"/>
			<point x="478" y="407" type="curve" smooth="yes"/>
			<point x="454" y="421"/>
			<point x="355" y="453"/>
		</contour>
		<contour>
			<point x="341" y="429" type="curve" smooth="yes"/>
			<point x="327" y="405"/>
			<point x="334" y="374"/>
			<point x="359" y="360" type="curve" smooth="yes"/>
			<point x="383" y="346"/>
			<point x="483" y="315"/>
			<point x="497" y="339" type="curve" smooth="yes"/>
			<point x="511" y="363"/>
			<point x="433" y="433"/>
			<point x="409" y="447" type="curve" smooth="yes"/>
			<point x="384" y="461"/>
			<point x="355" y="453"/>
		</contour>
		<contour>
			<point x="359" y="419" type="curve" smooth="yes"/>
			<point x="373" y="443"/>
			<point x="295" y="512"/>
			<point x="271" y="526" type="curve" smooth="yes"/>
			<point x="247" y="540"/>
			<point x="217" y="533"/>
			<point x="203" y="509" type="curve" smooth="yes"/>
			<point x="189" y="484"/>
			<point x="197" y="453"/>
			<point x="221" y="439" type="curve" smooth="yes"/>
			<point x="245" y="425"/>
			<point x="345" y="394"/>
		</contour>
		<contour>
			<point x="359" y="419" type="curve" smooth="yes"/>
			<point x="373" y="443"/>
			<point x="365" y="472"/>
			<point x="340" y="486" type="curve" smooth="yes"/>
			<point x="316" y="500"/>
			<point x="217" y="533"/>
			<point x="203" y="509" type="curve" smooth="yes"/>
			<point x="189" y="484"/>
			<point x="266" y="413"/>
			<point x="290" y="399" type="curve" smooth="yes"/>
			<point x="315" y="385"/>
			<point x="345" y="394"/>
		</contour>
		<contour>
			<point x="340" y="237" type="curve" smooth="yes"/>
			<point x="354" y="212"/>
			<point x="454" y="243"/>
			<point x="478" y="257" type="curve" smooth="yes"/>
			<point x="502" y="271"/>
			<point x="510" y="302"/>
			<point x="496" y="327" type="curve" smooth="yes"/>
			<point x="482" y="351"/>
			<point x="452" y="358"/>
			<point x="428" y="344" type="curve" smooth="yes"/>
			<point x="404" y="330"/>
			<point x="326" y="261"/>
		</contour>
		<contour>
			<point x="340" y="237" type="curve" smooth="yes"/>
			<point x="354" y="212"/>
			<point x="384" y="203"/>
			<point x="409" y="217" type="curve" smooth="yes"/>
			<point x="433" y="231"/>
			<point x="510" y="302"/>
			<point x="496" y="327" type="curve" smooth="yes"/>
			<point x="482" y="351"/>
			<point x="383" y="318"/>
			<point x="359" y="304" type="curve" smooth="yes"/>
			<point x="334" y="290"/>
			<point x="326" y="261"/>
		</contour>
		<contour>
			<point x="358" y="247" type="curve" smooth="yes"/>
			<point x="344" y="271"/>
			<point x="245" y="239"/>
			<point x="221" y="225" type="curve" smooth="yes"/>
			<point x="197" y="211"/>
			<point x="188" y="181"/>
			<point x="202" y="157" type="curve" smooth="yes"/>
			<point x="216" y="133"/>
			<point x="247" y="124"/>
			<point x="271" y="138" type="curve" smooth="yes"/>
			<point x="295" y="152"/>
			<point x="372" y="223"/>
		</contour>
		<contour>
			<point x="358" y="247" type="curve" smooth="yes"/>
			<point x="344" y="271"/>
			<point x="315" y="279"/>
			<point x="290" y="265" type="curve" smooth="yes"/>
			<point x="266" y="251"/>
			<point x="188" y="181"/>
			<point x="202" y="157" type="curve" smooth="yes"/>
			<point x="216" y="133"/>
			<point x="316" y="164"/>
			<point x="340" y="178" type="curve" smooth="yes"/>
			<point x="365" y="192"/>
			<point x="372" y="223"/>
		</contour>
	</outline>
</glyph>
<glyph name="question" format="2">
	<advance width="700"/>
	<unicode hex="003F"/>
	<guideline x="383" y="184" angle="0"/>
	<outline>
		<contour>
			<point x="451" y="570" type="curve" smooth="yes"/>
			<point x="482" y="570"/>
			<point x="507" y="594"/>
			<point x="507" y="625" type="curve" smooth="yes"/>
			<point x="507" y="656"/>
			<point x="482" y="680"/>
			<point x="451" y="680" type="curve" smooth="yes"/>
			<point x="420" y="680"/>
			<point x="322" y="656"/>
			<point x="322" y="625" type="curve" smooth="yes"/>
			<point x="322" y="594"/>
			<point x="420" y="570"/>
		</contour>
		<contour>
			<point x="376" y="570" type="curve" smooth="yes"/>
			<point x="407" y="570"/>
			<point x="507" y="594"/>
			<point x="507" y="625" type="curve" smooth="yes"/>
			<point x="507" y="656"/>
			<point x="407" y="680"/>
			<point x="376" y="680" type="curve" smooth="yes"/>
			<point x="345" y="680"/>
			<point x="322" y="656"/>
			<point x="322" y="625" type="curve" smooth="yes"/>
			<point x="322" y="594"/>
			<point x="345" y="570"/>
		</contour>
		<contour>
			<point x="301" y="570" type="curve"/>
			<point x="332" y="570"/>
			<point x="357" y="594"/>
			<point x="357" y="625" type="curve" smooth="yes"/>
			<point x="357" y="656"/>
			<point x="332" y="680"/>
			<point x="301" y="680" type="curve" smooth="yes"/>
			<point x="270" y="680"/>
			<point x="172" y="656"/>
			<point x="172" y="625" type="curve" smooth="yes"/>
			<point x="172" y="594"/>
			<point x="270" y="570"/>
		</contour>
		<contour>
			<point x="569" y="539" type="curve" smooth="yes"/>
			<point x="541" y="539"/>
			<point x="518" y="517"/>
			<point x="518" y="489" type="curve" smooth="yes"/>
			<point x="518" y="461"/>
			<point x="541" y="439"/>
			<point x="569" y="439" type="curve" smooth="yes"/>
			<point x="597" y="439"/>
			<point x="618" y="461"/>
			<point x="618" y="489" type="curve" smooth="yes"/>
			<point x="618" y="517"/>
			<point x="597" y="539"/>
		</contour>
		<contour>
			<point x="569" y="619" type="curve" smooth="yes"/>
			<point x="541" y="619"/>
			<point x="518" y="597"/>
			<point x="518" y="569" type="curve" smooth="yes"/>
			<point x="518" y="541"/>
			<point x="541" y="439"/>
			<point x="569" y="439" type="curve" smooth="yes"/>
			<point x="597" y="439"/>
			<point x="618" y="541"/>
			<point x="618" y="569" type="curve" smooth="yes"/>
			<point x="618" y="597"/>
			<point x="595" y="619"/>
		</contour>
		<contour>
			<point x="524" y="639" type="curve"/>
			<point x="510" y="639"/>
			<point x="499" y="628"/>
			<point x="499" y="614" type="curve"/>
			<point x="499" y="600"/>
			<point x="510" y="589"/>
			<point x="524" y="589" type="curve"/>
			<point x="538" y="589"/>
			<point x="549" y="600"/>
			<point x="549" y="614" type="curve"/>
			<point x="549" y="628"/>
			<point x="538" y="639"/>
		</contour>
		<contour>
			<point x="451" y="408" type="curve"/>
			<point x="420" y="408"/>
			<point x="322" y="384"/>
			<point x="322" y="353" type="curve"/>
			<point x="322" y="322"/>
			<point x="420" y="298"/>
			<point x="451" y="298" type="curve"/>
			<point x="482" y="298"/>
			<point x="507" y="322"/>
			<point x="507" y="353" type="curve"/>
			<point x="507" y="384"/>
			<point x="482" y="408"/>
		</contour>
		<contour>
			<point x="376" y="408" type="curve"/>
			<point x="345" y="408"/>
			<point x="322" y="384"/>
			<point x="322" y="353" type="curve"/>
			<point x="322" y="322"/>
			<point x="345" y="298"/>
			<point x="376" y="298" type="curve"/>
			<point x="407" y="298"/>
			<point x="507" y="322"/>
			<point x="507" y="353" type="curve"/>
			<point x="507" y="384"/>
			<point x="407" y="408"/>
		</contour>
		<contour>
			<point x="569" y="359" type="curve"/>
			<point x="595" y="359"/>
			<point x="618" y="381"/>
			<point x="618" y="409" type="curve"/>
			<point x="618" y="437"/>
			<point x="597" y="539"/>
			<point x="569" y="539" type="curve"/>
			<point x="541" y="539"/>
			<point x="518" y="437"/>
			<point x="518" y="409" type="curve"/>
			<point x="518" y="381"/>
			<point x="541" y="359"/>
		</contour>
		<contour>
			<point x="524" y="332" type="curve" smooth="yes"/>
			<point x="538" y="332"/>
			<point x="549" y="343"/>
			<point x="549" y="357" type="curve" smooth="yes"/>
			<point x="549" y="371"/>
			<point x="538" y="382"/>
			<point x="524" y="382" type="curve" smooth="yes"/>
			<point x="510" y="382"/>
			<point x="499" y="371"/>
			<point x="499" y="357" type="curve" smooth="yes"/>
			<point x="499" y="343"/>
			<point x="510" y="332"/>
		</contour>
		<contour>
			<point x="226" y="570" type="curve"/>
			<point x="257" y="570"/>
			<point x="357" y="594"/>
			<point x="357" y="625" type="curve" smooth="yes"/>
			<point x="357" y="656"/>
			<point x="257" y="680"/>
			<point x="226" y="680" type="curve" smooth="yes"/>
			<point x="195" y="680"/>
			<point x="172" y="656"/>
			<point x="172" y="625" type="curve" smooth="yes"/>
			<point x="172" y="594"/>
			<point x="195" y="570"/>
		</contour>
		<contour>
			<point x="171" y="504" type="curve" smooth="yes"/>
			<point x="197" y="514"/>
			<point x="183" y="617"/>
			<point x="174" y="644" type="curve" smooth="yes"/>
			<point x="165" y="670"/>
			<point x="136" y="682"/>
			<point x="109" y="673" type="curve" smooth="yes"/>
			<point x="83" y="664"/>
			<point x="70" y="636"/>
			<point x="80" y="609" type="curve" smooth="yes"/>
			<point x="90" y="583"/>
			<point x="144" y="494"/>
		</contour>
		<contour>
			<point x="171" y="504" type="curve" smooth="yes"/>
			<point x="197" y="514"/>
			<point x="212" y="542"/>
			<point x="202" y="569" type="curve" smooth="yes"/>
			<point x="192" y="595"/>
			<point x="136" y="682"/>
			<point x="109" y="673" type="curve" smooth="yes"/>
			<point x="83" y="664"/>
			<point x="99" y="561"/>
			<point x="108" y="534" type="curve" smooth="yes"/>
			<point x="117" y="508"/>
			<point x="146" y="494"/>
		</contour>
		<contour>
			<point x="322" y="353" type="curve" smooth="yes"/>
			<point x="296" y="343"/>
			<point x="311" y="240"/>
			<point x="319" y="213" type="curve" smooth="yes"/>
			<point x="327" y="186"/>
			<point x="357" y="175"/>
			<point x="383" y="184" type="curve" smooth="yes"/>
			<point x="410" y="193"/>
			<point x="423" y="221"/>
			<point x="413" y="248" type="curve" smooth="yes"/>
			<point x="403" y="274"/>
			<point x="349" y="363"/>
		</contour>
		<contour>
			<point x="322" y="353" type="curve" smooth="yes"/>
			<point x="296" y="342"/>
			<point x="281" y="315"/>
			<point x="291" y="289" type="curve" smooth="yes"/>
			<point x="301" y="262"/>
			<point x="357" y="175"/>
			<point x="383" y="184" type="curve" smooth="yes"/>
			<point x="410" y="193"/>
			<point x="393" y="295"/>
			<point x="384" y="323" type="curve" smooth="yes"/>
			<point x="376" y="349"/>
			<point x="346" y="363"/>
		</contour>
		<component base="period" xOffset="31"/>
	</outline>
</glyph>
